<svg xmlns="http://www.w3.org/2000/svg" viewBox="0 0 32 32" aria-label="3d print mesh" role="img" fill="currentColor" focusable="false"><path d="m30 15.78-2-9a1 1 0 0 0-.42-.61l-6-4A1 1 0 0 0 21 2H11a1 1 0 0 0-.55.17l-6 4a1 1 0 0 0-.45.61l-2 9a1.1 1.1 0 0 0 0 .51l3 10a1 1 0 0 0 .67.67l10 3a1 1 0 0 0 .56 0l10-3a1 1 0 0 0 .67-.67l3-10a1.1 1.1 0 0 0 .1-.51Zm-19 .84L7 8.8l7.28 2.65Zm5-4.12 3.59 5.5h-7.18Zm3.38 7.5L16 26.76 12.62 20Zm-1.68-8.55L25 8.8l-3.91 7.82Zm.49-2.31 3.1-4.75 3.51 2.35ZM16 8.84 12.85 4h6.31Zm-2.19.3L7.2 6.74l3.52-2.35ZM9 17.17l-4.8-1.8L5.37 10Zm5.1 10.21-6.5-1.95 3.13-4.8Zm7.23-6.75 3.13 4.8-6.5 1.95ZM26.64 10l1.2 5.4L23 17.17Zm-22.1 7.64 4.59 1.73-2.79 4.28Zm21.12 6-2.79-4.28 4.59-1.73Z"/></svg>