<svg xmlns="http://www.w3.org/2000/svg" viewBox="0 0 32 32" aria-label="3d software" role="img" fill="currentColor" focusable="false"><path d="m21.49 13.43-9-5a1 1 0 0 0-1 0l-9 5a1 1 0 0 0-.49.88v10a1 1 0 0 0 .52.87l9 5a1 1 0 0 0 .48.13 1.05 1.05 0 0 0 .49-.13l9-5a1 1 0 0 0 .51-.87v-10a1 1 0 0 0-.51-.88ZM11 27.61l-7-3.89V16l7 3.89Zm1-9.45-6.94-3.85L12 10.45l6.94 3.86Zm8 5.56-7 3.89v-7.72L20 16Z"/><path d="M30 6.32 26 6.32 26 2.31 24 2.31 24 6.32 20 6.32 20 8.31 24 8.31 24 12.31 26 12.31 26 8.31 30 8.31 30 6.32z"/></svg>