<svg xmlns="http://www.w3.org/2000/svg" id="Icons" viewBox="0 0 32 32" aria-label="accessibility" role="img" fill="currentColor" focusable="false"><defs><style>.cls-1{stroke-width:0px;}</style></defs><path d="M21.5 9C23.43 9 25 7.43 25 5.5S23.43 2 21.5 2 18 3.57 18 5.5 19.57 9 21.5 9Zm0-5c.83 0 1.5.67 1.5 1.5S22.33 7 21.5 7 20 6.33 20 5.5 20.67 4 21.5 4ZM25 26v-7c0-.55-.45-1-1-1h-8.64c-.78 0-1.45-.42-1.79-1.12-.34-.7-.27-1.49.21-2.1l3.98-5.17c.17-.23.24-.52.19-.8a.96.96 0 0 0-.47-.67l-5-3a.994.994 0 0 0-.96-.04l-5.97 3 .9 1.79 5.48-2.75 3.56 2.14-2.18 2.82c-.43-.06-.87-.1-1.31-.1-4.97 0-9.01 4.04-9.01 9.01s4.04 9.01 9.01 9.01c4.64 0 8.46-3.52 8.96-8.03h-2.02c-.48 3.4-3.4 6.03-6.93 6.03-3.87 0-7.01-3.15-7.01-7.01s3.08-6.94 6.9-7.01a3.976 3.976 0 0 0-.12 3.76 3.966 3.966 0 0 0 3.59 2.23h7.64v7c0 .55.45 1 1 1h4v-2h-3Z"/></svg>