<svg xmlns="http://www.w3.org/2000/svg" viewBox="0 0 32 32" aria-label="ai results high" role="img" fill="currentColor" focusable="false"><path d="M11 24H21V26H11z"/><path d="M13 28H19V30H13z"/><path d="M23.05 16a9.81 9.81 0 0 1-1.87 2.14c-1.07 1-2.18 2-2.18 3.86h2c0-.92.53-1.45 1.54-2.39A10 10 0 0 0 25.28 16ZM16 4a7.9 7.9 0 0 1 3.69.91l.9-1.79A10 10 0 0 0 6 12a9.19 9.19 0 0 0 3.46 7.62c1 .93 1.54 1.46 1.54 2.38h2c0-1.84-1.11-2.87-2.18-3.86A7.18 7.18 0 0 1 8 12a8 8 0 0 1 8-8ZM29 14H19a1 1 0 0 1-.89-1.45l5-10a1 1 0 0 1 1.79 0l5 10a1 1 0 0 1 0 1 1 1 0 0 1-.9.45Zm-8.38-2h6.76L24 5.24Z"/></svg>