<svg xmlns="http://www.w3.org/2000/svg" viewBox="0 0 32 32" aria-label="ai results very high" role="img" fill="currentColor" focusable="false"><path d="M24 2H26V9H24z"/><path d="M25 11a1.5 1.5 0 1 0 1.5 1.5A1.5 1.5 0 0 0 25 11Z"/><path d="M11 24H21V26H11z"/><path d="M13 28H19V30H13z"/><path d="M23.05 16a9.81 9.81 0 0 1-1.87 2.14c-1.07 1-2.18 2-2.18 3.86h2c0-.92.53-1.45 1.54-2.39A10.08 10.08 0 0 0 25.28 16ZM16 4a8 8 0 0 1 4 1.08V2.84A9.92 9.92 0 0 0 16 2 10 10 0 0 0 6 12a9.19 9.19 0 0 0 3.46 7.62c1 .93 1.54 1.46 1.54 2.38h2c0-1.84-1.11-2.87-2.19-3.86A7.2 7.2 0 0 1 8 12a8 8 0 0 1 8-8Z"/></svg>