<svg xmlns="http://www.w3.org/2000/svg" viewBox="0 0 32 32" aria-label="ai results" role="img" fill="currentColor" focusable="false"><path d="M16 8a6 6 0 0 0 9.47 4.89L28.59 16 30 14.59l-3.11-3.12A6 6 0 1 0 16 8Zm2 0a4 4 0 1 1 4 4 4 4 0 0 1-4-4Z"/><path d="M11 24H21V26H11z"/><path d="M13 28H19V30H13z"/><path d="M10.82 18.14A7.18 7.18 0 0 1 8 12a8 8 0 0 1 6-7.74l-.38-2A10 10 0 0 0 6 12a9.19 9.19 0 0 0 3.46 7.62c1 .93 1.54 1.46 1.54 2.38h2c0-1.84-1.11-2.87-2.18-3.86ZM23.05 16a9.56 9.56 0 0 1-1.87 2.14c-1.07 1-2.18 2-2.18 3.86h2c0-.92.53-1.45 1.54-2.39a10.86 10.86 0 0 0 2.37-2.83Z"/></svg>