<svg xmlns="http://www.w3.org/2000/svg" viewBox="0 0 32 32" aria-label="ai status failed" role="img" fill="currentColor" focusable="false"><path d="M11 24H21V26H11z"/><path d="M13 28H19V30H13z"/><path d="M10.81 18.14A7.2 7.2 0 0 1 8 12a8 8 0 0 1 8-8V2A10 10 0 0 0 6 12a9.19 9.19 0 0 0 3.46 7.62c1 .93 1.54 1.46 1.54 2.38h2c0-1.84-1.11-2.87-2.19-3.86ZM23.8 14a7.28 7.28 0 0 1-2.62 4.14c-1.07 1-2.18 2-2.18 3.86h2c0-.92.53-1.45 1.54-2.39a9.14 9.14 0 0 0 3.3-5.61Z"/><path d="M30 3.41 28.59 2 25 5.59 21.41 2 20 3.41 23.59 7 20 10.59 21.41 12 25 8.41 28.59 12 30 10.59 26.41 7 30 3.41z"/></svg>