<svg xmlns="http://www.w3.org/2000/svg" viewBox="0 0 32 32" aria-label="ai status" role="img" fill="currentColor" focusable="false"><path d="M11 24H21V26H11z"/><path d="M13 28H19V30H13z"/><path d="M23 16a9.31 9.31 0 0 1-1.86 2.14c-1.07 1-2.18 2-2.18 3.86h2c0-.92.53-1.45 1.54-2.39A10.08 10.08 0 0 0 25.28 16ZM20 14a1 1 0 0 1-.89-.55L17.38 10H14V8h4a1 1 0 0 1 .9.55l1.1 2.21 3.11-6.21a1 1 0 0 1 1.79 0L26.62 8H30v2h-4a1 1 0 0 1-.89-.55L24 7.24l-3.1 6.21a1 1 0 0 1-.9.55Z"/><path d="M10.81 18.14A7.2 7.2 0 0 1 8 12a8 8 0 0 1 8-8V2A10 10 0 0 0 6 12a9.19 9.19 0 0 0 3.46 7.62c1 .93 1.54 1.46 1.54 2.38h2c0-1.84-1.11-2.87-2.19-3.86Z"/></svg>