<svg xmlns="http://www.w3.org/2000/svg" viewBox="0 0 32 32" aria-label="ai status complete" role="img" fill="currentColor" focusable="false"><path d="M11 24H21V26H11z"/><path d="M13 28H19V30H13z"/><path d="M10.81 18.14A7.2 7.2 0 0 1 8 12a8 8 0 0 1 8-8V2A10 10 0 0 0 6 12a9.19 9.19 0 0 0 3.46 7.62c1 .93 1.54 1.46 1.54 2.38h2c0-1.84-1.11-2.87-2.19-3.86Z"/><path d="M21 9.59 17.41 6 16 7.41 21 12.41 30 3.41 28.59 2 21 9.59z"/><path d="M23.8 14a7.28 7.28 0 0 1-2.62 4.14c-1.07 1-2.18 2-2.18 3.86h2c0-.92.53-1.45 1.54-2.39a9.14 9.14 0 0 0 3.3-5.61Z"/></svg>