<svg xmlns="http://www.w3.org/2000/svg" viewBox="0 0 32 32" aria-label="all terrain trail" role="img" fill="currentColor" focusable="false"><path d="M6 17a5 5 0 1 0 5 5 5.14 5.14 0 0 0-5-5Zm0 8a3 3 0 0 1 0-6 3.12 3.12 0 0 1 3 3 3 3 0 0 1-3 3ZM26 17a5 5 0 1 0 5 5 5.14 5.14 0 0 0-5-5Zm0 8a3 3 0 0 1 0-6 3.12 3.12 0 0 1 3 3 3 3 0 0 1-3 3Z"/><path d="m28.75 14.69.51-1.93-6.06-1.63-3.06-4.68a1 1 0 0 0-.83-.45H16v2h2.77l2.61 4-3.92 6h-2.92l-2.7-4.14a1 1 0 0 0-.58-.41l-9-2.45-.52 2 8.63 2.31 2.79 4.27A1 1 0 0 0 14 20h4a1 1 0 0 0 .84-.45l4.16-6.4Z"/><path d="M26 10V6a2 2 0 0 0 0 4Z"/></svg>