<svg xmlns="http://www.w3.org/2000/svg" viewBox="0 0 32 32" aria-label="apple" role="img" fill="currentColor" focusable="false"><path d="M21.78 8a11.67 11.67 0 0 0-3.06.53A14.38 14.38 0 0 1 16.9 9 6 6 0 0 0 11 4v2a4 4 0 0 1 3.83 2.9c-.52-.09-1.06-.22-1.62-.36A12.61 12.61 0 0 0 10 8c-3.72 0-6 3.07-6 8 0 7.51 4.07 12 8 12a7.06 7.06 0 0 0 2.49-.59A5.06 5.06 0 0 1 16 27a5.06 5.06 0 0 1 1.51.41A7.06 7.06 0 0 0 20 28c3.93 0 8-4.49 8-12 0-3.69-1.63-8-6.22-8ZM20 26a5.7 5.7 0 0 1-1.79-.46A6.29 6.29 0 0 0 16 25a6.29 6.29 0 0 0-2.21.54A5.7 5.7 0 0 1 12 26c-2.95 0-6-3.74-6-10 0-1.8.39-6 4-6a11.37 11.37 0 0 1 2.68.47 12.58 12.58 0 0 0 3 .53h.49a11.63 11.63 0 0 0 3-.54 10.26 10.26 0 0 1 2.61-.46c4 0 4.22 5 4.22 6 0 6.26-3 10-6 10Z"/><path d="M18 7h-1V6a2 2 0 0 1 2-2h1v1a2 2 0 0 1-2 2Z"/></svg>