<svg xmlns="http://www.w3.org/2000/svg" viewBox="0 0 32 32" aria-label="archery alt" role="img" fill="currentColor" focusable="false"><path d="M10 11a3.5 3.5 0 1 0-3.5-3.5A3.5 3.5 0 0 0 10 11Zm0-5a1.5 1.5 0 1 1-1.5 1.5A1.5 1.5 0 0 1 10 6Z"/><path d="M12.25 19.86H14.25V30H12.25z"/><path d="M30 12.66h-1.17C28.47 7 25.08 2.32 20.32 1l-.73-.15-6.93 11.81H6.19a1 1 0 0 0-.75.35l-3.18 3.66a1 1 0 0 0-.16 1.07 1 1 0 0 0 .91.58h2.68V30h2V18.32h3.5v-2h-6l1.44-1.66h6l6.91 11.82.74-.19c4.76-1.28 8.15-6 8.51-11.63H30Zm-9.48-9.45c3.46 1.3 6 5.08 6.31 9.45H15Zm0 20.91L15 14.66h11.83c-.34 4.34-2.83 8.16-6.31 9.46Z"/></svg>