<svg xmlns="http://www.w3.org/2000/svg" viewBox="0 0 32 32" aria-label="baseball" role="img" fill="currentColor" focusable="false"><path d="M25.9 6.1a14 14 0 1 0 0 19.8 14 14 0 0 0 0-19.8ZM7.51 7.51a12 12 0 0 1 8-3.48 12.23 12.23 0 0 1-.4 2.68l-1.33-.48-.69 1.88 1.34.48a11.85 11.85 0 0 1-1.74 2.73l-1-1-1.42 1.41 1 1a12.29 12.29 0 0 1-2.72 1.73l-.48-1.33-1.88.69.48 1.32a11.51 11.51 0 0 1-2.67.41 12 12 0 0 1 3.51-8.04Zm-3.39 10A13.86 13.86 0 0 0 7.39 17l.45 1.23 1.88-.68-.45-1.23a14.1 14.1 0 0 0 3.46-2.2l.93.92 1.41-1.41-.92-.93a13.8 13.8 0 0 0 2.2-3.45l1.23.44.68-1.88L17 7.39a13.67 13.67 0 0 0 .52-3.27 11.88 11.88 0 0 1 10.36 10.33 13.29 13.29 0 0 0-3.27.52l-.45-1.23-1.88.68.45 1.23a14.1 14.1 0 0 0-3.46 2.2l-.93-.92-1.41 1.41.92.93a13.8 13.8 0 0 0-2.2 3.45l-1.23-.44-.68 1.88 1.23.45a13.75 13.75 0 0 0-.52 3.27A11.88 11.88 0 0 1 4.12 17.55ZM16.46 28a12.21 12.21 0 0 1 .39-2.68l1.33.48.69-1.88-1.34-.48a12.3 12.3 0 0 1 1.74-2.73l1 1 1.41-1.42-1-1a11.58 11.58 0 0 1 2.67-1.71h.06l.48 1.34 1.88-.69-.48-1.32a12.24 12.24 0 0 1 2.71-.46A11.9 11.9 0 0 1 16.46 28Z"/></svg>