<svg xmlns="http://www.w3.org/2000/svg" viewBox="0 0 32 32" aria-label="basketball" role="img" fill="currentColor" focusable="false"><path d="M16 2a14 14 0 1 0 14 14A14 14 0 0 0 16 2Zm12 13h-6a14.33 14.33 0 0 1 2.74-7.15A11.93 11.93 0 0 1 28 15Zm-11 0V4.05a12 12 0 0 1 6.29 2.44A16.18 16.18 0 0 0 20 15Zm-2 0h-3a16.18 16.18 0 0 0-3.29-8.51A12 12 0 0 1 15 4.05Zm0 2v11a12 12 0 0 1-6.29-2.44A16.18 16.18 0 0 0 12 17Zm2 0h3a16.18 16.18 0 0 0 3.25 8.51A12 12 0 0 1 17 28ZM7.22 7.85A14.33 14.33 0 0 1 10 15H4.05a11.93 11.93 0 0 1 3.17-7.15ZM4.05 17H10a14.33 14.33 0 0 1-2.74 7.15A11.93 11.93 0 0 1 4.05 17Zm20.73 7.15A14.33 14.33 0 0 1 22 17h6a11.93 11.93 0 0 1-3.22 7.15Z"/></svg>