<svg xmlns="http://www.w3.org/2000/svg" viewBox="0 0 32 32" aria-label="bear" role="img" fill="currentColor" focusable="false"><path d="m29.91 21.58-5.14-11A4 4 0 1 0 19.13 6h-6.26a4 4 0 1 0-5.64 4.57l-5.14 11a1 1 0 0 0 .16 1.08 18.08 18.08 0 0 0 27.5 0 1 1 0 0 0 .16-1.07ZM16 27a16 16 0 0 1-11.81-5.18l5.33-11.44a1 1 0 0 0 0-.9A1 1 0 0 0 8.75 9 2 2 0 1 1 11 7v1h10V7a2 2 0 1 1 2.25 2 1 1 0 0 0-.74.51 1 1 0 0 0 0 .9l5.33 11.44A16 16 0 0 1 16 27Z"/><path d="M20.27 16.43a4.37 4.37 0 0 0-8.54 0l-1.22 5.48a1 1 0 0 0 .6 1.15 13.19 13.19 0 0 0 9.78 0 1 1 0 0 0 .6-1.15Zm-5.51-1.08a1.51 1.51 0 0 0 2.48 0 2.35 2.35 0 0 1 1.08 1.51L19 20l-2.4-1.8a1 1 0 0 0-1.2 0L13 20l.7-3.16a2.35 2.35 0 0 1 1.06-1.49Zm-.83 6.45L16 20.25l2.07 1.55a11.08 11.08 0 0 1-4.14 0Z"/><circle cx="12" cy="12" r="1"/><circle cx="20" cy="12" r="1"/></svg>