<svg xmlns="http://www.w3.org/2000/svg" viewBox="0 0 32 32" aria-label="bicycle" role="img" fill="currentColor" focusable="false"><path d="M26 16h-.26l-1.5-7H28V7h-5a1 1 0 0 0-1 1.21l.6 2.79H12.39l-1-3H14V6H7v2h2.28l1 3.12-2.53 5.14A5.93 5.93 0 0 0 6 16a6 6 0 1 0 5.91 7h2.61a2 2 0 0 0 1.56-.75l7.06-8.82.64 3A6 6 0 1 0 26 16ZM6 26a4 4 0 0 1 0-8 3.86 3.86 0 0 1 .84.09l-1.73 3.46A.93.93 0 0 0 5 22a1 1 0 0 0 1.89.44L8.62 19A4 4 0 0 1 6 26Zm5.91-5a6 6 0 0 0-2.37-3.84l1.68-3.35L13.61 21Zm3.46-1.06L13.05 13h7.87ZM26 26a4 4 0 0 1-1.78-7.56l.8 3.77A1 1 0 0 0 26 23a1 1 0 0 0 1-1 1.55 1.55 0 0 0 0-.21L26.17 18a4 4 0 0 1-.17 8Z"/></svg>