<svg xmlns="http://www.w3.org/2000/svg" viewBox="0 0 32 32" aria-label="bingo" role="img" fill="currentColor" focusable="false"><path d="M13.22 3a2.36 2.36 0 1 0 2.36 2.36A2.35 2.35 0 0 0 13.22 3Zm0 3.72a1.36 1.36 0 1 1 1.36-1.36 1.36 1.36 0 0 1-1.36 1.37Z"/><path d="m29 8.3.23-.21a2.6 2.6 0 0 0 .1-3.67L26 .83a2.6 2.6 0 0 0-3.67-.1l-.22.21a2.87 2.87 0 0 0-.41.51A13.48 13.48 0 0 0 15.58 0a13.63 13.63 0 0 0-6.69 25.51l-2.37 5a1 1 0 1 0 1.81.85l2.37-5a13.51 13.51 0 0 0 9.75 0l2.38 5.06a1 1 0 0 0 .91.58.9.9 0 0 0 .42-.1 1 1 0 0 0 .48-1.33l-2.37-5.06a13.59 13.59 0 0 0 6-16.74A2.42 2.42 0 0 0 29 8.3Zm-5.34-6.12a.6.6 0 0 1 .84 0l3.4 3.59a.59.59 0 0 1 0 .84l-.22.22a.47.47 0 0 1-.19.11 13.61 13.61 0 0 0-4.08-4.49l.05-.08Zm-1-.18-.19-.11Zm-9.9 20.9a1.36 1.36 0 1 1 1.35 1.36 1.36 1.36 0 0 1-1.35-1.36Zm1.35-2.36a2.42 2.42 0 0 0-.47.05 1.36 1.36 0 0 1 2.69.25 1.23 1.23 0 0 1-.06.39 1.76 1.76 0 0 0-.24.3 2.36 2.36 0 0 0-1.92-.99Zm3.83 1a1.15 1.15 0 0 1 .26 0l.93 2a1.36 1.36 0 1 1-1.19-2Zm1.63-1.77a1.36 1.36 0 1 1 1.33 1.64 1.28 1.28 0 0 1-.64-.17Zm-4-4.08a2.06 2.06 0 1 1 2-2 2.05 2.05 0 0 1-1.99 2Zm0 2a3.84 3.84 0 0 0 .76-.08l1.39 2.95a2 2 0 0 0-.42.08 2.36 2.36 0 0 0-2.3-2.16 2.5 2.5 0 0 0-.61.09l.45-1a3.87 3.87 0 0 0 .74.12ZM10.09 23a1.36 1.36 0 0 1 .16-2.71 1.35 1.35 0 0 1 .93.38Zm-.22-3.67a2.29 2.29 0 0 0-1.15.55 1.36 1.36 0 1 1 1.43-1.36 1.32 1.32 0 0 1-.28.77Zm2.05 4.47A2.36 2.36 0 0 0 13 25a10 10 0 0 1-1.47-.44Zm2.6 1.46a2.38 2.38 0 0 0 1.48-.98 2.33 2.33 0 0 0 1.2.86 11.24 11.24 0 0 1-1.65.13c-.33 0-.68-.02-1.03-.05Zm6.89-1.53-.61-1.33h.1a2.36 2.36 0 1 0 0-4.72 2.33 2.33 0 0 0-1.87.94l-.88-1.88a4 4 0 0 0 1.48-3.11 3.7 3.7 0 0 0-.09-.83 2.45 2.45 0 0 0 1.07.26 2.36 2.36 0 1 0-2.35-2.45 4 4 0 0 0-2.68-1 4.06 4.06 0 0 0-4.06 4.06A4 4 0 0 0 13 16.75l-1.38 2.95a2.55 2.55 0 0 0-.66-.33 2.18 2.18 0 0 0 .19-.89 2.36 2.36 0 1 0-3.08 2.24 2.4 2.4 0 0 0-.18.89 2.32 2.32 0 0 0 .19.91 11.6 11.6 0 0 1-4.14-8.88 10.78 10.78 0 0 1 .16-1.81 2.35 2.35 0 1 0 .35-1.58 11.63 11.63 0 0 1 22.76 3.39 13.36 13.36 0 0 1-.09 1.42 2.36 2.36 0 1 0-2.22 3.15 2.4 2.4 0 0 0 1.62-.64 11.72 11.72 0 0 1-5.11 6.12Zm-2.16-13a1.36 1.36 0 1 1 1.36 1.36 1.36 1.36 0 0 1-1.36-1.38Zm-14.18.82a1.36 1.36 0 1 1 1.36 1.36 1.36 1.36 0 0 1-1.36-1.38Zm21.19 4.32a1.36 1.36 0 1 1-1.36-1.36 1.36 1.36 0 0 1 1.36 1.34Zm1.58-8.14.1.21Z"/></svg>