<svg xmlns="http://www.w3.org/2000/svg" viewBox="0 0 32 32" aria-label="bird" role="img" fill="currentColor" focusable="false"><path d="m1.37 24.35 17-20A5.93 5.93 0 0 1 23.13 2 6 6 0 0 1 29 7h2.09v2H29a6 6 0 0 1-5.91 5v-2a4 4 0 1 0-3.24-6.35L7.69 20h6.44a4 4 0 0 0 4-4h2a6 6 0 0 1-6 6H7.45a9 9 0 0 0 15.68-6h2a11 11 0 0 1-5.08 9.26L23.48 28h2.65v2h-7v-2h1.15l-2.19-1.75a10.85 10.85 0 0 1-4 .75c-.31 0-.61 0-.91-.06L14.49 28h2.64v2h-7v-2h1.24l-3.88-3.23a11.07 11.07 0 0 1-2.09-2.08l-2.51 3Z"/><circle cx="24.13" cy="7" r="1"/></svg>