<svg xmlns="http://www.w3.org/2000/svg" viewBox="0 0 32 32" aria-label="brush polygon" role="img" fill="currentColor" focusable="false"><path d="M28.83 3.17a4.1 4.1 0 0 0-5.66 0L4.05 22.29a7 7 0 0 0-2 4.95V30h2.71a7 7 0 0 0 5-2.05L28.83 8.83a4 4 0 0 0 0-5.66ZM10.91 18.26l2.83 2.83-2.12 2.12-2.83-2.83Zm-2.62 8.28A5 5 0 0 1 4.76 28H4v-.76a5 5 0 0 1 1.46-3.53l1.91-1.91 2.83 2.82ZM27.41 7.41 15.15 19.67l-2.83-2.82L24.59 4.59a2 2 0 0 1 2.82 0 2 2 0 0 1 0 2.82ZM14 2a3 3 0 0 0-2.82 2H7.82A3 3 0 1 0 4 7.82v3.36a3 3 0 1 0 2 0V7.82A3 3 0 0 0 7.82 6h3.36A3 3 0 1 0 14 2ZM5 15a1 1 0 1 1 1-1 1 1 0 0 1-1 1Zm0-9a1 1 0 1 1 1-1 1 1 0 0 1-1 1Zm9 0a1 1 0 1 1 1-1 1 1 0 0 1-1 1Z"/></svg>