<svg xmlns="http://www.w3.org/2000/svg" viewBox="0 0 32 32" aria-label="brush freehand" role="img" fill="currentColor" focusable="false"><path d="M28.83 3.17a4.1 4.1 0 0 0-5.66 0L4.05 22.29a7 7 0 0 0-2 4.95V30h2.71a7 7 0 0 0 5-2.05L28.83 8.83a4 4 0 0 0 0-5.66ZM10.91 18.26l2.83 2.83-2.12 2.12-2.83-2.83Zm-2.62 8.28A5 5 0 0 1 4.76 28H4v-.76a5 5 0 0 1 1.46-3.53l1.91-1.91 2.83 2.82ZM27.41 7.41 15.15 19.67l-2.83-2.82L24.59 4.59a2 2 0 0 1 2.82 0 2 2 0 0 1 0 2.82ZM6.5 15A3.5 3.5 0 0 1 4 9l3.5-3.5a1.51 1.51 0 0 0 0-2.12 1.54 1.54 0 0 0-2.13 0l-2 2L2 4l2-2a3.59 3.59 0 0 1 4.94 0 3.51 3.51 0 0 1 0 5l-3.5 3.5a1.49 1.49 0 0 0 0 2.12 1.53 1.53 0 0 0 2.12 0l4-4L13 10l-4 4a3.46 3.46 0 0 1-2.5 1Z"/></svg>