<svg xmlns="http://www.w3.org/2000/svg" viewBox="0 0 32 32" aria-label="building insights 2" role="img" fill="currentColor" focusable="false"><path d="M5.5 12a3.5 3.5 0 0 1 0-7h.63A4 4 0 0 1 10 2h2v2h-2a2 2 0 0 0-2 2v1H5.5a1.5 1.5 0 0 0 0 3H12v2Z"/><path d="M28 2H16a2 2 0 0 0-2 2v10H4a2 2 0 0 0-2 2v14h28V4a2 2 0 0 0-2-2ZM9 28v-7h4v7Zm19 0H15v-8a1 1 0 0 0-1-1H8a1 1 0 0 0-1 1v8H4V16h12V4h12Z"/><path d="M18 8H20V10H18z"/><path d="M24 8H26V10H24z"/><path d="M18 14H20V16H18z"/><path d="M24 14H26V16H24z"/><path d="M18 20H20V22H18z"/><path d="M24 20H26V22H24z"/></svg>