<svg xmlns="http://www.w3.org/2000/svg" viewBox="0 0 32 32" aria-label="building insights 3" role="img" fill="currentColor" focusable="false"><path d="M2 10H7V12H2z"/><path d="M10 2H12V7H10z"/><path d="M5.5 3.96H7.5V9.030000000000001H5.5z" transform="rotate(-45 6.501 6.497)"/><path d="M28 2H16a2 2 0 0 0-2 2v10H4a2 2 0 0 0-2 2v14h28V4a2 2 0 0 0-2-2ZM9 28v-7h4v7Zm19 0H15v-8a1 1 0 0 0-1-1H8a1 1 0 0 0-1 1v8H4V16h12V4h12Z"/><path d="M18 8H20V10H18z"/><path d="M24 8H26V10H24z"/><path d="M18 14H20V16H18z"/><path d="M24 14H26V16H24z"/><path d="M18 20H20V22H18z"/><path d="M24 20H26V22H24z"/></svg>