<svg xmlns="http://www.w3.org/2000/svg" viewBox="0 0 32 32" aria-label="butterfly" role="img" fill="currentColor" focusable="false"><path d="M28.36 3.28a2.81 2.81 0 0 0-3 .35 25.17 25.17 0 0 0-5.3 5.83 24.51 24.51 0 0 0-2 3.87L17 15.7V13h-2v2.7l-1-2.37a24.51 24.51 0 0 0-2-3.87 25.17 25.17 0 0 0-5.3-5.83 2.81 2.81 0 0 0-3-.35A2.88 2.88 0 0 0 2 5.91v8.9a5.59 5.59 0 0 0 4.13 5.42 6.72 6.72 0 0 0-.48.67 5.11 5.11 0 0 0 0 5.13l.54.94a4 4 0 0 0 3.45 2h.22a4 4 0 0 0 3.46-2.45l1.68-4.3V27h2v-4.78l1.7 4.35A4 4 0 0 0 22.15 29h.22a4 4 0 0 0 3.45-2l.54-.94a5.11 5.11 0 0 0 0-5.13 6.72 6.72 0 0 0-.48-.67A5.59 5.59 0 0 0 30 14.81v-8.9a2.88 2.88 0 0 0-1.64-2.63ZM4 14.81v-8.9a.9.9 0 0 1 .5-.83A1 1 0 0 1 4.87 5a.77.77 0 0 1 .51.19 23.56 23.56 0 0 1 4.88 5.37 23.7 23.7 0 0 1 1.87 3.57L14 18.41H7.5a3.55 3.55 0 0 1-3.5-3.6Zm7.46 11A2 2 0 0 1 9.74 27a1.94 1.94 0 0 1-1.82-1l-.54-1a3.11 3.11 0 0 1 0-3.12A3 3 0 0 1 10 20.41h3.6ZM24.62 25l-.54.95a2 2 0 0 1-3.53-.17l-2.11-5.4H22a3 3 0 0 1 2.58 1.5 3.11 3.11 0 0 1 .04 3.12ZM28 14.81a3.55 3.55 0 0 1-3.5 3.6H18l1.87-4.28a22.19 22.19 0 0 1 6.75-8.94.82.82 0 0 1 .88-.11.9.9 0 0 1 .5.83Z"/></svg>