<svg xmlns="http://www.w3.org/2000/svg" viewBox="0 0 32 32" aria-label="calculator" role="img" fill="currentColor" focusable="false"><path d="M26 4v24H6V4h20m0-2H6a2 2 0 0 0-2 2v24a2 2 0 0 0 2 2h20a2 2 0 0 0 2-2V4a2 2 0 0 0-2-2Z"/><path d="M9 23H11V25H9z"/><path d="M21 23H23V25H21z"/><path d="M9 18H11V20H9z"/><path d="M21 18H23V20H21z"/><path d="M9 13H11V15H9z"/><path d="M15 23H17V25H15z"/><path d="M15 18H17V20H15z"/><path d="M15 13H17V15H15z"/><path d="M21 13H23V15H21z"/><path d="M9 7H23V10H9z"/></svg>