<svg xmlns="http://www.w3.org/2000/svg" viewBox="0 0 32 32" aria-label="calendar settings" role="img" fill="currentColor" focusable="false"><path d="M28 6a2 2 0 0 0-2-2h-4V2h-2v2h-8V2h-2v2H6a2 2 0 0 0-2 2v20a2 2 0 0 0 2 2h4v-2H6V6h4v2h2V6h8v2h2V6h4v6h2Z"/><path d="M30 23v-2h-2.09a6 6 0 0 0-1-2.47l1.47-1.48L27 15.64l-1.48 1.47a6 6 0 0 0-2.47-1V14H21v2.09a6 6 0 0 0-2.47 1l-1.48-1.47-1.41 1.41 1.48 1.48a5.83 5.83 0 0 0-1 2.47H14v2h2.09a5.83 5.83 0 0 0 1 2.47L15.64 27l1.41 1.41 1.48-1.47a6 6 0 0 0 2.47 1V30h2v-2.09a6 6 0 0 0 2.47-1L27 28.36 28.36 27l-1.47-1.48a6 6 0 0 0 1-2.47Zm-8 3a4 4 0 1 1 4-4 4 4 0 0 1-4 4Z"/></svg>