<svg xmlns="http://www.w3.org/2000/svg" viewBox="0 0 32 32" aria-label="canoe" role="img" fill="currentColor" focusable="false"><path d="M8.5 10A3.5 3.5 0 1 0 5 6.48 3.5 3.5 0 0 0 8.5 10Zm0-5A1.5 1.5 0 1 1 7 6.48 1.5 1.5 0 0 1 8.5 5Z"/><path d="M28.11 27a6 6 0 0 0-4-9l-.59-.1-.37.47a4 4 0 0 1-2.95 1.53h-3.37L23 13.71a2.87 2.87 0 0 0 1.18.27 2.8 2.8 0 0 0 1.75-.61l3.37-2.7a2 2 0 0 0 .16-3L27.62 5.9a2 2 0 0 0-3 .17L22 9.44a2.78 2.78 0 0 0-.39 2.83L17.86 16l-4.45-4.45A2 2 0 0 0 12 11H6a2 2 0 0 0-2 2v6.91H2v2h18a6 6 0 0 0 4.25-1.79A4 4 0 0 1 27 23.89a3.91 3.91 0 0 1-.87 2.47A4.12 4.12 0 0 1 25 24.71a1 1 0 0 0-1-.71 1 1 0 0 0-.95.68A3.43 3.43 0 0 1 20 27a3.44 3.44 0 0 1-3-2.29 1 1 0 0 0-1.9 0A3.43 3.43 0 0 1 12 27a3.44 3.44 0 0 1-3-2.29A1 1 0 0 0 8 24a1 1 0 0 0-1 .68A3.43 3.43 0 0 1 4 27H2v2h2a4.93 4.93 0 0 0 4-2 5 5 0 0 0 8 0 5 5 0 0 0 8 0 4.93 4.93 0 0 0 4 2h2v-2Zm-4.6-16.33 2.7-3.37L28 9.1l-3.37 2.7a.77.77 0 0 1-.5.18.79.79 0 0 1-.62-1.29ZM6 13h6l4.45 4.45L14 19.89h-2V16h-2v3.91H6Z"/></svg>