<svg xmlns="http://www.w3.org/2000/svg" viewBox="0 0 32 32" aria-label="capitol" role="img" fill="currentColor" focusable="false"><path d="M2.63 27.99H29.38V29.99H2.63z"/><path d="M27.67 24h-1.44V15.87H5.78V24H4.33v2h23.34Zm-12.52-6.13h1.69V24h-1.69Zm-2 6.11h-1.69v-6.11h1.69Zm5.69-6.11h1.69V24h-1.69Zm3.69 0h1.7V24h-1.7Zm-14.76 0h1.69V24H7.77ZM27.67 12h-2.28A9.41 9.41 0 0 0 17 4.26V2h-2v2.26A9.41 9.41 0 0 0 6.61 12H4.33v2h23.34ZM16 6.21A7.48 7.48 0 0 1 23.37 12H8.63A7.48 7.48 0 0 1 16 6.21Z"/></svg>