<svg xmlns="http://www.w3.org/2000/svg" viewBox="0 0 32 32" aria-label="category new each" role="img" fill="currentColor" focusable="false"><path d="M29 10h-5v2h5v6h-7v2h3v2.14a4 4 0 1 0 2 0V20h2a2 2 0 0 0 2-2v-6a2 2 0 0 0-2-2Zm-1 16a2 2 0 1 1-2-2 2 2 0 0 1 2 2ZM19 6h-5v2h5v6h-7v2h3v6.14a4 4 0 1 0 2 0V16h2a2 2 0 0 0 2-2V8a2 2 0 0 0-2-2Zm-1 20a2 2 0 1 1-2-2 2 2 0 0 1 2 2ZM9 2H3a2 2 0 0 0-2 2v6a2 2 0 0 0 2 2h2v10.14a4 4 0 1 0 2 0V12h2a2 2 0 0 0 2-2V4a2 2 0 0 0-2-2ZM8 26a2 2 0 1 1-2-2 2 2 0 0 1 2 2ZM3 10V4h6v6Z"/></svg>