<svg xmlns="http://www.w3.org/2000/svg" viewBox="0 0 32 32" aria-label="categories" role="img" fill="currentColor" focusable="false"><path d="m6.76 6 .45.89L7.76 8H12v5H4V6h2.76m.62-2H3a1 1 0 0 0-1 1v9a1 1 0 0 0 1 1h10a1 1 0 0 0 1-1V7a1 1 0 0 0-1-1H9l-.72-1.45a1 1 0 0 0-.9-.55ZM22.76 6l.45.89.55 1.11H28v5h-8V6h2.76m.62-2H19a1 1 0 0 0-1 1v9a1 1 0 0 0 1 1h10a1 1 0 0 0 1-1V7a1 1 0 0 0-1-1h-4l-.72-1.45a1 1 0 0 0-.9-.55ZM6.76 19l.45.89.55 1.11H12v5H4v-7h2.76m.62-2H3a1 1 0 0 0-1 1v9a1 1 0 0 0 1 1h10a1 1 0 0 0 1-1v-7a1 1 0 0 0-1-1H9l-.72-1.45a1 1 0 0 0-.9-.55ZM22.76 19l.45.89.55 1.11H28v5h-8v-7h2.76m.62-2H19a1 1 0 0 0-1 1v9a1 1 0 0 0 1 1h10a1 1 0 0 0 1-1v-7a1 1 0 0 0-1-1h-4l-.72-1.45a1 1 0 0 0-.9-.55Z"/></svg>