<svg xmlns="http://www.w3.org/2000/svg" viewBox="0 0 32 32" aria-label="category and" role="img" fill="currentColor" focusable="false"><path d="M4 30v-4h11v4h2v-4h11v4h2v-4a2 2 0 0 0-2-2H17v-5h-2v5H4a2 2 0 0 0-2 2v4ZM20.7 14a10.15 10.15 0 0 0 1.3-4h1V8h-3v1a9.18 9.18 0 0 1-.66 3.27l-2.69-3.39a5 5 0 0 0 2.14-2.37 3.24 3.24 0 0 0-.18-2.7 3.43 3.43 0 0 0-2.24-1.71 3.48 3.48 0 0 0-4.23 2.12c-.5 1.55.45 3.12 1.27 4.11a4.74 4.74 0 0 0-2.35 4.83A4.45 4.45 0 0 0 15.43 17a5.8 5.8 0 0 0 4-1.42l1.1 1.42h2.55Zm-6.65-9.16A1.31 1.31 0 0 1 15.41 4a2.39 2.39 0 0 1 .53.06 1.41 1.41 0 0 1 .91.7 1.27 1.27 0 0 1 .08 1 3.74 3.74 0 0 1-1.69 1.6c-.66-.68-1.43-1.79-1.19-2.52ZM15.43 15A2.44 2.44 0 0 1 13 12.85a2.83 2.83 0 0 1 1.81-3L18.16 14a3.88 3.88 0 0 1-2.73 1Z"/></svg>