<svg xmlns="http://www.w3.org/2000/svg" viewBox="0 0 32 32" aria-label="cd create archive" role="img" fill="currentColor" focusable="false"><path d="M14 20a6 6 0 1 1 6-6 6 6 0 0 1-6 6Zm0-10a4 4 0 1 0 4 4 4 4 0 0 0-4-4Z"/><path d="M17 23.54a9.91 9.91 0 0 1-3 .46 10 10 0 1 1 10-10c0 .34 0 .67-.05 1h2c0-.33.05-.66.05-1a12 12 0 1 0-12 12 12.33 12.33 0 0 0 3-.39Z"/><path d="m25 30-2.14-1A5 5 0 0 1 20 24.47V18h10v6.47A5 5 0 0 1 27.14 29Zm-3-10v4.47a3 3 0 0 0 1.72 2.71l1.28.61 1.28-.61A3 3 0 0 0 28 24.47V20Z"/><circle cx="14" cy="14" r="2"/></svg>