<svg xmlns="http://www.w3.org/2000/svg" viewBox="0 0 32 32" aria-label="chart multitype" role="img" fill="currentColor" focusable="false"><path d="M24 18H26V30H24z"/><path d="M28 22H30V30H28z"/><path d="M20 26H22V30H20z"/><path d="m22.54 12 4-6H30V4h-4.54l-4 6H18V2h-2v12a2 2 0 0 0 2 2h12v-2H18v-2Z"/><path d="M9 16a7 7 0 1 0 7 7 7 7 0 0 0-7-7Zm4.9 6H10v-3.9a5 5 0 0 1 3.9 3.9ZM9 28a5 5 0 0 1-1-9.9V22a2 2 0 0 0 2 2h3.9A5 5 0 0 1 9 28Z"/><circle cx="3" cy="13" r="1"/><circle cx="5" cy="9" r="1"/><circle cx="7" cy="5" r="1"/><circle cx="11" cy="7" r="1"/><circle cx="9" cy="11" r="1"/></svg>