<svg xmlns="http://www.w3.org/2000/svg" viewBox="0 0 32 32" aria-label="chart sunburst" role="img" fill="currentColor" focusable="false"><path d="M16 2a1 1 0 0 0-1 1v7.09a5.94 5.94 0 0 0-2.46 1l-4.7-4.7a1.46 1.46 0 0 0-2.09 0A14 14 0 0 0 9.8 28.6a11.08 11.08 0 0 0 1.9.76 14.1 14.1 0 0 0 13.85-3.13 1.44 1.44 0 0 0 0-2.06l-4.7-4.7a6 6 0 0 0 1-2.47H29a1 1 0 0 0 1-1A14 14 0 0 0 16 2Zm0 10a4 4 0 1 1-4 4 4 4 0 0 1 4-4ZM6.83 8.25l4.3 4.3A5.91 5.91 0 0 0 10 16a6 6 0 0 0 1.11 3.47l-4.27 4.28a12 12 0 0 1-.01-15.5Zm1.42 16.91 4.28-4.27a6 6 0 0 0 2.47 1v6a11.85 11.85 0 0 1-6.75-2.73ZM17 28v-6.09a5.92 5.92 0 0 0 2.46-1l4.28 4.28A11.93 11.93 0 0 1 17 28Zm4.91-13A6 6 0 0 0 17 10.09V4a12 12 0 0 1 11 11Z"/></svg>