<svg xmlns="http://www.w3.org/2000/svg" viewBox="0 0 32 32" aria-label="chart river" role="img" fill="currentColor" focusable="false"><path d="m12.43 20 8 4.68a2 2 0 0 0 1.05.3 2.12 2.12 0 0 0 .49-.06l7.25-2A1 1 0 0 0 30 22V8a1 1 0 0 0-1.26-1L21.5 9l-8-4.68a2 2 0 0 0-1.87-.13L4 7.47V2H2v26a2 2 0 0 0 2 2h26v-2H4v-4.34ZM28 21.23 21.5 23l-8-4.68a2 2 0 0 0-1.87-.13L4 21.47v-4.81L12.43 13l8 4.68a2 2 0 0 0 1.05.3 2.12 2.12 0 0 0 .49-.06l6-1.63ZM12.43 6l8 4.68a2 2 0 0 0 1.54.24l6-1.63v4.92L21.5 16l-8-4.68a2 2 0 0 0-1.87-.13L4 14.47V9.66Z"/></svg>