<svg xmlns="http://www.w3.org/2000/svg" viewBox="0 0 32 32" aria-label="chart custom" role="img" fill="currentColor" focusable="false"><path d="M12 30H6a2 2 0 0 1-2-2V4a2 2 0 0 1 2-2h16a2 2 0 0 1 2 2v10h-2V4H6v24h6Z"/><path d="M6 12H16V14H6z" transform="rotate(-90 11 13)"/><path d="M12 14H18V16H12z" transform="rotate(-90 15 15)"/><path d="M17 15H21V17H17z" transform="rotate(-90 19 16)"/><path d="m29.71 19.29-3-3a1 1 0 0 0-1.42 0L16 25.59V30h4.41l9.3-9.29a1 1 0 0 0 0-1.42ZM19.59 28H18v-1.59l5-5L24.59 23ZM26 21.59 24.41 20 26 18.41 27.59 20Z"/></svg>