<svg xmlns="http://www.w3.org/2000/svg" viewBox="0 0 32 32" aria-label="chart area smooth" role="img" fill="currentColor" focusable="false"><path d="m30 6.61-1.32.44A20.8 20.8 0 0 1 23 8c-1.73 0-3.32-.91-5-1.87C16.16 5.08 14.27 4 12 4 9.12 4 5.91 6.21 4 7.77V2H2v26a2 2 0 0 0 2 2h26ZM4 20.29C5.87 17.38 9.56 13 12 13c1.64 0 3 1.1 4.36 2.27S19.64 18 22 18a9.45 9.45 0 0 0 6-2.53v5A13.08 13.08 0 0 1 22 22a13.76 13.76 0 0 1-4.68-.95A15.65 15.65 0 0 0 12 20c-2.93 0-6.07 3-8 5.16ZM12 6c1.73 0 3.32.91 5 1.87 1.84 1 3.73 2.13 6 2.13a21.54 21.54 0 0 0 5-.68v3.32c-.68.81-3.08 3.36-6 3.36-1.64 0-3-1.1-4.36-2.27S14.36 11 12 11c-2.94 0-6.06 3.34-8 5.84v-6.42C5.55 9 9.26 6 12 6ZM4.25 28c1.61-2.09 5.16-6 7.75-6a13.76 13.76 0 0 1 4.68.95A15.65 15.65 0 0 0 22 24a14.76 14.76 0 0 0 6-1.34V28Z"/></svg>