<svg xmlns="http://www.w3.org/2000/svg" viewBox="0 0 32 32" aria-label="chart point" role="img" fill="currentColor" focusable="false"><path d="M30 30H4a2 2 0 0 1-2-2V2h2v26h26Z"/><path d="M9 17a3 3 0 1 1 3-3 3 3 0 0 1-3 3Zm0-4a1 1 0 1 0 1 1 1 1 0 0 0-1-1Z"/><path d="M27 17a3 3 0 1 1 3-3 3 3 0 0 1-3 3Zm0-4a1 1 0 1 0 1 1 1 1 0 0 0-1-1ZM18 26a3 3 0 1 1 3-3 3 3 0 0 1-3 3Zm0-4a1 1 0 1 0 1 1 1 1 0 0 0-1-1ZM18 8a3 3 0 1 1 3-3 3 3 0 0 1-3 3Zm0-4a1 1 0 1 0 1 1 1 1 0 0 0-1-1Z"/><circle cx="9" cy="6" r="3"/><circle cx="9" cy="22" r="3"/><circle cx="18" cy="14" r="3"/><circle cx="27" cy="6" r="3"/><circle cx="27" cy="22" r="3"/></svg>