<svg xmlns="http://www.w3.org/2000/svg" viewBox="0 0 32 32" aria-label="cherry" role="img" fill="currentColor" focusable="false"><path d="M29.55 6.84c-9.7-5.45-16.35-1.23-16.63-1l-.09.07c-3.92 3.81-5.15 9.24-5.5 11.42h-.1a2.91 2.91 0 0 0-3.4.74 5.74 5.74 0 1 0 7.47-.37 2.42 2.42 0 0 0-2.19-.36 19.9 19.9 0 0 1 4.42-9.62c2.22 1.9 4 5.81 4.56 9.85a2.84 2.84 0 0 0-2.94 1.51 5.74 5.74 0 0 0 4.79 8.89 5.94 5.94 0 0 0 1.32-.15A5.75 5.75 0 0 0 22.3 17a2.51 2.51 0 0 0-2.35.23l-.16.07a21 21 0 0 0-2.61-7.76 14.05 14.05 0 0 0 4.29.65 20.81 20.81 0 0 0 8-1.76.89.89 0 0 0 .53-.78.88.88 0 0 0-.45-.81ZM10.18 19.05a4 4 0 1 1-6.43 3.15A4 4 0 0 1 5 19.3a1.32 1.32 0 0 1 .93-.5 2.5 2.5 0 0 1 .71.16 4.33 4.33 0 0 0 1.36.27 5 5 0 0 0 1.29-.19c.61-.12.71-.12.89.01Zm10.55-.27c.53-.27.64-.3.84-.21a4 4 0 1 1-5 1.43c.39-.6.66-.73 1.08-.73h.44a4.64 4.64 0 0 0 1.42-.05 6.25 6.25 0 0 0 1.22-.44ZM15.09 6.66c2-.78 6.2-1.77 11.87.82-3.57 1.18-7.96 1.65-11.87-.82Z"/></svg>