<svg xmlns="http://www.w3.org/2000/svg" viewBox="0 0 32 32" aria-label="circle packing" role="img" fill="currentColor" focusable="false"><path d="M16 2a14 14 0 1 0 14 14A14 14 0 0 0 16 2Zm7.5 7a3.5 3.5 0 1 1-3.5 3.5A3.5 3.5 0 0 1 23.5 9Zm.43-2h-.43a5.48 5.48 0 0 0-4.13 1.88 8 8 0 0 0-5.57-4.67A12.33 12.33 0 0 1 16 4a11.93 11.93 0 0 1 7.93 3ZM16 28a4 4 0 1 1 4-4 4 4 0 0 1-4 4Zm-4-10a6 6 0 1 1 6-6 6 6 0 0 1-6 6Zm-8-2a12.33 12.33 0 0 1 .21-2.2 8 8 0 0 0 7.35 6.2 5.94 5.94 0 0 0-.89 6.75A12 12 0 0 1 4 16Zm17.33 10.73a6 6 0 0 0-4.18-8.62 8.13 8.13 0 0 0 1.92-2.36 5.49 5.49 0 0 0 8.93-.07V16a12 12 0 0 1-6.67 10.73Z"/></svg>