<svg xmlns="http://www.w3.org/2000/svg" viewBox="0 0 32 32" aria-label="city" role="img" fill="currentColor" focusable="false"><path d="m23.81 13.34-3 3v-7h-1.5V5.89h-2.89V2h-.87v3.89h-2.92v3.44h-1.5v3.48H3.49V30h25V18.07ZM11.13 28.25H5.24V14.56h5.89Zm3.25-20.62h3.22v1.69h-3.22Zm4.72 4.9v15.71h-1.19V12.62a.29.29 0 0 0 0-.09h-1.29V28.24h-1.25V12.62a.29.29 0 0 0 0-.09h-1.29V28.24h-1.2V11.08h6.22Zm7.66 15.71h-5.89v-9.45l2.94-3 3 3Z"/><path d="M10.06 16.66v-.87H6.29v.83h.09ZM10.06 19.25v-.87H6.29v.83h.09ZM10.06 21.84V21H6.29v.83h.09ZM10.06 24.44v-.86H6.29v.84h.09Z"/></svg>