<svg xmlns="http://www.w3.org/2000/svg" viewBox="0 0 32 32" aria-label="clean" role="img" fill="currentColor" focusable="false"><path d="M20 18H26V20H20z" transform="rotate(-180 23 19)"/><path d="M24 26H30V28H24z" transform="rotate(-180 27 27)"/><path d="M22 22H28V24H22z" transform="rotate(-180 25 23)"/><path d="M17 20a4.89 4.89 0 0 0-2.4-4.17L22 3l-1.73-1-7.58 13.13a6.17 6.17 0 0 0-.62-.11 5.72 5.72 0 0 0-4.62 1.61C3.71 20.24 4 28.68 4 29a1 1 0 0 0 1 1h15a1 1 0 0 0 .6-1.8C17.06 25.54 17 20.05 17 20Zm-5.07-3A3.1 3.1 0 0 1 15 20s0 .21 0 .47l-5.9-2.62a3.75 3.75 0 0 1 2.83-.85Zm3.52 11A5.18 5.18 0 0 1 14 25h-2a6.47 6.47 0 0 0 1 3h-2.25a16.34 16.34 0 0 1-.75-4H8a17 17 0 0 0 .67 4H6c0-1.84.29-5.89 1.8-8.55l7.54 3.35A12.89 12.89 0 0 0 17.6 28Z"/></svg>