<svg xmlns="http://www.w3.org/2000/svg" viewBox="0 0 32 32" aria-label="cloud data ops" role="img" fill="currentColor" focusable="false"><path d="M28 18H30V28H28z"/><path d="M20 22H22V28H20z"/><path d="M24 14H26V28H24z"/><path d="m22.17 10 1.59-1.27a10 10 0 0 0-5.87-3.55A10.27 10.27 0 0 0 16 5a10 10 0 0 0-9.82 8.12 7.51 7.51 0 0 0-6.13 8.29A7.7 7.7 0 0 0 7.77 28H16v-2H7.69a5.63 5.63 0 0 1-5.6-4.49 5.52 5.52 0 0 1 4.44-6.43l1.34-.24.22-1.11a8.19 8.19 0 0 1 6.74-6.64A7.84 7.84 0 0 1 22.17 10Z"/></svg>