<svg xmlns="http://www.w3.org/2000/svg" viewBox="0 0 32 32" aria-label="cobb angle" role="img" fill="currentColor" focusable="false"><path d="M20 17v-2a2 2 0 0 0-2-2h-8a2 2 0 0 0-2 2v2a2 2 0 0 0 2 2h8a2 2 0 0 0 2-2Zm-10-2h8v2h-8ZM23.42 24.48A2 2 0 0 0 21 23.06l-7.73 2.07a2 2 0 0 0-1.42 2.45l.52 1.93a2 2 0 0 0 1.9 1.49 2.25 2.25 0 0 0 .52-.07l7.73-2.07a2 2 0 0 0 1.41-2.45ZM14.27 29l-.51-1.94L21.48 25l.52 1.92ZM13.24 6.86 21 8.93a1.79 1.79 0 0 0 .51.07 2 2 0 0 0 1.94-1.48L24 5.58a2 2 0 0 0-1.41-2.45l-7.8-2.07a2 2 0 0 0-2.45 1.42l-.52 1.93a2 2 0 0 0 1.42 2.45Zm1-3.86L22 5.07 21.48 7l-7.72-2.07Z"/><path d="M14 21H16V23H14z"/><path d="M14 9H16V11H14z"/></svg>