<svg xmlns="http://www.w3.org/2000/svg" viewBox="0 0 32 32" aria-label="concept" role="img" fill="currentColor" focusable="false"><path d="M20.89 19.47a6 6 0 0 0 0-6.94L23 10.41l1.29 1.3a1 1 0 0 0 1.42 0l4-4a1 1 0 0 0 0-1.42l-4-4a1 1 0 0 0-1.42 0l-4 4a1 1 0 0 0 0 1.42L21.59 9l-2.12 2.11a6 6 0 0 0-6.94 0L10 8.59V2H2v8h6.59l2.52 2.53a6 6 0 0 0 0 6.94L9 21.59l-1.29-1.3a1 1 0 0 0-1.42 0l-4 4a1 1 0 0 0 0 1.42l4 4a1 1 0 0 0 1.42 0l4-4a1 1 0 0 0 0-1.42L10.41 23l2.12-2.11a6 6 0 0 0 6.94 0L22 23.41V30h8v-8h-6.59ZM25 4.41 27.59 7 25 9.59 22.41 7ZM7 27.59 4.41 25 7 22.41 9.59 25ZM8 8H4V4h4Zm4 8a4 4 0 1 1 4 4 4 4 0 0 1-4-4Zm12 8h4v4h-4Z"/></svg>