<svg xmlns="http://www.w3.org/2000/svg" viewBox="0 0 32 32" aria-label="coronavirus" role="img" fill="currentColor" focusable="false"><path d="M28 13v2h-2a10 10 0 0 0-2.21-5.32l1.43-1.44 1.42 1.42L28 8.24 23.76 4l-1.42 1.41 1.42 1.42-1.44 1.43A10 10 0 0 0 17 6.05V4h2V2h-6v2h2v2.05a10 10 0 0 0-5.32 2.21L8.24 6.83l1.42-1.42L8.24 4 4 8.24l1.41 1.42 1.42-1.42 1.44 1.44A9.88 9.88 0 0 0 6.05 15H4v-2H2v6h2v-2h2.05a9.88 9.88 0 0 0 2.22 5.32l-1.44 1.44-1.42-1.42L4 23.76 8.24 28l1.42-1.41-1.42-1.42 1.44-1.43A10 10 0 0 0 15 26v2h-2v2h6v-2h-2v-2a10 10 0 0 0 5.32-2.21l1.44 1.43-1.42 1.42L23.76 28 28 23.76l-1.41-1.42-1.42 1.42-1.43-1.44A10 10 0 0 0 26 17h2v2h2v-6ZM16 24a8 8 0 1 1 8-8 8 8 0 0 1-8 8Z"/><circle cx="15.5" cy="11.5" r="1.5"/><circle cx="20.5" cy="15.5" r="1.5"/><circle cx="16" cy="16" r="1"/><circle cx="16.5" cy="20.5" r="1.5"/><circle cx="11.5" cy="16.5" r="1.5"/></svg>