<svg xmlns="http://www.w3.org/2000/svg" viewBox="0 0 32 32" aria-label="cross reference" role="img" fill="currentColor" focusable="false"><path d="M11 24H15V26H11z"/><path d="M5 24H9V26H5z"/><path d="M23 24H27V26H23z"/><path d="M17 24H21V26H17z"/><path d="M9 22a4.92 4.92 0 0 1 4-2h6a5.22 5.22 0 0 1 4 2h2.3a6.87 6.87 0 0 0-6.3-4h-6a6.87 6.87 0 0 0-6.3 4Z"/><path d="M24 28H26V30H24z"/><path d="M6 28H8V30H6z"/><path d="M16 16a7 7 0 1 1 7-7 7 7 0 0 1-7 7Zm0-12a5 5 0 0 0-5 5 5 5 0 0 0 10 0 5 5 0 0 0-5-5Z"/></svg>