<svg xmlns="http://www.w3.org/2000/svg" viewBox="0 0 32 32" aria-label="crosshairs" role="img" fill="currentColor" focusable="false"><path d="M30 15h-2A12 12 0 0 0 17 4V2h-2v2A12 12 0 0 0 4.05 15H2v2h2.05A12 12 0 0 0 15 27.91V30h2v-2.09A12 12 0 0 0 28 17h2Zm-4 0h-2a8 8 0 0 0-7-7V6a10 10 0 0 1 9 9Zm-10 3a2 2 0 1 1 2-2 2 2 0 0 1-2 2Zm-1-5.9a4 4 0 0 0-2.87 2.9h-2.05A6 6 0 0 1 15 10.05ZM12.15 17A4 4 0 0 0 15 19.82v2.05A6 6 0 0 1 10.1 17ZM17 19.82A4 4 0 0 0 19.85 17h2A6 6 0 0 1 17 21.87ZM19.87 15A4 4 0 0 0 17 12.1v-2a6 6 0 0 1 4.92 4.9ZM15 6v2a8 8 0 0 0-6.94 7h-2A10 10 0 0 1 15 6ZM6.05 17h2A8 8 0 0 0 15 23.89v2A10 10 0 0 1 6.05 17Zm11 8.91v-2A8 8 0 0 0 23.92 17h2A10 10 0 0 1 17 25.91Z"/></svg>