<svg xmlns="http://www.w3.org/2000/svg" viewBox="0 0 32 32" aria-label="cube view" role="img" fill="currentColor" focusable="false"><circle cx="16" cy="16" r="2"/><path d="M23.78 15.48A8.65 8.65 0 0 0 16 10a8.65 8.65 0 0 0-7.78 5.48L8 16l.22.52A8.65 8.65 0 0 0 16 22a8.65 8.65 0 0 0 7.78-5.48L24 16ZM16 20a4 4 0 1 1 4-4 4 4 0 0 1-4 4Z"/><path d="m28.5 8.14-12-7a1 1 0 0 0-1 0l-12 7A1 1 0 0 0 3 9v14a1 1 0 0 0 .5.86l12 7a1 1 0 0 0 1 0l12-7A1 1 0 0 0 29 23V9a1 1 0 0 0-.5-.86ZM27 22.43l-11 6.41-11-6.41V9.57l11-6.41 11 6.41Z"/></svg>