<svg xmlns="http://www.w3.org/2000/svg" id="Icons" viewBox="0 0 32 32" aria-label="currency dollar" role="img" fill="currentColor" focusable="false"><defs><style>.cls-1{stroke-width:0px;}</style></defs><path d="M23 20.52c0-4.62-3.78-5.14-6.82-5.56-3.31-.46-5.18-.86-5.18-3.71 0-2.39 2.51-3.24 4.65-3.24 2.17-.07 4.24.91 5.57 2.63l1.56-1.26c-1.41-1.82-3.49-3-5.78-3.28V3h-2v3.02c-3.62.22-6 2.26-6 5.22 0 4.73 3.83 5.26 6.91 5.69 3.25.45 5.09.84 5.09 3.58 0 3.03-3.13 3.48-5 3.48-3.43 0-4.88-.96-6.22-2.63l-1.56 1.26A8.464 8.464 0 0 0 15 25.96V29h2v-3.04c3.73-.3 6-2.33 6-5.44Z"/></svg>