<svg xmlns="http://www.w3.org/2000/svg" viewBox="0 0 32 32" aria-label="cyclist" role="img" fill="currentColor" focusable="false"><path d="M7 30a6 6 0 1 1 6-6 6 6 0 0 1-6 6Zm0-10a4 4 0 1 0 4 4 4 4 0 0 0-4-4ZM25 30a6 6 0 1 1 6-6 6 6 0 0 1-6 6Zm0-10a4 4 0 1 0 4 4 4 4 0 0 0-4-4ZM21.5 8A3.5 3.5 0 1 1 25 4.5 3.5 3.5 0 0 1 21.5 8Zm0-5A1.5 1.5 0 1 0 23 4.5 1.5 1.5 0 0 0 21.5 3Z"/><path d="M17 27h-2v-6.59L9.59 15a2 2 0 0 1 0-2.83l4.58-4.59a2 2 0 0 1 2.83 0L21.41 12H27v2h-6.41l-5-5L11 13.58l6 6Z"/></svg>