<svg xmlns="http://www.w3.org/2000/svg" viewBox="0 0 32 32" aria-label="data error" role="img" fill="currentColor" focusable="false"><circle cx="11" cy="8" r="1"/><circle cx="11" cy="16" r="1"/><circle cx="11" cy="24" r="1"/><path d="M24 3H8a2 2 0 0 0-2 2v22a2 2 0 0 0 2 2h8v-2H8v-6h18V5a2 2 0 0 0-2-2Zm0 16H8v-6h16Zm0-8H8V5h16Z"/><path d="M29.24 29.58 26.41 26.75 29.24 23.92 27.83 22.51 25 25.33 22.17 22.51 20.76 23.92 23.59 26.75 20.76 29.58 22.17 30.99 25 28.16 27.83 30.99 29.24 29.58z"/></svg>