<svg xmlns="http://www.w3.org/2000/svg" viewBox="0 0 32 32" aria-label="data class" role="img" fill="currentColor" focusable="false"><path d="M26 16a4 4 0 0 0-2 .57l-2.86-2.86 2.29-2.3a2 2 0 0 0 0-2.82l-6-6a2 2 0 0 0-2.82 0l-6 6a2 2 0 0 0 0 2.82l2.29 2.3L8 16.57A4 4 0 0 0 6 16a4 4 0 1 0 4 4 3.86 3.86 0 0 0-.57-2l2.86-2.86 2.3 2.29a1.53 1.53 0 0 0 .41.31V22h-3v8h8v-8h-3v-4.28a1.53 1.53 0 0 0 .41-.31l2.3-2.29L22.57 18a3.86 3.86 0 0 0-.57 2 4 4 0 1 0 4-4ZM8 20a2 2 0 1 1-2-2 2 2 0 0 1 2 2Zm10 4v4h-4v-4h4Zm-2-8-6-6 6-6 6 6Zm10 6a2 2 0 1 1 2-2 2 2 0 0 1-2 2Z"/></svg>