<svg xmlns="http://www.w3.org/2000/svg" xml:space="preserve" x="0" y="0" enable-background="new 0 0 32 32" version="1.1" viewBox="0 0 32 32" aria-label="data enrichment" role="img" fill="currentColor" focusable="false"><path d="M28 13H30V15H28z"/><path d="M24.2 3.8H26.2V5.8H24.2z" transform="rotate(-45.001 25.192 4.808)"/><path d="M15 0H17V2H15z"/><path d="M5.8 3.8H7.8V5.8H5.8z" transform="rotate(-134.999 6.808 4.808)"/><path d="M2 13H4V15H2z"/><path d="M13 30H19V32H13z"/><path d="M11 26H21V28H11z"/><path d="M16 4C10.5 4 6 8.5 6 14c0 4.4 2 6.3 3.5 7.6 1 .9 1.5 1.5 1.5 2.4h2c0-1.8-1.1-2.9-2.2-3.9C9.4 18.9 8 17.5 8 14c0-4.4 3.6-8 8-8s8 3.6 8 8c0 3.5-1.4 4.9-2.8 6.1-1.1 1-2.2 2-2.2 3.9h2c0-.9.5-1.5 1.5-2.4C24 20.3 26 18.4 26 14c0-5.5-4.5-10-10-10z"/></svg>