<svg xmlns="http://www.w3.org/2000/svg" viewBox="0 0 32 32" aria-label="data reference" role="img" fill="currentColor" focusable="false"><path d="M25 13 25 4 23 4 23 6 20 6 20 8 23 8 23 13 20 13 20 15 28 15 28 13 25 13z"/><path d="M8.5 6A3.5 3.5 0 1 1 5 9.5 3.5 3.5 0 0 1 8.5 6m0-2A5.5 5.5 0 1 0 14 9.5 5.5 5.5 0 0 0 8.5 4ZM23.5 20a3.5 3.5 0 1 1-3.5 3.5 3.5 3.5 0 0 1 3.5-3.5m0-2a5.5 5.5 0 1 0 5.5 5.5 5.5 5.5 0 0 0-5.5-5.5Z"/><path d="M6 19 6 21 9.59 21 4 26.59 5.41 28 11 22.41 11 26 13 26 13 19 6 19z"/></svg>