<svg xmlns="http://www.w3.org/2000/svg" viewBox="0 0 32 32" aria-label="data vis 3" role="img" fill="currentColor" focusable="false"><path d="M28 3a3 3 0 0 0-2.82 2h-3.32a4 4 0 0 0-7.72 0H9.86A4 4 0 1 0 5 9.86v4.28a4 4 0 0 0 0 7.72v3.32a3 3 0 1 0 2 0v-3.32A4 4 0 0 0 8.67 21L12 22.64a2.2 2.2 0 0 0 0 .36 3 3 0 1 0 .92-2.16l-3.15-1.57A3.81 3.81 0 0 0 10 18a4 4 0 0 0-3-3.86V9.86A4 4 0 0 0 9.86 7h4.28A4 4 0 0 0 18 10a3.93 3.93 0 0 0 .92-.12l1.82 3.17A3 3 0 0 0 20 15a3 3 0 1 0 3-3 3.07 3.07 0 0 0-.53.05l-1.78-3.11A4 4 0 0 0 21.86 7h3.32A3 3 0 1 0 28 3ZM8 18a2 2 0 1 1-2-2 2 2 0 0 1 2 2ZM6 8a2 2 0 1 1 2-2 2 2 0 0 1-2 2Zm10-2a2 2 0 1 1 2 2 2 2 0 0 1-2-2Z"/></svg>