<svg xmlns="http://www.w3.org/2000/svg" viewBox="0 0 32 32" aria-label="data vis 1" role="img" fill="currentColor" focusable="false"><path d="M26 22a4 4 0 0 0-2 .57l-3.81-3.82a5 5 0 0 0 0-5.5l2.54-2.55a3 3 0 1 0-1.43-1.41l-2.55 2.54a5 5 0 0 0-5.5 0L9.43 8A4.05 4.05 0 1 0 8 9.43l3.81 3.82a5 5 0 0 0 0 5.5L8 22.57A4.05 4.05 0 1 0 9.43 24l3.82-3.81a5 5 0 0 0 1.75.71v3.28a3 3 0 1 0 2 0V20.9a5 5 0 0 0 1.75-.73L22.57 24A4 4 0 1 0 26 22Zm-10-9a3 3 0 1 1-3 3 3 3 0 0 1 3-3ZM4 6a2 2 0 1 1 2 2 2 2 0 0 1-2-2Zm2 22a2 2 0 1 1 2-2 2 2 0 0 1-2 2Zm20 0a2 2 0 1 1 2-2 2 2 0 0 1-2 2Z"/></svg>