<svg xmlns="http://www.w3.org/2000/svg" viewBox="0 0 32 32" aria-label="data set" role="img" fill="currentColor" focusable="false"><path d="M25 13 25 4 23 4 23 6 20 6 20 8 23 8 23 13 20 13 20 15 28 15 28 13 25 13z"/><path d="M8.5 6A3.5 3.5 0 1 1 5 9.5 3.5 3.5 0 0 1 8.5 6m0-2A5.5 5.5 0 1 0 14 9.5 5.5 5.5 0 0 0 8.5 4ZM8.5 20A3.5 3.5 0 1 1 5 23.5 3.5 3.5 0 0 1 8.5 20m0-2a5.5 5.5 0 1 0 5.5 5.5A5.5 5.5 0 0 0 8.5 18ZM23.5 20a3.5 3.5 0 1 1-3.5 3.5 3.5 3.5 0 0 1 3.5-3.5m0-2a5.5 5.5 0 1 0 5.5 5.5 5.5 5.5 0 0 0-5.5-5.5Z"/></svg>