<svg xmlns="http://www.w3.org/2000/svg" viewBox="0 0 32 32" aria-label="deer" role="img" fill="currentColor" focusable="false"><path d="M27.53 13.25v-1H21a7.87 7.87 0 0 0-1-1h.75A9.27 9.27 0 0 0 30 2h-2a7.27 7.27 0 0 1-7.26 7.26h-.26a9.25 9.25 0 0 0 3.43-7.19h-2a7.26 7.26 0 0 1-5.8 7.11 5.64 5.64 0 0 0 1.23-3.52h-2A3.67 3.67 0 0 1 12 9.29H5.13v2h4.8a7.46 7.46 0 0 0-1.6 1.93l-5.18 1.5a1.59 1.59 0 0 0-1 .77 1.62 1.62 0 0 0-.12 1.22l.81 2.67a5.47 5.47 0 0 0 4.06 3.75l5.3 1.28h.07v.71a15.3 15.3 0 0 0 .78 4.88l1.9-.63a13.41 13.41 0 0 1-.68-4.22v-.36h.72a7.73 7.73 0 0 0 3.9-1l-1-1.73a6.32 6.32 0 0 1-5.15.43l-5.35-1.3a3.51 3.51 0 0 1-2.6-2.38l-.69-2.27 5.59-1.63.2-.39a5.72 5.72 0 0 1 4.84-3.15 5.8 5.8 0 0 1 5 2.46l.29.42h5.46c-.25 1.34-1.12 3-4 3v2l7 10.61 1.6-1L23.53 19a5.57 5.57 0 0 0 4-5.75Z"/></svg>