<svg xmlns="http://www.w3.org/2000/svg" viewBox="0 0 32 32" aria-label="departure" role="img" fill="currentColor" focusable="false"><path d="M2 28H30V30H2z"/><path d="m13.48 5.15 5.69 8.14.8 1.15 1.36-.36 4.51-1.21a2.13 2.13 0 0 1 1.12 0A1.82 1.82 0 0 1 28.23 14 1.87 1.87 0 0 1 27 16.45l-18.71 5a1.78 1.78 0 0 1-1 0A1.87 1.87 0 0 1 6 20.12l-.25-.93L5 16.38l-.74-2.74 1.44-.39 2.3 3.1.81 1.08 1.31-.35 2.8-.75 1.94-.52-.52-1.93-2.25-8.36 1.39-.37M14.16 3a1.06 1.06 0 0 0-.5 0l-3.09.83A1 1 0 0 0 9.89 5l2.5 9.36-2.81.75-2.73-3.61a1 1 0 0 0-.52-.36 1.06 1.06 0 0 0-.5 0L2.72 12A1 1 0 0 0 2 13.16l1 3.74.75 2.8.26.94a3.87 3.87 0 0 0 4.74 2.74l18.7-5a3.88 3.88 0 0 0 2.63-5.11 3.84 3.84 0 0 0-2.63-2.33 4.27 4.27 0 0 0-2.16 0l-4.51 1.21-6.08-8.74a1 1 0 0 0-.54-.41Z"/></svg>