<svg xmlns="http://www.w3.org/2000/svg" viewBox="0 0 32 32" aria-label="deployment policy" role="img" fill="currentColor" focusable="false"><path d="M17 20.1V18a4 4 0 0 0-4-4H5.83l2.29-2.29-1.41-1.42L2 15l4.71 4.71 1.41-1.42L5.83 16H13a2 2 0 0 1 2 2v2.1a5 5 0 1 0 2 0ZM16 28a3 3 0 1 1 3-3 3 3 0 0 1-3 3Z"/><path d="M19 16 19 14 26.17 14 23.88 11.71 25.29 10.29 30 15 25.29 19.71 23.88 18.29 26.17 16 19 16z"/><path d="M17 12 15 12 15 5.83 12.71 8.12 11.29 6.71 16 2 20.71 6.71 19.29 8.12 17 5.83 17 12z"/></svg>