<svg xmlns="http://www.w3.org/2000/svg" viewBox="0 0 32 32" aria-label="deployment pattern" role="img" fill="currentColor" focusable="false"><path d="M8 20H4.73A2 2 0 0 0 3 19a2 2 0 0 0 0 4 2 2 0 0 0 1.73-1H8ZM29 9a2 2 0 0 0-1.73 1H24v2h3.27A2 2 0 1 0 29 9Z"/><path d="M25.42 5 21 .59 16.59 5 20 8.41V18h2V8.41ZM21 3.41 22.59 5 21 6.59 19.42 5ZM12 23.59V14h-2v9.59L6.59 27 11 31.41 15.42 27ZM9.42 27 11 25.41 12.59 27 11 28.59Z"/><path d="M18 10H8.42L5 6.59.59 11 5 15.41 8.42 12H18ZM5 12.59 3.42 11 5 9.41 6.59 11Z"/><path d="M13 3a2 2 0 0 0-4 0 2 2 0 0 0 1 1.73V8h2V4.73A2 2 0 0 0 13 3ZM22 27.27V24h-2v3.27a2 2 0 1 0 2 0Z"/><path d="M31.42 21 27 16.59 23.59 20H14v2h9.59L27 25.41ZM27 19.41 28.59 21 27 22.59 25.42 21Z"/></svg>