<svg xmlns="http://www.w3.org/2000/svg" viewBox="0 0 32 32" aria-label="dicom 6000" role="img" fill="currentColor" focusable="false"><path d="M13 11H7a3 3 0 0 0-3 3v2h2v-2a1 1 0 0 1 1-1h6a1 1 0 0 1 1 1v2h2v-2a3 3 0 0 0-3-3ZM10 10a4 4 0 1 0-4-4 4 4 0 0 0 4 4Zm0-6a2 2 0 1 1-2 2 2 2 0 0 1 2-2Z"/><path d="M20 4H30V6H20z"/><path d="M20 8H30V10H20z"/><path d="M20 12H26V14H20z"/><path d="M5 30H3a2 2 0 0 1-2-2v-6a2 2 0 0 1 2-2h3v2H3v2h2a2 2 0 0 1 2 2v2a2 2 0 0 1-2 2Zm-2-4v2h2v-2ZM13 30h-2a2 2 0 0 1-2-2v-6a2 2 0 0 1 2-2h2a2 2 0 0 1 2 2v6a2 2 0 0 1-2 2Zm-2-8v6h2v-6ZM21 30h-2a2 2 0 0 1-2-2v-6a2 2 0 0 1 2-2h2a2 2 0 0 1 2 2v6a2 2 0 0 1-2 2Zm-2-8v6h2v-6ZM29 30h-2a2 2 0 0 1-2-2v-6a2 2 0 0 1 2-2h2a2 2 0 0 1 2 2v6a2 2 0 0 1-2 2Zm-2-8v6h2v-6Z"/></svg>