<svg xmlns="http://www.w3.org/2000/svg" viewBox="0 0 32 32" aria-label="direction merge filled" role="img" fill="currentColor" focusable="false"><path d="M28 2H4a2 2 0 0 0-2 2v24a2 2 0 0 0 2 2h24a2 2 0 0 0 2-2V4a2 2 0 0 0-2-2ZM17.88 15.46l2.66 2.66A5 5 0 0 1 22 21.66V26h-2v-4.34a3 3 0 0 0-.88-2.12l-2.65-2.66a5.08 5.08 0 0 1-.47-.57 5 5 0 0 1-.46.57l-2.66 2.66a3 3 0 0 0-.88 2.12V26h-2v-4.34a5 5 0 0 1 1.47-3.54l2.65-2.66a3 3 0 0 0 .88-2.12V8.83l-4.58 4.58L9 12l7-7 7 7-1.41 1.41L17 8.83v4.51a3 3 0 0 0 .88 2.12Z"/></svg>