<svg xmlns="http://www.w3.org/2000/svg" viewBox="0 0 32 32" aria-label="dna" role="img" fill="currentColor" focusable="false"><path d="M22 2V1h-2v1a6.33 6.33 0 0 1-.08 1h-7.84A7.79 7.79 0 0 1 12 2V1h-2v1c0 3.76 2 5.6 4.1 7-2.1 1.4-4.1 3.25-4.1 7s2 5.6 4.1 7C12 24.4 10 26.25 10 30v1h2v-1a7.79 7.79 0 0 1 .08-1h7.84a6.33 6.33 0 0 1 .08 1v1h2v-1c0-3.75-2-5.6-4.1-7 2.1-1.4 4.1-3.24 4.1-7s-2-5.6-4.1-7C20 7.6 22 5.76 22 2Zm-2 14a6.33 6.33 0 0 1-.08 1h-7.84a7.79 7.79 0 0 1-.08-1 7.79 7.79 0 0 1 .08-1h7.84a6.33 6.33 0 0 1 .08 1Zm-.76 11h-6.48A8.81 8.81 0 0 1 16 24.17 8.81 8.81 0 0 1 19.24 27ZM16 21.83A8.81 8.81 0 0 1 12.76 19h6.48A8.81 8.81 0 0 1 16 21.83ZM19.24 13h-6.48A8.81 8.81 0 0 1 16 10.17 8.81 8.81 0 0 1 19.24 13ZM16 7.83A8.81 8.81 0 0 1 12.76 5h6.48A8.81 8.81 0 0 1 16 7.83Z"/></svg>