<svg xmlns="http://www.w3.org/2000/svg" viewBox="0 0 32 32" aria-label="document pdf" role="img" fill="currentColor" focusable="false"><path d="M30 18 30 16 24 16 24 26 26 26 26 22 29 22 29 20 26 20 26 18 30 18z"/><path d="M19 26h-4V16h4a3 3 0 0 1 3 3v4a3 3 0 0 1-3 3Zm-2-2h2a1 1 0 0 0 1-1v-4a1 1 0 0 0-1-1h-2ZM11 16H6v10h2v-3h3a2 2 0 0 0 2-2v-3a2 2 0 0 0-2-2Zm-3 5v-3h3v3Z"/><path d="M22 14v-4a.91.91 0 0 0-.3-.7l-7-7A.91.91 0 0 0 14 2H4a2 2 0 0 0-2 2v24a2 2 0 0 0 2 2h16v-2H4V4h8v6a2 2 0 0 0 2 2h6v2Zm-8-4V4.4l5.6 5.6Z"/></svg>