<svg xmlns="http://www.w3.org/2000/svg" viewBox="0 0 32 32" aria-label="document word processor reference" role="img" fill="currentColor" focusable="false"><path d="M28.3 20 27.39 28.61 26 20 24 20 22.61 28.61 21.7 20 20 20 21.36 30 23.64 30 25 21.63 26.36 30 28.64 30 30 20 28.3 20z"/><path d="m25.71 9.29-7-7A1 1 0 0 0 18 2H8a2 2 0 0 0-2 2v12h2V4h8v6a2 2 0 0 0 2 2h6v4h2v-6a1 1 0 0 0-.29-.71ZM18 10V4.41L23.59 10Z"/><path d="M4 20 4 22 8.59 22 2 28.59 3.41 30 10 23.41 10 28 12 28 12 20 4 20z"/></svg>