<svg xmlns="http://www.w3.org/2000/svg" viewBox="0 0 32 32" aria-label="download study" role="img" fill="currentColor" focusable="false"><path d="M19 10H26V12H19z"/><path d="M19 14H23V16H19z"/><path d="M9 18h6a3 3 0 0 1 3 3v2h-2v-2a1 1 0 0 0-1-1H9a1 1 0 0 0-1 1v2H6v-2a3 3 0 0 1 3-3ZM16 13a4 4 0 1 0-4 4 4 4 0 0 0 4-4Zm-2 0a2 2 0 1 1-2-2 2 2 0 0 1 2 2Z"/><path d="M18 26H4V6h24v10h2V6a2 2 0 0 0-2-2H4a2 2 0 0 0-2 2v20a2 2 0 0 0 2 2h14Z"/><path d="M30 25 28.59 23.59 26 26.17 26 18 24 18 24 26.17 21.41 23.59 20 25 25 30 30 25z"/></svg>