<svg xmlns="http://www.w3.org/2000/svg" viewBox="0 0 32 32" aria-label="downhill ski" role="img" fill="currentColor" focusable="false"><path d="M29.62 5.92a3.5 3.5 0 1 0-1.54 4.7 3.5 3.5 0 0 0 1.54-4.7Zm-2.44 2.92a1.5 1.5 0 1 1 .66-2 1.52 1.52 0 0 1-.66 2ZM22 11a2 2 0 0 0-2-2h-7a1 1 0 0 0-.9.57 1 1 0 0 0 .12 1l3.23 4-4.53 2.26-7.51-7.41L2 10.83l18.06 18a3.66 3.66 0 0 0 .8.62 3.84 3.84 0 0 0 4.63-.62l-1.41-1.41a1.83 1.83 0 0 1-1.31.54 1.87 1.87 0 0 1-1.3-.54l-9.06-9 3.93-2a2 2 0 0 0 .67-3L15.08 11H20v4a2 2 0 0 0 2 2h5v-2h-5Z"/></svg>