<svg xmlns="http://www.w3.org/2000/svg" viewBox="0 0 32 32" aria-label="drop photo filled" role="img" fill="currentColor" focusable="false"><path d="M3 3H5V5H3z"/><path d="M3 7H5V9H3z"/><path d="M3 11H5V13H3z"/><path d="M27 7H29V9H27z"/><path d="M27 11H29V13H27z"/><path d="M3 15H5V17H3z"/><path d="M3 19H5V21H3z"/><path d="M3 23H5V25H3z"/><path d="M3 27H5V29H3z"/><path d="M7 3H9V5H7z"/><path d="M11 3H13V5H11z"/><path d="M15 3H17V5H15z"/><path d="M19 3H21V5H19z"/><path d="M23 3H25V5H23z"/><path d="M27 3H29V5H27z"/><path d="M27 16h-3.28l-.54-1.63a2 2 0 0 0-1.9-1.37h-4.56a2 2 0 0 0-1.9 1.37L14.28 16H11a2 2 0 0 0-2 2v9a2 2 0 0 0 2 2h16a2 2 0 0 0 2-2v-9a2 2 0 0 0-2-2Zm-8 10a4 4 0 1 1 4-4 4 4 0 0 1-4 4Z"/><circle cx="19" cy="22" r="2"/></svg>