<svg xmlns="http://www.w3.org/2000/svg" viewBox="0 0 32 32" aria-label="earth southeast asia" role="img" fill="currentColor" focusable="false"><path d="M16 2a14 14 0 1 0 14 14A14 14 0 0 0 16 2Zm-.6 2 2.51 5-1.59 4h-6.05l-1.41 4.39 2.85 2.85-1 1.51L6.29 19H4.4a11.86 11.86 0 0 1-.4-3A12 12 0 0 1 15.4 4ZM5.11 21h.61l3.93 2.45a2 2 0 0 0 1.06.3 2 2 0 0 0 1.66-.89l1-1.51a2 2 0 0 0-.25-2.52l-2-2 .61-1.83h4.59a2 2 0 0 0 1.86-1.26l1.58-4a2 2 0 0 0-.07-1.64l-2-4A12 12 0 0 1 26.9 21H23a2 2 0 0 0-2 2v3.89A11.77 11.77 0 0 1 16 28a12 12 0 0 1-10.89-7ZM23 25.73V23h2.73A12.19 12.19 0 0 1 23 25.73Z"/><path d="M17 22H19V24H17z"/><path d="M17 18H19V20H17z"/><path d="M14 24H17V26H14z"/></svg>