<svg xmlns="http://www.w3.org/2000/svg" viewBox="0 0 32 32" aria-label="earth europe africa" role="img" fill="currentColor" focusable="false"><path d="M16 2a14 14 0 1 0 14 14A14 14 0 0 0 16 2ZM4 16a12 12 0 0 1 4-8.92V9a2 2 0 0 0 2 2h3.38a2 2 0 0 0 1.79-1.11l.45-.89H18v4h-4.76a2 2 0 0 0-.9.21l-3.23 1.62A2 2 0 0 0 8 16.62v3.7a2 2 0 0 0 1.26 1.86l3.85 1.54.67 4.07A12 12 0 0 1 4 16Zm11.85 12-1-5.71-4.89-2v-3.7L13.24 15H20V7h-5.62l-1 2H10V5.62A12 12 0 0 1 27.3 12H22v4l.92 3.81L21 22.7v4.19A11.77 11.77 0 0 1 16 28ZM23 25.73V23.3l1.59-2.38a2 2 0 0 0 .27-1.59L24 15.88V14h3.82A11.85 11.85 0 0 1 23 25.73Z"/></svg>