<svg xmlns="http://www.w3.org/2000/svg" viewBox="0 0 32 32" aria-label="earth americas" role="img" fill="currentColor" focusable="false"><path d="M30 16a14 14 0 1 0-7.14 12.19h.12v-.11A14 14 0 0 0 30 16ZM4 16a11.86 11.86 0 0 1 .4-3h4.24l5 4.16-1.91 2.55a2 2 0 0 0 .19 2.61L14 24.41v3.41A12 12 0 0 1 4 16Zm9.32 4.91 3.05-4.07L9.36 11H5.11A12 12 0 0 1 16 4a11.86 11.86 0 0 1 6.88 2.19L22.28 8h-5.69l-3.05 3 9.36 8.32-1.65 7.41A11.89 11.89 0 0 1 16 28v-4.41Zm10.32 4.34 1.21-5.46a2 2 0 0 0-.62-1.93L16.46 11l.95-1h4.87a2 2 0 0 0 1.9-1.37l.35-1.06a12 12 0 0 1-.89 17.68Z"/></svg>