<svg xmlns="http://www.w3.org/2000/svg" viewBox="0 0 32 32" aria-label="earth" role="img" fill="currentColor" focusable="false"><path d="M16 2a14 14 0 1 0 14 14A14 14 0 0 0 16 2Zm5 3.11A12.09 12.09 0 0 1 23.92 7l-.42 1H21ZM13.38 27.7A12 12 0 0 1 8.12 7l1.35 2h3.34l-1.5 4h-4L5.9 17.15 8.47 21h5l1.43 2.15ZM16 28h-.6l1.4-4.19a2 2 0 0 0-.24-1.81l-1.43-2.15a2 2 0 0 0-1.66-.85H9.54L8.1 16.85 8.72 15H11v2h2v-2.82l2.94-7.83-1.88-.7-.5 1.35h-3l-.83-1.21A11.74 11.74 0 0 1 19 4.4V8a2 2 0 0 0 2 2h2.59A2 2 0 0 0 25 9.41l.14-.14.28-.68A12.07 12.07 0 0 1 27.3 12h-4.7a2 2 0 0 0-2 1.67l-.6 3.44a2 2 0 0 0 1 2.08l2.17 1.47 1.45 3.64A11.91 11.91 0 0 1 16 28Zm8.82-8.66-2.72-1.83-.1-.06.6-3.45h5.22a11.78 11.78 0 0 1-1.74 8.5Z"/></svg>