<svg xmlns="http://www.w3.org/2000/svg" viewBox="0 0 32 32" aria-label="earth filled" role="img" fill="currentColor" focusable="false"><path d="M16 2a14 14 0 1 0 14 14A14 14 0 0 0 16 2ZM4 16.39l1.34.45L7 19.3v1.29a1 1 0 0 0 .29.7L10 24v2.38a12 12 0 0 1-6-9.99ZM16 28a12.12 12.12 0 0 1-2.57-.28L14 26l1.8-4.51a1 1 0 0 0-.09-.93l-1.41-2.11a1 1 0 0 0-.84-.45H8.54l-1.25-1.87L9.41 14H11v2h2v-2.73l3.87-6.77-1.74-1-.85 1.5h-2.74l-1.09-1.63A11.93 11.93 0 0 1 16 4a11.8 11.8 0 0 1 4 .7V8a1 1 0 0 0 1 1h1.46a1 1 0 0 0 .84-.45l.87-1.31A11.81 11.81 0 0 1 26.89 11h-4.07a1 1 0 0 0-1 .8l-.72 4.47a1 1 0 0 0 .54 1.06L25 19l.69 4.06A12 12 0 0 1 16 28Z"/></svg>