<svg xmlns="http://www.w3.org/2000/svg" viewBox="0 0 32 32" aria-label="edge enhancement" role="img" fill="currentColor" focusable="false"><path d="m11.82 4.76-.69-1.87A13.79 13.79 0 0 0 7 5.33l1.24 1.53a12 12 0 0 1 3.58-2.1ZM5.59 10 3.86 9a14.37 14.37 0 0 0-1.64 4.59l2 .34A12.05 12.05 0 0 1 5.59 10ZM16 26a10 10 0 0 0 0-20Z"/><path d="M30 16A14 14 0 0 0 16 2v2a12 12 0 0 1 4.05 23.28l-.5.19-.77.19-.38.1a8.67 8.67 0 0 1-.89.13l-.3.05a12 12 0 0 1-11.79-6.29c-.07-.12-.14-.25-.2-.38s-.1-.23-.16-.34A13 13 0 0 1 4.19 18l-2 .41a14.52 14.52 0 0 0 .51 1.89A14 14 0 0 0 16 30a13.37 13.37 0 0 0 1.42-.07c.13 0 .26 0 .39-.06.33 0 .66-.08 1-.15l.53-.13c.27-.07.54-.13.8-.21s.48-.17.72-.26.37-.12.54-.2A14 14 0 0 0 30 16Z"/></svg>