<svg xmlns="http://www.w3.org/2000/svg" viewBox="0 0 32 32" aria-label="edge enhancement 03" role="img" fill="currentColor" focusable="false"><path d="M26 20h-4v2h4v2h-3v2h3v2h-4v2h4a2 2 0 0 0 2-2v-6a2 2 0 0 0-2-2ZM11.82 4.76l-.69-1.87A13.79 13.79 0 0 0 7 5.33l1.24 1.53a12 12 0 0 1 3.58-2.1ZM5.59 10 3.86 9a14.37 14.37 0 0 0-1.64 4.59l2 .34A12.05 12.05 0 0 1 5.59 10ZM16 28a11.94 11.94 0 0 1-10.58-6.35c-.07-.12-.14-.25-.2-.38s-.1-.23-.16-.34A13 13 0 0 1 4.19 18l-2 .41a14.52 14.52 0 0 0 .51 1.89A14 14 0 0 0 16 30ZM28 16h2A14 14 0 0 0 16 2v2a12 12 0 0 1 12 12Z"/><path d="M26 16A10 10 0 0 0 16 6v10Z"/></svg>