<svg xmlns="http://www.w3.org/2000/svg" viewBox="0 0 32 32" aria-label="edge cluster" role="img" fill="currentColor" focusable="false"><path d="M16 22a6 6 0 1 1 6-6 6 6 0 0 1-6 6Zm0-10a4 4 0 1 0 4 4 4 4 0 0 0-4-4ZM16 7a3 3 0 1 1 3-3 3 3 0 0 1-3 3Zm0-4a1 1 0 1 0 1 1 1 1 0 0 0-1-1ZM11 30a3 3 0 1 1 3-3 3 3 0 0 1-3 3Zm0-4a1 1 0 1 0 1 1 1 1 0 0 0-1-1ZM7 11a3 3 0 1 1 3-3 3 3 0 0 1-3 3Zm0-4a1 1 0 1 0 1 1 1 1 0 0 0-1-1ZM21 30a3 3 0 1 1 3-3 3 3 0 0 1-3 3Zm0-4a1 1 0 1 0 1 1 1 1 0 0 0-1-1ZM25 11a3 3 0 1 1 3-3 3 3 0 0 1-3 3Zm0-4a1 1 0 1 0 1 1 1 1 0 0 0-1-1ZM4 21a3 3 0 1 1 3-3 3 3 0 0 1-3 3Zm0-4a1 1 0 1 0 1 1 1 1 0 0 0-1-1ZM28 21a3 3 0 1 1 3-3 3 3 0 0 1-3 3Zm0-4a1 1 0 1 0 1 1 1 1 0 0 0-1-1Z"/></svg>