<svg xmlns="http://www.w3.org/2000/svg" xml:space="preserve" x="0" y="0" enable-background="new 0 0 32 32" version="1.1" viewBox="0 0 32 32" aria-label="energy renewable" role="img" fill="currentColor" focusable="false"><path d="M29 14h-1v-4h-2v4h-2v-4h-2v4h-1c-.6 0-1 .4-1 1v4c0 2.4 1.7 4.4 4 4.9V27c0 .6-.4 1-1 1H5c-.6 0-1-.4-1-1s.4-1 1-1h5c1.7 0 3-1.3 3-3s-1.3-3-3-3H5c-.6 0-1-.4-1-1s.4-1 1-1h5c1.7 0 3-1.3 3-3v-4h1c2.2 0 4-1.8 4-4V4h-3c-1 0-2 .4-2.7 1.1C11.2 3.2 9.2 2 7 2H4v3c0 3.3 2.7 6 6 6h1v4c0 .6-.4 1-1 1H5c-1.7 0-3 1.3-3 3s1.3 3 3 3h5c.6 0 1 .4 1 1s-.4 1-1 1H5c-1.7 0-3 1.3-3 3s1.3 3 3 3h18c1.7 0 3-1.3 3-3v-3.1c2.3-.5 4-2.5 4-4.9v-4c0-.6-.4-1-1-1zM13 8c0-1.1.9-2 2-2h1v1c0 1.1-.9 2-2 2h-1V8zm-3 1C7.8 9 6 7.2 6 5V4h1c2.2 0 4 1.8 4 4v1h-1zm18 10c0 1.7-1.3 3-3 3s-3-1.3-3-3v-3h6v3z"/></svg>