<svg xmlns="http://www.w3.org/2000/svg" viewBox="0 0 32 32" aria-label="events" role="img" fill="currentColor" focusable="false"><path d="M26 14h-2v2h2a3 3 0 0 1 3 3v4h2v-4a5 5 0 0 0-5-5ZM24 4a3 3 0 1 1-3 3 3 3 0 0 1 3-3m0-2a5 5 0 1 0 5 5 5 5 0 0 0-5-5ZM23 30h-2v-2a3 3 0 0 0-3-3h-4a3 3 0 0 0-3 3v2H9v-2a5 5 0 0 1 5-5h4a5 5 0 0 1 5 5ZM16 13a3 3 0 1 1-3 3 3 3 0 0 1 3-3m0-2a5 5 0 1 0 5 5 5 5 0 0 0-5-5ZM8 14H6a5 5 0 0 0-5 5v4h2v-4a3 3 0 0 1 3-3h2ZM8 4a3 3 0 1 1-3 3 3 3 0 0 1 3-3m0-2a5 5 0 1 0 5 5 5 5 0 0 0-5-5Z"/></svg>