<svg xmlns="http://www.w3.org/2000/svg" viewBox="0 0 32 32" aria-label="eyedropper" role="img" fill="currentColor" focusable="false"><path d="M2 27H5V30H2z"/><path d="m29.71 7.29-5-5a1 1 0 0 0-1.42 0L20 5.59l-1.29-1.3-1.42 1.42L18.59 7 8.29 17.29A1 1 0 0 0 8 18v1.59l-2.71 2.7a1 1 0 0 0 0 1.42l3 3a1 1 0 0 0 1.41 0L12.41 24H14a1 1 0 0 0 .71-.29L25 13.41l1.29 1.3 1.42-1.42-1.3-1.29 3.3-3.29a1 1 0 0 0 0-1.41ZM13.59 22h-2L9 24.59 7.41 23 10 20.41v-2l10-10L23.59 12ZM25 10.59 21.41 7 24 4.41 27.59 8Z"/></svg>