<svg xmlns="http://www.w3.org/2000/svg" viewBox="0 0 32 32" aria-label="face add" role="img" fill="currentColor" focusable="false"><path d="M16 22a6 6 0 0 1-5.14-2.92l-1.71 1a8 8 0 0 0 13.7 0l-1.71-1A6 6 0 0 1 16 22Z"/><path d="M30 4 26 4 26 0 24 0 24 4 20 4 20 6 24 6 24 10 26 10 26 6 30 6 30 4z"/><path d="M11.5 11a2.5 2.5 0 1 0 2.5 2.5 2.48 2.48 0 0 0-2.5-2.5ZM20.5 11a2.5 2.5 0 1 0 2.5 2.5 2.48 2.48 0 0 0-2.5-2.5Z"/><path d="M27.61 13a12.33 12.33 0 0 1 .39 3A12 12 0 1 1 16 4V2a14 14 0 1 0 13.67 11Z"/></svg>