<svg xmlns="http://www.w3.org/2000/svg" viewBox="0 0 32 32" aria-label="face mask" role="img" fill="currentColor" focusable="false"><path d="M11.5 11a2.5 2.5 0 1 0 2.5 2.5 2.5 2.5 0 0 0-2.5-2.5ZM20.5 11a2.5 2.5 0 1 0 2.5 2.5 2.5 2.5 0 0 0-2.5-2.5Z"/><path d="M30 16A14 14 0 1 0 8.9 28v.16a2 2 0 0 0 2 1.8h10.2a2 2 0 0 0 2-1.8V28A14 14 0 0 0 30 16ZM16 4a12 12 0 0 1 12 11.4L22.76 18H9.24L4 15.4A12 12 0 0 1 16 4ZM4.12 17.68l3.94 2 .58 5.81a12 12 0 0 1-4.52-7.81ZM21.1 28H10.91l-.8-8H21.9Zm2.26-2.54.58-5.81 3.94-2a12 12 0 0 1-4.52 7.81Z"/></svg>