<svg xmlns="http://www.w3.org/2000/svg" viewBox="0 0 32 32" aria-label="fax" role="img" fill="currentColor" focusable="false"><path d="M16.01 17.01H18.01V19.01H16.01z"/><path d="M20.01 17.01H22.01V19.01H20.01z"/><path d="M24.01 17.01H26.01V19.01H24.01z"/><path d="M16.01 21.01H18.01V23.01H16.01z"/><path d="M20.01 21.01H22.01V23.01H20.01z"/><path d="M24.01 21.01H26.01V23.01H24.01z"/><path d="M16.01 25.01H18.01V27.01H16.01z"/><path d="M20.01 25.01H22.01V27.01H20.01z"/><path d="M24.01 25.01H26.01V27.01H24.01z"/><path d="M16.01 13.01H26.01V15.01H16.01z"/><path d="M28.08 8H28V4a2 2 0 0 0-2-2h-9a2 2 0 0 0-2 2v4h-1V7a2 2 0 0 0-2-2H8a2 2 0 0 0-2 2v1H4a2 2 0 0 0-2 2v18a2 2 0 0 0 2 2h24a2 2 0 0 0 2-2V10a2 2 0 0 0-1.92-2ZM17 4h9v4h-9ZM8 7h4v17H8Zm20 21H4V10h2v14a2 2 0 0 0 2 2h4a2 2 0 0 0 2-2V10h14Z"/></svg>