<svg xmlns="http://www.w3.org/2000/svg" viewBox="0 0 32 32" aria-label="fee waiver" role="img" fill="currentColor" focusable="false"><defs><style>.cls-1{fill:none;}</style></defs><g id="Icons"><circle cx="24" cy="11.03" r="2"/><circle cx="8" cy="11.03" r="2"/><path d="M16 7a4 4 0 1 0 4 4 4 4 0 0 0-4-4Zm0 6a2 2 0 1 1 2-2 2 2 0 0 1-2 2Z"/><path d="M21.49 22.41 20.09 21.01 18.68 22.43 21.49 25.24 26.27 20.46 24.86 19.04 21.49 22.41z"/><path d="M30 17V5a2 2 0 0 0-2-2H4a2 2 0 0 0-2 2v12a2 2 0 0 0 2 2h11.55a7.42 7.42 0 0 0-.49 2H2v2h13.13a7.43 7.43 0 0 0 .64 2H2v2h15.18a7.42 7.42 0 0 0 10.59 0H30v-2h-.82a7.43 7.43 0 0 0 .64-2H30v-2h-.11a7.09 7.09 0 0 0-.68-2.42A2 2 0 0 0 30 17Zm-13 4.79a5.46 5.46 0 1 1 5.45 5.46A5.46 5.46 0 0 1 17 21.79Zm5.45-7.46A7.44 7.44 0 0 0 16.73 17H4V5h24v11.79a7.45 7.45 0 0 0-5.53-2.46Z"/></g></svg>