<svg xmlns="http://www.w3.org/2000/svg" viewBox="0 0 32 32" aria-label="fire safety" role="img" fill="currentColor" focusable="false"><path d="M16 27c-5.31 0-8-3.68-8-6a9.6 9.6 0 0 1 .93-3.63A11.29 11.29 0 0 0 10 13v-1.78c.87.36 2 1.31 2 3.78v2.6l1.74-1.93C16.86 12.21 16.21 8.1 15 5.36A4.49 4.49 0 0 1 18 10h2c0-5.54-4.58-7-7-7h-2l1.2 1.6c.14.18 2.86 3.93 1.35 7.69A4.93 4.93 0 0 0 9 9H8v4a9.6 9.6 0 0 1-.93 3.63A11.47 11.47 0 0 0 6 21c0 3.85 3.82 8 10 8s10-4.15 10-8a11.34 11.34 0 0 0-1.17-5c-.27-.65-.58-1.38-.88-2.29-.79-2.36 1.73-4.95 1.76-5l-1.42-1.42c-.14.14-3.42 3.48-2.24 7 .33 1 .65 1.75.94 2.43A9.32 9.32 0 0 1 24 21c0 3.3-4.07 6-8 6Z"/><path d="M16.37 22.64a1.5 1.5 0 1 0 1.5 1.5 1.5 1.5 0 0 0-1.5-1.5Z"/><path d="M15.37 15.66H17.369999999999997V21.490000000000002H15.37z"/></svg>