<svg xmlns="http://www.w3.org/2000/svg" viewBox="0 0 32 32" aria-label="fire pit" role="img" fill="currentColor" focusable="false"><path d="M28 23v4.92h-6.95A8 8 0 0 0 26 21a11.34 11.34 0 0 0-1.17-5c-.27-.65-.58-1.38-.88-2.29-.79-2.36 1.73-4.95 1.76-5l-1.42-1.42c-.14.14-3.42 3.48-2.24 7 .33 1 .65 1.75.94 2.43A9.32 9.32 0 0 1 24 21a6.23 6.23 0 0 1-4.19 5.29 8.51 8.51 0 0 0-2.1-8l-1.05-1-.58 1.36c-1.83 4.28-4 6.15-5.3 6.93A5.84 5.84 0 0 1 8 21a9.6 9.6 0 0 1 .93-3.63A11.29 11.29 0 0 0 10 13v-1.78c.87.36 2 1.31 2 3.78v2.6l1.74-1.93C16.86 12.21 16.21 8.1 15 5.36A4.49 4.49 0 0 1 18 10h2c0-5.54-4.58-7-7-7h-2l1.2 1.6c.14.18 2.86 3.93 1.35 7.69A4.93 4.93 0 0 0 9 9H8v4a9.6 9.6 0 0 1-.93 3.63A11.47 11.47 0 0 0 6 21a8 8 0 0 0 5 6.92H4V23H2v5.92a1 1 0 0 0 1 1h26a1 1 0 0 0 1-1V23Zm-10.8-2.07a6.1 6.1 0 0 1 .26 6A11.16 11.16 0 0 1 16 27a10.4 10.4 0 0 1-3.16-.47 16.53 16.53 0 0 0 4.36-5.6Z"/></svg>