<svg xmlns="http://www.w3.org/2000/svg" viewBox="0 0 32 32" aria-label="fire" role="img" fill="currentColor" focusable="false"><path d="M24.83 17c-.27-.64-.58-1.38-.88-2.28-.79-2.37 1.73-5 1.76-5l-1.42-1.38c-.14.14-3.42 3.47-2.24 7 .33 1 .65 1.75.94 2.43A9.35 9.35 0 0 1 24 22a6.25 6.25 0 0 1-4.19 5.3 8.51 8.51 0 0 0-2.1-8l-1.05-1.05-.58 1.36c-1.83 4.28-4 6.15-5.3 6.93A5.84 5.84 0 0 1 8 22a9.55 9.55 0 0 1 .93-3.62A11.3 11.3 0 0 0 10 14v-1.73c.87.36 2 1.3 2 3.77v2.61l1.74-1.94c3.12-3.45 2.47-7.56 1.21-10.3A4.47 4.47 0 0 1 18 11h2c0-5.53-4.58-7-7-7h-2l1.2 1.6c.14.19 2.86 3.93 1.35 7.69A4.93 4.93 0 0 0 9 10H8v4a9.55 9.55 0 0 1-.93 3.63A11.47 11.47 0 0 0 6 22c0 3.85 3.82 8 10 8s10-4.15 10-8a11.34 11.34 0 0 0-1.17-5Zm-12 10.56A16.53 16.53 0 0 0 17.2 22a6.1 6.1 0 0 1 .26 6A11.16 11.16 0 0 1 16 28a10.4 10.4 0 0 1-3.16-.43Z"/></svg>