<svg xmlns="http://www.w3.org/2000/svg" viewBox="0 0 32 32" aria-label="fishing location" role="img" fill="currentColor" focusable="false"><path d="M7.5 9A3.5 3.5 0 1 0 4 5.5 3.5 3.5 0 0 0 7.5 9Zm0-5A1.5 1.5 0 1 1 6 5.5 1.5 1.5 0 0 1 7.5 4Z"/><path d="M28 28V2h-1c-7.09 0-11.26 3.89-11.9 11l-4.35 1-3-3.64a1 1 0 0 0-1.11-.3A1 1 0 0 0 6 11v8a1 1 0 0 0 1 1h4v6h2v-7a1 1 0 0 0-1-1H8v-4.16l1.6 1.95a1 1 0 0 0 1 .34l4.4-1V18h2v-3.09a1.58 1.58 0 0 0 .49.09 1.5 1.5 0 0 0 0-3h-.27C18 7 21 4.34 26 4v23.18a4.17 4.17 0 0 1-1-1.54 1 1 0 0 0-1.89 0A3.46 3.46 0 0 1 20 28a3.44 3.44 0 0 1-3-2.36 1 1 0 0 0-1-.64 1 1 0 0 0-.94.68A3.46 3.46 0 0 1 12 28a3.44 3.44 0 0 1-3-2.36A1 1 0 0 0 8 25a1 1 0 0 0-.94.68A3.46 3.46 0 0 1 4 28H2v2h2a4.91 4.91 0 0 0 4-2 5 5 0 0 0 8 0 5 5 0 0 0 8 0 4.94 4.94 0 0 0 4 2h2v-2Z"/><path d="M2 21H10V23H2z"/></svg>