<svg xmlns="http://www.w3.org/2000/svg" viewBox="0 0 32 32" aria-label="fishing" role="img" fill="currentColor" focusable="false"><circle cx="21" cy="23" r="1"/><path d="M3.71 18.29a1 1 0 0 0-1.09-.21A1 1 0 0 0 2 19v10a1 1 0 0 0 .62.92 1 1 0 0 0 1.09-.21L8 25.41l.76.76a13.06 13.06 0 0 0 18.48 0L29.41 24l-2.17-2.17a13.06 13.06 0 0 0-18.48 0l-.76.76Zm6.46 6.47L9.41 24l.76-.76a11.08 11.08 0 0 1 15.66 0l.76.76-.76.76a11.08 11.08 0 0 1-15.66 0ZM4 21.41 6.59 24 4 26.59ZM30 13.84l-3.73-3.73a2 2 0 0 0-.51-1.92 2 2 0 0 0-1.41-.59 2.25 2.25 0 0 0-.52.07L18.16 2h-2.83l7.13 7.13a2 2 0 0 0 1.93 2.51 1.81 1.81 0 0 0 .51-.08l3.73 3.74a1 1 0 0 1 0 1.41 1 1 0 0 1-1.42 0l-.21-.27V15h-4.3l3.12 3.12a3 3 0 0 0 4.24 0 3 3 0 0 0-.06-4.28Z"/></svg>