<svg xmlns="http://www.w3.org/2000/svg" viewBox="0 0 32 32" aria-label="fish multiple alt" role="img" fill="currentColor" focusable="false"><circle cx="23.59" cy="21.97" r="1"/><circle cx="20.05" cy="8.03" r="1"/><path d="M6.29 17.27a1 1 0 0 0-1.7.7V28a1 1 0 0 0 1.7.71l4.3-4.29.75.76a13.1 13.1 0 0 0 18.49 0L32 23l-2.17-2.2a13.07 13.07 0 0 0-18.49 0l-.75.76Zm6.47 6.46L12 23l.76-.75a11 11 0 0 1 15.65 0l.76.75-.76.76a11.07 11.07 0 0 1-15.65 0Zm-6.17-3.34L9.17 23l-2.58 2.56Z"/><path d="M2.76 3.32A1 1 0 0 0 1.05 4v10a1 1 0 0 0 1.71.7l4.29-4.29.76.76a13.06 13.06 0 0 0 18.48 0L28.46 9l-2.17-2.15a13.09 13.09 0 0 0-18.48 0l-.76.76Zm6.46 6.46L8.46 9l.76-.76a11.08 11.08 0 0 1 15.66 0l.76.76-.76.75a11.06 11.06 0 0 1-15.66 0ZM3.05 6.44 5.64 9l-2.59 2.61Z"/></svg>