<svg xmlns="http://www.w3.org/2000/svg" viewBox="0 0 32 32" aria-label="fish multiple" role="img" fill="currentColor" focusable="false"><circle cx="9" cy="11" r="1"/><circle cx="17" cy="11" r="1"/><circle cx="25" cy="11" r="1"/><path d="m9.41 24 .76-.76a13.06 13.06 0 0 0 0-18.48L8 2.59 5.83 4.76a13.06 13.06 0 0 0 0 18.48l.76.76-4.3 4.29a1 1 0 0 0-.21 1.09A1 1 0 0 0 3 30h10a1 1 0 0 0 .92-.62 1 1 0 0 0-.21-1.09ZM4 14a11 11 0 0 1 3.24-7.83L8 5.41l.76.76a11.08 11.08 0 0 1 0 15.66l-.76.76-.76-.76A11 11 0 0 1 4 14Zm1.41 14L8 25.41 10.59 28Z"/><path d="M22 14a13 13 0 0 0-3.83-9.24L16.41 3 15 4.41l1.76 1.76a11.08 11.08 0 0 1 0 15.66L14 24.59 15.41 26l2.76-2.76A13 13 0 0 0 22 14ZM30 14a13 13 0 0 0-3.83-9.24L24.41 3 23 4.41l1.76 1.76a11.08 11.08 0 0 1 0 15.66L22 24.59 23.41 26l2.76-2.76A13 13 0 0 0 30 14Z"/></svg>