<svg xmlns="http://www.w3.org/2000/svg" viewBox="0 0 32 32" aria-label="flow stream reference" role="img" fill="currentColor" focusable="false"><path d="M4 20 4 22 8.59 22 2 28.59 3.41 30 10 23.41 10 28 12 28 12 20 4 20z"/><path d="M7.05 15.75a9 9 0 0 1 0-13.5l1.32 1.5a7 7 0 0 0 0 10.5Z"/><path d="M9.69 12.75a5 5 0 0 1 0-7.5L11 6.75a3 3 0 0 0 0 4.5ZM20 24h-4v2h4v3h8v-8h-8Zm2-1h4v4h-4ZM24 5a4 4 0 0 0-3.86 3H14v2h6.14a4.17 4.17 0 0 0 .43 1L14 17.59 15.41 19 22 12.43A4 4 0 1 0 24 5Zm0 6a2 2 0 1 1 2-2 2 2 0 0 1-2 2Z"/></svg>