<svg xmlns="http://www.w3.org/2000/svg" viewBox="0 0 32 32" aria-label="flower" role="img" fill="currentColor" focusable="false"><path d="M27.6 16a4.43 4.43 0 0 0 1.23-5.79L27.4 7.76a4.39 4.39 0 0 0-3.83-2.21 4.45 4.45 0 0 0-1.75.36 4.45 4.45 0 0 0-.57-1.7A4.39 4.39 0 0 0 17.42 2h-2.85a4.42 4.42 0 0 0-4.39 3.9 4.45 4.45 0 0 0-1.75-.35A4.39 4.39 0 0 0 4.6 7.76l-1.43 2.48A4.42 4.42 0 0 0 4.42 16a4.5 4.5 0 0 0-1.17 5.83l1.29 2.24a4.46 4.46 0 0 0 3.9 2.26 4.43 4.43 0 0 0 1.74-.33 4.43 4.43 0 0 0 .57 1.77A4.39 4.39 0 0 0 14.58 30h2.86a4.39 4.39 0 0 0 3.83-2.21 4.43 4.43 0 0 0 .57-1.79 4.43 4.43 0 0 0 1.74.35 4.45 4.45 0 0 0 3.9-2.25l1.29-2.24a4.44 4.44 0 0 0 0-4.51A4.73 4.73 0 0 0 27.6 16Zm-6.35-7.36a2.67 2.67 0 0 1 4.63 0l1.43 2.47a2.67 2.67 0 0 1-2.32 4h-4.7a4.36 4.36 0 0 0-1.4-2.39ZM16 18.62A2.62 2.62 0 1 1 18.63 16 2.62 2.62 0 0 1 16 18.62ZM12.26 5.09a2.64 2.64 0 0 1 2.31-1.34h2.85a2.64 2.64 0 0 1 2.31 1.34 2.61 2.61 0 0 1 0 2.67l-2.36 4.1a4.42 4.42 0 0 0-1.37-.24 4.49 4.49 0 0 0-1.38.24l-2.36-4.1a2.65 2.65 0 0 1 0-2.67Zm-7.57 6 1.43-2.45a2.67 2.67 0 0 1 4.61 0l2.36 4.11a4.3 4.3 0 0 0-1.38 2.37H7a2.67 2.67 0 0 1-2.32-4Zm6.13 12.13a2.73 2.73 0 0 1-2.38 1.37 2.7 2.7 0 0 1-2.38-1.37L4.77 21a2.75 2.75 0 0 1 2.38-4.12h4.57a4.38 4.38 0 0 0 1.39 2.38Zm8.93 3.67a2.64 2.64 0 0 1-2.31 1.34h-2.86a2.64 2.64 0 0 1-2.31-1.34 2.61 2.61 0 0 1 0-2.67l2.36-4.1a4.49 4.49 0 0 0 1.38.24 4.16 4.16 0 0 0 1.37-.25l1.9 3.28.4.7.06.12a2.61 2.61 0 0 1 .01 2.7Zm7.5-5.89L26 23.24a2.71 2.71 0 0 1-2.38 1.37 2.71 2.71 0 0 1-2.37-1.36l-.8-1.38-1.5-2.62a4.3 4.3 0 0 0 1.38-2.37h4.58A2.75 2.75 0 0 1 27.25 21Z"/></svg>