<svg xmlns="http://www.w3.org/2000/svg" viewBox="0 0 32 32" aria-label="gamification" role="img" fill="currentColor" focusable="false"><path d="M23 23h-.13l1-1.45A1 1 0 0 0 24 21v-9c0-9.89-7.92-10-8-10a1 1 0 0 0-1 1v2h-1a1 1 0 0 0-.58.19l-7 5a1 1 0 0 0-.37 1.13l1 3a1 1 0 0 0 1.09.68l4.87-.7-3.86 6.17a1 1 0 0 0 0 1.08l1 1.45H10a3 3 0 0 0-3 3v4h19v-4a3 3 0 0 0-3-3Zm-7.15-9.47a1 1 0 0 0-1-1.52l-6.18.88-.5-1.51L14.32 7H16a1 1 0 0 0 1-1V4.13c1.5.33 4.22 1.54 4.86 5.87H19v2h3v2h-3v2h3v2h-3v2h3v.7L20.47 23h-7.93l-1.35-2ZM24 28H9v-2a1 1 0 0 1 1-1h13a1 1 0 0 1 1 1Z"/></svg>