<svg xmlns="http://www.w3.org/2000/svg" viewBox="0 0 32 32" aria-label="generate pdf" role="img" fill="currentColor" focusable="false"><path d="M21 21 19.59 19.59 17 22.17 17 14 15 14 15 22.17 12.41 19.59 11 21 16 26 21 21z"/><path d="M24 24v4H8v-4H6v4a2 2 0 0 0 2 2h16a2 2 0 0 0 2-2v-4ZM9 2H4v10h2V9h3a2 2 0 0 0 2-2V4a2 2 0 0 0-2-2ZM6 7V4h3v3Z"/><path d="M28 4 28 2 22 2 22 12 24 12 24 8 27 8 27 6 24 6 24 4 28 4z"/><path d="M17 12h-4V2h4a3 3 0 0 1 3 3v4a3 3 0 0 1-3 3Zm-2-2h2a1 1 0 0 0 1-1V5a1 1 0 0 0-1-1h-2Z"/></svg>