<svg xmlns="http://www.w3.org/2000/svg" xml:space="preserve" x="0" y="0" enable-background="new 0 0 32 32" version="1.1" viewBox="0 0 32 32" aria-label="geothermal" role="img" fill="currentColor" focusable="false"><path d="m21 9.8.8.7L23.1 9 21 7.2V4h-2v1.4l-3-2.6L8.9 9l1.3 1.5.8-.7V14H2v2h28v-2h-9V9.8zM19 14h-2v-3h-2v3h-2V8.1l3-2.6 3 2.6V14zM17.4 19.4 16 18l-.8.8c-1.1 1.1-1.5 2.7-1 4.1l.9 2.8c.2.7.1 1.5-.5 2l-.1.1 1.4 1.4.1-.1c1.1-1.1 1.4-2.7 1-4.1l-1-2.8c-.2-.7-.1-1.5.5-2.1l.9-.7zM12.4 19.4 11 18l-.8.8c-1.1 1.1-1.5 2.7-1 4.1l.9 2.8c.2.7.1 1.5-.5 2l-.1.1 1.4 1.4.1-.1c1.1-1.1 1.4-2.7 1-4.1l-1-2.8c-.2-.7-.1-1.5.5-2.1l.9-.7zM22.4 19.4 21 18l-.8.8c-1.1 1.1-1.5 2.7-1 4.1l.9 2.8c.2.7.1 1.5-.5 2l-.1.1 1.4 1.4.1-.1c1.1-1.1 1.4-2.7 1-4.1l-1-2.8c-.2-.7-.1-1.5.5-2.1l.9-.7z"/></svg>