<svg xmlns="http://www.w3.org/2000/svg" viewBox="0 0 32 32" aria-label="govdelivery" role="img" fill="currentColor" focusable="false"><path d="M29.93 5.17a3.9 3.9 0 0 0-3.14-3.1s-.1 0-.09-.07H5.3c0 .08-.06.06-.1.07a3.9 3.9 0 0 0-3.13 3.08S2 5.48 2 5.57v12.48a2.2 2.2 0 0 0 0 .37 4 4 0 0 0 2.37 2.74 4.06 4.06 0 0 0 1.63.31h2c.24 0 .24 0 .15.21Q6.56 25.14 5 28.61a.89.89 0 0 0 .47 1.33 1 1 0 0 0 .28.06.72.72 0 0 0 .25 0c1.43-.85 2.78-1.81 4.16-2.73l8.51-5.68a.5.5 0 0 1 .29-.07h6.94a4.13 4.13 0 0 0 2.14-.56 4 4 0 0 0 1.85-2.57s.07-.41.07-.47V5.58a2.25 2.25 0 0 0-.03-.41Zm-1.82 14.54a.35.35 0 0 1-.42-.13l-1.29-1.52q-3-3.6-6.07-7.18l-.12-.16-3 2.26-.67.49a.91.91 0 0 1-1.2 0c-1.13-.84-2.26-1.67-3.38-2.52-.14-.1-.2-.08-.3 0l-7.24 8.6a.43.43 0 0 1-.24.18.34.34 0 0 1-.36-.55l.76-.89c2.18-2.58 4.35-5.16 6.54-7.73.1-.11.06-.16 0-.23L4.55 5.38a.89.89 0 0 1-.22-1.33.92.92 0 0 1 1.27-.12l2 1.5 8.19 6.17c.11.08.17.07.28 0l10.38-7.69a.9.9 0 0 1 1.09 0 .85.85 0 0 1 .33 1 1 1 0 0 1-.37.48L21 10.17c-.19.14-.2.14 0 .33l7.27 8.59a.46.46 0 0 1 .15.3.33.33 0 0 1-.31.32Z"/></svg>