<svg xmlns="http://www.w3.org/2000/svg" viewBox="0 0 32 32" aria-label="government" role="img" fill="currentColor" focusable="false"><path d="M26.51 13.63h-3a7.57 7.57 0 0 0-5.44-5.83v-.37a.2.2 0 0 0-.21-.2h-1.12v-.44a.2.2 0 0 0-.2-.2h-.27V4.47h2.33a.28.28 0 0 0 .29-.29V2.75a.28.28 0 0 0-.29-.29h-2.33v-.29a.19.19 0 0 0-.18-.17h-.17a.19.19 0 0 0-.18.17v4.42h-.29a.2.2 0 0 0-.21.2v.44h-1.12a.2.2 0 0 0-.21.2v.37a7.57 7.57 0 0 0-5.48 5.83h-3a.2.2 0 0 0-.21.2v1a.3.3 0 0 0 .24.2h21a.2.2 0 0 0 .21-.2v-1a.2.2 0 0 0-.16-.2Zm-16.59 0a.1.1 0 0 1-.1-.13 6.4 6.4 0 0 1 12.34 0 .1.1 0 0 1-.1.13ZM27.43 28.41h-.94V27a.2.2 0 0 0-.21-.2h-1V16.12a.2.2 0 0 0-.21-.2H6.87a.2.2 0 0 0-.21.2v10.7h-1a.2.2 0 0 0-.21.2v1.39h-.91a.2.2 0 0 0-.21.2v1.19a.2.2 0 0 0 .21.2h22.92a.2.2 0 0 0 .21-.2v-1.19a.25.25 0 0 0-.24-.2Zm-5.52-10.9h1.8v9.33h-1.8Zm-3.42 0h1.8v9.33h-1.8Zm-3.39 0h1.8v9.33h-1.8Zm-3.42 0h1.8v9.34h-1.8Zm-3.39 0h1.8v9.33h-1.8Zm17 11.21a.07.07 0 0 1-.07.07H6.73a.07.07 0 0 1-.07-.07v-.36a.07.07 0 0 1 .07-.06h18.52a.07.07 0 0 1 .07.06Z"/></svg>