<svg xmlns="http://www.w3.org/2000/svg" viewBox="0 0 32 32" aria-label="graphical data flow" role="img" fill="currentColor" focusable="false"><path d="M15 18a1 1 0 0 1-.5-.13L10 15.29l-4.5 2.58a1 1 0 0 1-1.1-.07 1 1 0 0 1-.37-1l1.06-4.6-2.82-3a1 1 0 0 1-.22-1 1 1 0 0 1 .79-.67L7 6.81l2.1-4.25A1 1 0 0 1 10 2a1 1 0 0 1 .9.54l2.2 4.27 4.08.7a1 1 0 0 1 .56 1.67l-2.82 3L16 16.77a1 1 0 0 1-.37 1A1 1 0 0 1 15 18Zm-5-5 .5.27 3 1.72-.79-3.37L15 9.17l-3.24-.56L10 5.23 8.38 8.61 5 9.18l2.28 2.44L6.49 15l3-1.72ZM28 30h-6a2 2 0 0 1-2-2v-6a2 2 0 0 1 2-2h6a2 2 0 0 1 2 2v6a2 2 0 0 1-2 2Zm-6-8v6h6v-6ZM26 18h-2v-3a1 1 0 0 0-1-1h-5v-2h5a3 3 0 0 1 3 3ZM18 26h-6a3 3 0 0 1-3-3v-4h2v4a1 1 0 0 0 1 1h6Z"/></svg>