<svg xmlns="http://www.w3.org/2000/svg" viewBox="0 0 32 32" aria-label="hail" role="img" fill="currentColor" focusable="false"><path d="M23.55 22h-.5v-2h.5a4.5 4.5 0 0 0 .36-9h-.82l-.1-.82a7 7 0 0 0-13.88 0L9 11h-.81a4.5 4.5 0 0 0 .36 9h.5v2h-.5a6.5 6.5 0 0 1-1.3-12.86 9 9 0 0 1 17.6 0A6.5 6.5 0 0 1 23.55 22Z"/><path d="M15.92 30.5 14.18 29.5 17.33 24 11.33 24 16.18 15.5 17.92 16.5 14.77 22 20.77 22 15.92 30.5z"/><circle cx="21.55" cy="29.5" r="1.5"/><circle cx="24.55" cy="25.5" r="1.5"/><circle cx="7.55" cy="25.5" r="1.5"/><circle cx="4.55" cy="29.5" r="1.5"/><circle cx="10.55" cy="29.5" r="1.5"/></svg>