<svg xmlns="http://www.w3.org/2000/svg" viewBox="0 0 32 32" aria-label="haze night" role="img" fill="currentColor" focusable="false"><path d="M29 22H13a1 1 0 0 0 0 2h9.68a11.1 11.1 0 0 1-7.56 3h-.42a11.1 11.1 0 0 1-3.2-21.59 15.26 15.26 0 0 0-.05 6.59h2.05a13.13 13.13 0 0 1 .39-7.62A1 1 0 0 0 13 3a.47.47 0 0 0-.17 0A13.1 13.1 0 0 0 2 16.58 13.24 13.24 0 0 0 14.63 29h.49a13.06 13.06 0 0 0 10.26-5H29a1 1 0 0 0 0-2Z"/><path d="M27 20H17a1 1 0 0 1 0-2h10a1 1 0 0 1 0 2ZM25 16H13a1 1 0 0 1 0-2h12a1 1 0 0 1 0 2Z"/></svg>