<svg xmlns="http://www.w3.org/2000/svg" viewBox="0 0 32 32" aria-label="haze" role="img" fill="currentColor" focusable="false"><path d="M19.05 28h-16a1 1 0 0 1 0-2h16a1 1 0 0 1 0 2ZM15.05 20h-12a1 1 0 0 1 0-2h12a1 1 0 0 1 0 2Z"/><path d="M17.05 2H19.05V6H17.05z"/><path d="M28.05 15H32.05V17H28.05z"/><path d="M24.55 6.5H28.55V8.5H24.55z" transform="rotate(-45 26.548 7.503)"/><path d="M24.55 23.5H28.55V25.5H24.55z" transform="rotate(45 26.552 24.498)"/><path d="M7.55 6.5H11.55V8.5H7.55z" transform="rotate(-135 9.551 7.502)"/><path d="M18.05 8a8 8 0 0 0-8 8h2a6 6 0 1 1 6 6h-11a1 1 0 0 0 0 2h11a8 8 0 0 0 0-16Z"/></svg>