<svg xmlns="http://www.w3.org/2000/svg" viewBox="0 0 32 32" aria-label="heat map 02" role="img" fill="currentColor" focusable="false"><path d="M26.5 30a3.5 3.5 0 1 1 3.5-3.5 3.5 3.5 0 0 1-3.5 3.5Zm0-5a1.5 1.5 0 1 0 1.5 1.5 1.5 1.5 0 0 0-1.5-1.5ZM6.5 11A4.5 4.5 0 1 1 11 6.5 4.51 4.51 0 0 1 6.5 11Zm0-7A2.5 2.5 0 1 0 9 6.5 2.5 2.5 0 0 0 6.5 4Z"/><path d="M14 30a4 4 0 0 1-2.13-.62A6.92 6.92 0 0 1 9 30a7 7 0 1 1 7-7.46A4 4 0 0 1 14 30Zm-1.88-3 .53.5A2 2 0 0 0 14 28a2 2 0 0 0 .66-3.88l-.66-.24V23a5 5 0 1 0-2.52 4.31ZM24 16a6 6 0 0 1-6-6 4.71 4.71 0 0 1 0-.53A4 4 0 1 1 23.47 4H24a6 6 0 0 1 0 12ZM20 4a2 2 0 0 0-2 2 2 2 0 0 0 1.43 1.9l.9.27-.21.92A3.86 3.86 0 0 0 20 10a4 4 0 1 0 4-4 3.86 3.86 0 0 0-.91.12l-.92.21-.27-.9A2 2 0 0 0 20 4Z"/><circle cx="21" cy="20" r="2"/><circle cx="14" cy="12" r="2"/><circle cx="29" cy="19" r="1"/></svg>