<svg xmlns="http://www.w3.org/2000/svg" viewBox="0 0 32 32" aria-label="heat map" role="img" fill="currentColor" focusable="false"><path d="M8 10H4a2 2 0 0 1-2-2V4a2 2 0 0 1 2-2h4a2 2 0 0 1 2 2v4a2 2 0 0 1-2 2ZM4 4v4h4V4ZM28 30h-4a2 2 0 0 1-2-2v-4a2 2 0 0 1 2-2h4a2 2 0 0 1 2 2v4a2 2 0 0 1-2 2Zm-4-6v4h4v-4ZM28 2h-6a2 2 0 0 0-2 2v6h-2a2 2 0 0 0-2 2v2a2 2 0 0 0 2 2h2a2 2 0 0 0 2-2v-2h6a2 2 0 0 0 2-2V4a2 2 0 0 0-2-2ZM18 14v-2h2v2Zm4-4V4h6v6ZM16 22h-4v-6a2 2 0 0 0-2-2H4a2 2 0 0 0-2 2v6a2 2 0 0 0 2 2h6v4a2 2 0 0 0 2 2h4a2 2 0 0 0 2-2v-4a2 2 0 0 0-2-2ZM4 22v-6h6v6Zm8 6v-4h4v4Z"/><path d="M20 18H22V20H20z"/><path d="M28 16H30V18H28z"/><path d="M14 6H16V8H14z"/></svg>