<svg xmlns="http://www.w3.org/2000/svg" viewBox="0 0 32 32" aria-label="help desk" role="img" fill="currentColor" focusable="false"><path d="M27 10h-6a3 3 0 0 0-3 3v6a2 2 0 0 0 2 2v7a2 2 0 0 0 2 2h4a2 2 0 0 0 2-2v-7a2 2 0 0 0 2-2v-6a3 3 0 0 0-3-3Zm1 9h-2v9h-4v-9h-2v-6a1 1 0 0 1 1-1h6a1 1 0 0 1 1 1ZM20 5a4 4 0 1 1 4 4 4 4 0 0 1-4-4Zm2 0a2 2 0 1 0 2-2 2 2 0 0 0-2 2ZM14 16v-3a3 3 0 0 0-3-3H5a3 3 0 0 0-3 3v3H0v2h16v-2ZM4 13a1 1 0 0 1 1-1h6a1 1 0 0 1 1 1v3H4ZM4 5a4 4 0 1 1 4 4 4 4 0 0 1-4-4Zm2 0a2 2 0 1 0 2-2 2 2 0 0 0-2 2Z"/></svg>