<svg xmlns="http://www.w3.org/2000/svg" viewBox="0 0 32 32" aria-label="helping hand" role="img" fill="currentColor" focusable="false"><defs><style>.cls-1{fill:none;}</style></defs><g id="Icons"><path d="m16 13.91-4.77-4.83A3.62 3.62 0 0 1 16 3.66a3.62 3.62 0 0 1 4.77 5.42Zm-2.22-9a1.56 1.56 0 0 0-1.13.48 1.66 1.66 0 0 0 0 2.32L16 11.07l3.35-3.39a1.66 1.66 0 0 0 0-2.32 1.62 1.62 0 0 0-2.26 0L16 6.47l-1.09-1.11a1.56 1.56 0 0 0-1.13-.48ZM29.69 17.68A2.56 2.56 0 0 0 27 16.37l-5.22.93a2.38 2.38 0 0 0-2.49-1.3l-2.64.38a4.21 4.21 0 0 1-1.93-.18 6 6 0 0 0-4.72.41l-3.15 1.66-.58-1L2 19.85l5.5 9.24 4.28-2.55-.88-1.46 1.1-.49a1.28 1.28 0 0 1 .65 0l4.1.61a3.13 3.13 0 0 0 1.64-.2l9.81-3.67a2.59 2.59 0 0 0 1.61-1.49 2.55 2.55 0 0 0-.12-2.16Zm-21.58 9L4.4 20.46l1.27-.75 3.71 6.23Zm20.08-7.48a.88.88 0 0 1-.56.5l-9.86 3.7a1.59 1.59 0 0 1-.75.07l-4.1-.61a2.78 2.78 0 0 0-1.62.14l-1.3.57-2.25-3.79 3.08-1.65a4.27 4.27 0 0 1 3.34-.29 6 6 0 0 0 2.72.25l2.65-.37a.61.61 0 0 1 .67.42.62.62 0 0 1-.05.51.65.65 0 0 1-.42.29l-3.69 1.15.52 1.67 3.55-1.11a2.39 2.39 0 0 0 1.54-1.11 2.71 2.71 0 0 0 .22-.49l5.4-1a.83.83 0 0 1 .91 1.12Z"/></g></svg>