<svg xmlns="http://www.w3.org/2000/svg" viewBox="0 0 32 32" aria-label="hiking" role="img" fill="currentColor" focusable="false"><path d="M14.5 8A3.5 3.5 0 1 1 18 4.5 3.5 3.5 0 0 1 14.5 8Zm0-5A1.5 1.5 0 1 0 16 4.5 1.5 1.5 0 0 0 14.5 3ZM17 30h-2v-7.56l-3.81-4.27a1 1 0 0 1-.22-.89L12.69 10a1 1 0 0 1 .86-.77 1 1 0 0 1 1 .56L16.62 14H20v2h-4a1 1 0 0 1-.9-.56L14 13.17l-1 4.06 3.72 4.17a1 1 0 0 1 .25.66Z"/><path d="M7.26 10.14H13.24V12.14H7.26z" transform="rotate(-76.73 10.248 11.143)"/><path d="M20.72 9.98H22.72V29.98H20.72z" transform="rotate(10 21.731 19.982)"/><path d="M10.29 20.16 8.07 29.55 10.02 30.01 11.91 21.99 10.29 20.16z"/></svg>