<svg xmlns="http://www.w3.org/2000/svg" xml:space="preserve" x="0" y="0" enable-background="new 0 0 32 32" version="1.1" viewBox="0 0 32 32" aria-label="home wind power" role="img" fill="currentColor" focusable="false"><path d="m29 23.8.8.7 1.3-1.5-2.1-1.8V18h-2v1.4l-3-2.6-7 6.2 1.3 1.5.8-.7V28h-8V15.8c.6-.2 1.1-.6 1.5-1.1l8.6 2.3.5-1.9-8.7-2.3c-.1-1.4-1.2-2.6-2.6-2.7L8.2 2l-1.9.5 2.1 8c-1.3.8-1.8 2.4-1.1 3.8L1 20.6 2.4 22l6.3-6.3c.1 0 .2.1.3.1V28H1v2h30v-2h-2v-4.2zM10 14c-.5 0-1-.5-1-1s.5-1 1-1 1 .5 1 1-.5 1-1 1zm17 14h-2v-3h-2v3h-2v-5.9l3-2.6 3 2.6V28z"/></svg>