<svg xmlns="http://www.w3.org/2000/svg" viewBox="0 0 32 32" aria-label="home security" role="img" fill="currentColor" focusable="false"><defs><style>.cls-1{font-size:24px;fill:#fff;font-family:Arial-BoldMT, Arial;font-weight:700;}</style></defs><text id="section_titles" data-name="section titles" transform="translate(-268.89 46.95)">File</text><g id="Icons"><path d="M16.61 4.16a1 1 0 0 0-1.24 0L1 15.37l1.24 1.57L4 15.57V28a2 2 0 0 0 2 2h12v-2H6V14l10-7.78L26 14l2 1.56L29.76 17 31 15.38Z"/><path d="M20 19v5.47A5 5 0 0 0 22.86 29L25 30l2.14-1A5 5 0 0 0 30 24.47V19Zm8 5.47a3 3 0 0 1-1.72 2.71l-1.28.61-1.28-.61A3 3 0 0 1 22 24.47V21h6Z"/></g></svg>