<svg xmlns="http://www.w3.org/2000/svg" viewBox="0 0 32 32" aria-label="home solar power" role="img" fill="currentColor" focusable="false"><path d="M7.78 12c0-1.1.9-2 2-2s2 .9 2 2c0 .57-.24 1.11-.67 1.49l1.33 1.49c1.65-1.47 1.79-4 .31-5.65-1.47-1.65-4-1.79-5.65-.31-.85.76-1.33 1.84-1.33 2.98h2Z"/><path d="M8.78 2H10.78V6H8.78z"/><path d="M15.78 11H19.78V13H15.78z"/><path d="M13.44 5.34H17.439999999999998V7.34H13.44z" transform="rotate(-45 15.435 6.337)"/><path d="M3.12 4.34H5.12V8.34H3.12z" transform="rotate(-45 4.118 6.344)"/><path d="m29 23.81.75.65 1.31-1.51L29 21.16V18h-2v1.42l-2.99-2.6h-.02l-7.05 6.13 1.31 1.51.75-.65V28h-8v-2h4V16H1v10h4v2H1v2h30v-2h-2v-4.19ZM11 18h2v2h-2v-2Zm0 4h2v2h-2v-2Zm-6 2H3v-2h2v2Zm0-4H3v-2h2v2Zm4 8H7v-2h2v2Zm0-4H7v-2h2v2Zm0-4H7v-2h2v2Zm18 8h-2v-3h-2v3h-2v-5.93l3-2.61 3 2.61V28Z"/></svg>