<svg xmlns="http://www.w3.org/2000/svg" viewBox="0 0 32 32" aria-label="humidity alt" role="img" fill="currentColor" focusable="false"><path d="M26 12a3.89 3.89 0 0 1-4-3.78 4 4 0 0 1 .65-2.06l2.52-3.75a1 1 0 0 1 1.66 0l2.49 3.7A3.94 3.94 0 0 1 30 8.22 3.89 3.89 0 0 1 26 12Zm0-7.24-1.66 2.47a1.93 1.93 0 0 0-.34 1 2 2 0 0 0 4 0 1.93 1.93 0 0 0-.37-1ZM23.5 30h-15a6.5 6.5 0 0 1-1.3-12.86 9 9 0 0 1 17.6 0A6.5 6.5 0 0 1 23.5 30ZM16 12a7 7 0 0 0-6.94 6.15L9 19h-.86a4.5 4.5 0 0 0 .36 9h15a4.5 4.5 0 0 0 .36-9H23l-.1-.81A7 7 0 0 0 16 12Z"/></svg>