<svg xmlns="http://www.w3.org/2000/svg" viewBox="0 0 32 32" aria-label="hunter safety" role="img" fill="currentColor" focusable="false"><path d="M23.5 30a6.5 6.5 0 1 1 6.5-6.5 6.51 6.51 0 0 1-6.5 6.5Zm0-11a4.5 4.5 0 1 0 4.5 4.5 4.51 4.51 0 0 0-4.5-4.5Z"/><path d="M22.69 24 21.4 22.71 20.25 23.86 22.69 26.3 26.75 22.23 25.6 21.09 22.69 24z"/><path d="M9.52 8A3.5 3.5 0 1 0 6 4.5 3.5 3.5 0 0 0 9.52 8Zm0-5A1.5 1.5 0 1 1 8 4.5 1.5 1.5 0 0 1 9.52 3Z"/><path d="M11.63 9 6.93 12.32 8.09 13.96 12.26 11 31.02 11 31.02 9 11.63 9z"/><path d="M15.02 6H21.02V8H15.02z"/><path d="M5.67 11h.78V9H5.06a1 1 0 0 0-.9.55l-3 6A1 1 0 0 0 2 17h3.06v13H7V17.02h3.06V15H3.63ZM17.84 14.9l-4.37-2.49a1 1 0 0 0-1.5.86V30h2V15l3.44 2a1 1 0 0 0 1.08-.06L23 13.62 21.85 12Z"/></svg>