<svg xmlns="http://www.w3.org/2000/svg" viewBox="0 0 32 32" aria-label="hunting" role="img" fill="currentColor" focusable="false"><path d="M10.5 8A3.5 3.5 0 1 0 7 4.5 3.5 3.5 0 0 0 10.5 8Zm0-5A1.5 1.5 0 1 1 9 4.5 1.5 1.5 0 0 1 10.5 3Z"/><path d="M12.6 9 7.91 12.32 9.07 13.96 13.24 11 32 11 32 9 12.6 9z"/><path d="M16 6H22V8H16z"/><path d="M6.65 11h.78V9H6a1 1 0 0 0-.9.55l-3 6A1 1 0 0 0 3 17h3v13h2V17h3.1v-2H4.61ZM18.82 14.9l-4.37-2.49a1 1 0 0 0-1.5.86V30h2V15l3.44 2a1 1 0 0 0 1.08-.06L24 13.62 22.83 12Z"/></svg>