<svg xmlns="http://www.w3.org/2000/svg" viewBox="0 0 32 32" aria-label="ice fishing" role="img" fill="currentColor" focusable="false"><circle cx="21" cy="23" r="1"/><path d="M4.29 18.29a1 1 0 0 0-1.7.71v10a1 1 0 0 0 1.7.71l4.3-4.3.75.76a13.07 13.07 0 0 0 18.49 0L30 24l-2.17-2.17a13.07 13.07 0 0 0-18.49 0l-.75.76Zm6.47 6.47L10 24l.76-.76a11.07 11.07 0 0 1 15.65 0l.76.76-.76.76a11.07 11.07 0 0 1-15.65 0Zm-6.17-3.35L7.17 24l-2.58 2.59Z"/><path d="M2 4.97H16V6.97H2z"/><path d="M24 4.97H30V6.97H24z"/><path d="M21 13V7.69a2 2 0 0 0 .41-3.14 1.73 1.73 0 0 0-.41-.3V2h-2v2.25a2 2 0 0 0-.41 3.13 2.1 2.1 0 0 0 .41.31V13a1 1 0 0 1-2 0v.08l1-1L15 9v4a3 3 0 0 0 6 0Z"/></svg>