<svg xmlns="http://www.w3.org/2000/svg" viewBox="0 0 32 32" aria-label="instagram" role="img" fill="currentColor" focusable="false"><path d="M16 4.52c3.74 0 4.18 0 5.66.08a7.75 7.75 0 0 1 2.6.49 4.56 4.56 0 0 1 2.65 2.65 7.75 7.75 0 0 1 .49 2.6c.06 1.48.08 1.92.08 5.66s0 4.18-.08 5.66a7.75 7.75 0 0 1-.49 2.6 4.56 4.56 0 0 1-2.65 2.65 7.75 7.75 0 0 1-2.6.49c-1.48.06-1.92.08-5.66.08s-4.18 0-5.66-.08a7.75 7.75 0 0 1-2.6-.49 4.56 4.56 0 0 1-2.65-2.65 7.75 7.75 0 0 1-.49-2.6c-.06-1.48-.08-1.92-.08-5.66s0-4.18.08-5.66a7.75 7.75 0 0 1 .49-2.6 4.56 4.56 0 0 1 2.65-2.65 7.75 7.75 0 0 1 2.6-.49c1.48-.06 1.92-.08 5.66-.08M16 2c-3.8 0-4.28 0-5.77.08a10.5 10.5 0 0 0-3.4.65 7.21 7.21 0 0 0-4.1 4.1 10.5 10.5 0 0 0-.65 3.4C2 11.72 2 12.2 2 16s0 4.28.08 5.77a10.5 10.5 0 0 0 .65 3.4 7.21 7.21 0 0 0 4.1 4.1 10.5 10.5 0 0 0 3.4.65c1.49.06 2 .08 5.77.08s4.28 0 5.77-.08a10.5 10.5 0 0 0 3.4-.65 7.21 7.21 0 0 0 4.1-4.1 10.5 10.5 0 0 0 .65-3.4C30 20.28 30 19.8 30 16s0-4.28-.08-5.77a10.5 10.5 0 0 0-.65-3.4 7.21 7.21 0 0 0-4.1-4.1 10.5 10.5 0 0 0-3.4-.65C20.28 2 19.8 2 16 2Z"/><path d="M16 8.81A7.19 7.19 0 1 0 23.19 16 7.19 7.19 0 0 0 16 8.81Zm0 11.86A4.67 4.67 0 1 1 20.67 16 4.67 4.67 0 0 1 16 20.67Z"/><circle cx="23.47" cy="8.53" r="1.68"/></svg>