<svg xmlns="http://www.w3.org/2000/svg" viewBox="0 0 32 32" aria-label="itunes" role="img" fill="currentColor" focusable="false"><path d="M16 2a14 14 0 1 0 14 14A14 14 0 0 0 16 2Zm6.89 18.66a2.64 2.64 0 0 1-1.65 2.48 3.54 3.54 0 0 1-3-.13 2.21 2.21 0 0 1-.63-2.89c.67-1.24 2.57-1.36 2.87-1.41s1.1-.13 1.1-.92v-6.57a.46.46 0 0 0-.61-.46l-7.31 1.48a.58.58 0 0 0-.49.61v9.76a2.62 2.62 0 0 1-1.66 2.47 3.45 3.45 0 0 1-3-.13 2.18 2.18 0 0 1-.63-2.88c.67-1.25 2.55-1.36 2.86-1.41s1.11-.14 1.11-.92V8.8a.85.85 0 0 1 .67-.88c.34-.08 9-1.81 9.54-1.92a.64.64 0 0 1 .82.7Z"/></svg>