<svg xmlns="http://www.w3.org/2000/svg" viewBox="0 0 32 32" aria-label="join right" role="img" fill="currentColor" focusable="false"><path d="M20 6a9.88 9.88 0 0 0-4 .84 10 10 0 0 1 0 18.32 9.88 9.88 0 0 0 4 .84 10 10 0 0 0 0-20Z"/><path d="M10 16a10 10 0 0 0 3.75 7.8 8 8 0 0 0 0-15.6A10 10 0 0 0 10 16Z"/><path d="M12 24a8 8 0 0 1 0-16 7.76 7.76 0 0 1 1.75.2A9.71 9.71 0 0 1 16 6.84 9.92 9.92 0 0 0 12 6a10 10 0 0 0 0 20 9.92 9.92 0 0 0 4-.84 9.71 9.71 0 0 1-2.25-1.36A7.76 7.76 0 0 1 12 24Z"/></svg>