<svg xmlns="http://www.w3.org/2000/svg" viewBox="0 0 32 32" aria-label="keep dry" role="img" fill="currentColor" focusable="false"><path d="M25 10a3.89 3.89 0 0 1-4-3.78 4 4 0 0 1 .65-2.06L24.17.41a1 1 0 0 1 1.66 0l2.49 3.7A4 4 0 0 1 29 6.22 3.89 3.89 0 0 1 25 10Zm0-7.24-1.66 2.47a1.93 1.93 0 0 0-.34 1 2 2 0 0 0 4 0 2 2 0 0 0-.37-1Z"/><path d="M30 15.83A14.17 14.17 0 0 0 28.17 11l-1.74 1a11.86 11.86 0 0 1 1.07 2.21A5.38 5.38 0 0 0 26 14a6.59 6.59 0 0 0-3.94 1.33A14.55 14.55 0 0 0 19 6.4a14.41 14.41 0 0 0-2-2V2h-2v2.05A14.39 14.39 0 0 0 2 15.83a1 1 0 0 0 1.5 1A4.8 4.8 0 0 1 6 16a4.86 4.86 0 0 1 4.14 2.51 1 1 0 0 0 1.72 0A5 5 0 0 1 15 16.13v9.37a2.5 2.5 0 0 1-5 0V25H8v.5a4.5 4.5 0 0 0 9 0v-9.37a5 5 0 0 1 3.14 2.38 1 1 0 0 0 1.72 0A4.86 4.86 0 0 1 26 16a4.8 4.8 0 0 1 2.49.86 1 1 0 0 0 1.5-1Zm-20-.5A6.59 6.59 0 0 0 6 14a5.38 5.38 0 0 0-1.5.21A12.45 12.45 0 0 1 13 6.4a14.55 14.55 0 0 0-3.06 8.93ZM16 14a6.61 6.61 0 0 0-4.06 1.43c0-2.22.61-6.49 4.06-9.18 3.43 2.68 4 7 4.05 9.18A6.5 6.5 0 0 0 16 14Z"/></svg>