<svg xmlns="http://www.w3.org/2000/svg" viewBox="0 0 32 32" aria-label="keyboard" role="img" fill="currentColor" focusable="false"><path d="M28 26H4a2 2 0 0 1-2-2V10a2 2 0 0 1 2-2h24a2 2 0 0 1 2 2v14a2 2 0 0 1-2 2ZM4 10v14h24V10Z"/><path d="M10 20H21V22H10z"/><path d="M6 12H8V14H6z"/><path d="M10 12H12V14H10z"/><path d="M14 12H16V14H14z"/><path d="M18 12H20V14H18z"/><path d="M6 20H8V22H6z"/><path d="M6 16H8V18H6z"/><path d="M10 16H12V18H10z"/><path d="M14 16H16V18H14z"/><path d="M22 12H26V14H22z"/><path d="M22 16H26V18H22z"/><path d="M18 16H20V18H18z"/><path d="M23 20H26V22H23z"/></svg>