<svg xmlns="http://www.w3.org/2000/svg" viewBox="0 0 32 32" aria-label="language" role="img" fill="currentColor" focusable="false"><path d="M18 19H24V21H18z"/><path d="M18 15H30V17H18z"/><path d="M18 11H30V13H18z"/><path d="M14 21v-2H9v-2H7v2H2v2h8.21A8.57 8.57 0 0 1 8 25a9.45 9.45 0 0 1-1.45-2H4.33a11 11 0 0 0 2.15 3.3A14.63 14.63 0 0 1 3 28.13L3.7 30A16.2 16.2 0 0 0 8 27.66 16.34 16.34 0 0 0 12.3 30l.7-1.87a14.44 14.44 0 0 1-3.48-1.83 10.3 10.3 0 0 0 2.73-5.3ZM11.17 13h2.16L8.75 2H6.58L2 13h2.17L5 11h5.33ZM5.83 9l1.84-4.4L9.5 9Z"/></svg>