<svg xmlns="http://www.w3.org/2000/svg" viewBox="0 0 32 32" aria-label="law enforcement" role="img" fill="currentColor" focusable="false"><path d="M16 28a.94.94 0 0 1-.55-.17 4.64 4.64 0 0 0-2.57-.75 7.44 7.44 0 0 1-4-1 8.07 8.07 0 0 1-3-10.47l.7-1.61a4.13 4.13 0 0 0-1-4.9 1 1 0 0 1-.35-.78 1 1 0 0 1 .38-.76l4.31-3.34a1 1 0 0 1 1.34.08 2.91 2.91 0 0 0 4 0 1 1 0 0 1 1.42 0 2.91 2.91 0 0 0 4 0 1 1 0 0 1 1.34-.08l4.33 3.38a1 1 0 0 1 .38.76 1 1 0 0 1-.35.78 4.13 4.13 0 0 0-1 4.9l.75 1.54a8.07 8.07 0 0 1-3 10.47 7.51 7.51 0 0 1-4 1 4.46 4.46 0 0 0-2.57.75.94.94 0 0 1-.56.2Zm-3-2.93a6.24 6.24 0 0 1 3 .77 6.11 6.11 0 0 1 3.19-.76 5.5 5.5 0 0 0 2.94-.76 6.05 6.05 0 0 0 2.25-7.86l-.76-1.54a6.12 6.12 0 0 1 .63-6.43l-2.78-2.2A5 5 0 0 1 16 6.3a5 5 0 0 1-5.47 0L7.75 8.49a6.12 6.12 0 0 1 .63 6.43l-.76 1.54a6.05 6.05 0 0 0 2.25 7.86 5.41 5.41 0 0 0 2.94.76Z"/></svg>