<svg xmlns="http://www.w3.org/2000/svg" viewBox="0 0 32 32" aria-label="leaf" role="img" fill="currentColor" focusable="false"><path d="M29.13 16.83a3.91 3.91 0 0 0-.45-.51 7.08 7.08 0 0 0 .58-1.51l.45-1.71-1.71-.43a9.42 9.42 0 0 0-1.43-.19 4.93 4.93 0 0 0-.18-.64l-.44-1.24-1.31.07a19.24 19.24 0 0 0-2.9.34 23.76 23.76 0 0 0-1.18-5l-.69-1.71-1.68.7c-.39-.62-.73-1.07-.79-1.16L16 2l-1.4 1.85c-.06.09-.4.54-.79 1.16l-1.67-.76L11.45 6a23.76 23.76 0 0 0-1.18 5 19.24 19.24 0 0 0-2.9-.34l-1.31-.06-.44 1.24a4.93 4.93 0 0 0-.18.64 9.42 9.42 0 0 0-1.44.19l-1.72.43.45 1.71a7.08 7.08 0 0 0 .58 1.51 3.91 3.91 0 0 0-.45.51L2 17.9l.86 1.1a25.68 25.68 0 0 0 5.2 4.93c-.11.31-.23.64-.32 1l-.55 2.17h2.32a10.12 10.12 0 0 0 5.66-1.83A12.51 12.51 0 0 0 16.3 30l.78-.39.79-.39a10.78 10.78 0 0 1-.94-3.89 10.08 10.08 0 0 0 5.56 1.77h2.32l-.55-2.17c-.09-.36-.21-.69-.32-1a25.68 25.68 0 0 0 5.2-4.93l.86-1.1Zm-7.5 6.42a7.19 7.19 0 0 1 .93 2.1h-.07a8.83 8.83 0 0 1-5.55-2.18l7.14-5.78L23 16l-6.12 5V10.58h-1.76V21L9 16l-1.1 1.37 7.14 5.78a8.83 8.83 0 0 1-5.55 2.18h-.05a7.19 7.19 0 0 1 .93-2.1 22 22 0 0 1-6.12-5.34 4.41 4.41 0 0 1 1.46-1.16 6.48 6.48 0 0 1-1.28-2.38 6.69 6.69 0 0 1 1.37-.14 4.92 4.92 0 0 1 1.2.16 5.41 5.41 0 0 1 .23-1.95 16.44 16.44 0 0 1 4.52.8 24.4 24.4 0 0 1 1.29-6.61 5.29 5.29 0 0 1 1.37.9A14.68 14.68 0 0 1 16 4.91a14.68 14.68 0 0 1 1.55 2.6 5.29 5.29 0 0 1 1.37-.9 24.4 24.4 0 0 1 1.29 6.61 16.44 16.44 0 0 1 4.52-.8 5.41 5.41 0 0 1 .27 1.95 4.92 4.92 0 0 1 1.24-.14 6.69 6.69 0 0 1 1.37.14 6.48 6.48 0 0 1-1.28 2.38 4.41 4.41 0 0 1 1.46 1.16 22 22 0 0 1-6.16 5.34Z"/></svg>