<svg xmlns="http://www.w3.org/2000/svg" viewBox="0 0 32 32" aria-label="license plate" role="img" fill="currentColor" focusable="false"><path d="M29.79 7H2.21A1.2 1.2 0 0 0 1 8.2v16.61A1.21 1.21 0 0 0 2.21 26h27.58A1.21 1.21 0 0 0 31 24.81V8.2A1.2 1.2 0 0 0 29.79 7Zm-.93 16.9H3.14V9.12h25.72Z"/><path d="M14 12h-4a1 1 0 0 0-1 1v8h2v-3h2v3h2v-8a1 1 0 0 0-1-1Zm-3 4v-2h2v2ZM23 17a1 1 0 0 0-1-1 1 1 0 0 0 1-1v-2a1 1 0 0 0-1-1h-5v9h5a1 1 0 0 0 1-1Zm-2-3v1h-2v-1Zm-2 3h2v2h-2Z"/><rect width="2" height="2" x="5" y="11.01" rx="1"/><rect width="2" height="2" x="5" y="20.01" rx="1"/><rect width="2" height="2" x="25" y="11.01" rx="1"/><rect width="2" height="2" x="25" y="20.01" rx="1"/></svg>