<svg xmlns="http://www.w3.org/2000/svg" viewBox="0 0 32 32" aria-label="life jacket" role="img" fill="currentColor" focusable="false"><path d="M27.57 15.58a7.22 7.22 0 0 1-2.94-7.33l.88-4.4a1 1 0 0 0-.77-1.18L20.82 2h-.17a1 1 0 0 0-.94.65l-2.59 7a2 2 0 0 0-.12.69V19h-2v-8.63a2 2 0 0 0-.12-.69l-2.59-7a1 1 0 0 0-.94-.68h-.17l-3.92.66a1 1 0 0 0-.77 1.18l.88 4.4a7.22 7.22 0 0 1-2.94 7.33 1 1 0 0 0-.43.83V28a2 2 0 0 0 2 2h6a3 3 0 0 0 3-3v-2h2v2a3 3 0 0 0 3 3h6a2 2 0 0 0 2-2V16.4a1 1 0 0 0-.43-.82ZM13 27a1 1 0 0 1-1 1H6v-3h3v-2H6v-2h3v-2H6v-2.1a9.2 9.2 0 0 0 3.33-9l-.68-3.43 2-.35L13 10.37V19h-2v2h2v2h-2v2h2Zm2-4v-2h2v2Zm11-4h-3v2h3v2h-3v2h3v3h-6a1 1 0 0 1-1-1v-2h2v-2h-2v-2h2v-2h-2v-8.63l2.3-6.25 2.05.35-.68 3.39a9.2 9.2 0 0 0 3.33 9Z"/></svg>