<svg xmlns="http://www.w3.org/2000/svg" viewBox="0 0 32 32" aria-label="machine learning model" role="img" fill="currentColor" focusable="false"><path d="M18 6h2V4h-2a4 4 0 0 0-3 1.38A4 4 0 0 0 12 4h-1a9 9 0 0 0-9 9v6a9 9 0 0 0 9 9h1a4 4 0 0 0 3-1.38A4 4 0 0 0 18 28h2v-2h-2a2 2 0 0 1-2-2V8a2 2 0 0 1 2-2Zm-6 20h-1a7 7 0 0 1-6.92-6H6v-2H4v-4h3a3 3 0 0 0 3-3V9H8v2a1 1 0 0 1-1 1H4.08A7 7 0 0 1 11 6h1a2 2 0 0 1 2 2v4h-2v2h2v4h-2a3 3 0 0 0-3 3v2h2v-2a1 1 0 0 1 1-1h2v4a2 2 0 0 1-2 2Z"/><path d="M27 13a3 3 0 0 0-2.81 2H18v2h6.19A3 3 0 1 0 27 13Zm0 4a1 1 0 1 1 1-1 1 1 0 0 1-1 1ZM27 2a3 3 0 0 0-3 3 2.87 2.87 0 0 0 .35 1.37L20.6 10H18v2h3.41l4.39-4.25A3 3 0 0 0 27 8a3 3 0 0 0 0-6Zm0 4a1 1 0 1 1 1-1 1 1 0 0 1-1 1ZM27 24a2.9 2.9 0 0 0-1.28.3l-4.3-4.3H18v2h2.59l3.71 3.71A3 3 0 1 0 27 24Zm0 4a1 1 0 1 1 1-1 1 1 0 0 1-1 1Z"/></svg>