<svg xmlns="http://www.w3.org/2000/svg" viewBox="0 0 32 32" aria-label="machine learning" role="img" fill="currentColor" focusable="false"><path d="M12 14a2 2 0 1 0 2 2 2 2 0 0 0-2-2ZM20 14a2 2 0 1 0 2 2 2 2 0 0 0-2-2Z"/><path d="M30 16v-2h-2v-4a4 4 0 0 0-4-4h-2V2h-2v4h-8V2h-2v4H8a4 4 0 0 0-4 4v4H2v2h2v5H2v2h2v3a4 4 0 0 0 4 4h16a4 4 0 0 0 4-4v-3h2v-2h-2v-5Zm-4 10a2 2 0 0 1-2 2H8a2 2 0 0 1-2-2V10a2 2 0 0 1 2-2h16a2 2 0 0 1 2 2Z"/><path d="M16 25a7 7 0 0 1-5.83-3.13l1.66-1.11a5 5 0 0 0 8.34 0l1.66 1.11A7 7 0 0 1 16 25Z"/></svg>