<svg xmlns="http://www.w3.org/2000/svg" viewBox="0 0 32 32" aria-label="magic wand" role="img" fill="currentColor" focusable="false"><path d="M29.41 24 12 6.59a2 2 0 0 0-2.83 0L6.59 9.17a2 2 0 0 0 0 2.83L24 29.41a2 2 0 0 0 2.83 0l2.58-2.58a2 2 0 0 0 0-2.83ZM8 10.59 10.59 8l5 5L13 15.59l-5-5ZM25.41 28l-11-11L17 14.41l11 11Z"/><path d="M2.59 2.59H5.42V5.42H2.59z" transform="rotate(-45 3.998 4.004)"/><path d="M2.59 14.59H5.42V17.42H2.59z" transform="rotate(-45 3.995 15.995)"/><path d="M14.59 2.59H17.42V5.42H14.59z" transform="rotate(-45 16.007 4)"/></svg>