<svg xmlns="http://www.w3.org/2000/svg" viewBox="0 0 32 32" aria-label="mammogram" role="img" fill="currentColor" focusable="false"><path d="M20 27h-6v-4a2 2 0 0 1 2-2h2v-2h-4v-2h4a2 2 0 0 1 2 2v2a2 2 0 0 1-2 2h-2v2h4ZM25 27h-3V17h3a3 3 0 0 1 3 3v4a3 3 0 0 1-3 3Zm-1-2h1a1 1 0 0 0 1-1v-4a1 1 0 0 0-1-1h-1ZM25 15h-3V5h3a3 3 0 0 1 3 3v4a3 3 0 0 1-3 3Zm-1-2h1a1 1 0 0 0 1-1V8a1 1 0 0 0-1-1h-1ZM18 5h-4v2h4v2h-3v2h3v2h-4v2h4a2 2 0 0 0 2-2V7a2 2 0 0 0-2-2Z"/><path d="M7 0 0 0 0 7 2 7 2 2 7 2 7 0z"/><path d="M25 32 32 32 32 25 30 25 30 30 25 30 25 32z"/><path d="M10 27H8v-3c-4.72-.44-6-4-6-5.95 0-3 2.08-4.5 3.92-5.81C7.57 11 9 10 9 8V5h2v3c0 3-2.08 4.5-3.92 5.81C5.43 15 4 16 4 18c0 .4.19 4 5 4a1 1 0 0 1 1 1Z"/></svg>