<svg xmlns="http://www.w3.org/2000/svg" viewBox="0 0 32 32" aria-label="managed solutions" role="img" fill="currentColor" focusable="false"><path d="M30 23 25 23 25 18 23 18 23 23 18 23 18 25 23 25 23 30 25 30 25 25 30 25 30 23z"/><path d="m24.13 11.84 1.18.21a5.84 5.84 0 0 1 2.62 1.15A5.4 5.4 0 0 1 30 18h2a7.49 7.49 0 0 0-6.15-7.88 10 10 0 0 0-7.94-7.94A10.16 10.16 0 0 0 16 2a10 10 0 0 0-9.83 8.12 7.5 7.5 0 0 0-6.11 8.29A7.68 7.68 0 0 0 7.77 25H14v-2H7.7a5.62 5.62 0 0 1-5.6-4.49 5.51 5.51 0 0 1 4.43-6.43l1.35-.24.21-1.11a8.2 8.2 0 0 1 6.74-6.64 7.86 7.86 0 0 1 3 .13 8.13 8.13 0 0 1 6 6.44Z"/></svg>