<svg xmlns="http://www.w3.org/2000/svg" viewBox="0 0 32 32" aria-label="map alt" role="img" fill="currentColor" focusable="false"><path d="m30 23.07-1.91-15.8a.72.72 0 0 0-.71-.62.63.63 0 0 0-.35.09l-7.2 4a.73.73 0 0 1-.35.09h-.19l-.4-.12L19.9 9v-.08a4.66 4.66 0 1 0-8.24-.14l-1.11-.31h-.19a.73.73 0 0 0-.35.09l-7.67 4.31a.72.72 0 0 0-.36.71l1.93 15.79a.72.72 0 0 0 .71.63.73.73 0 0 0 .38-.09l7.2-4.05a.74.74 0 0 1 .35-.1h.19l8.7 2.39a.63.63 0 0 0 .19 0 .73.73 0 0 0 .35-.09l7.71-4.34a.72.72 0 0 0 .31-.65ZM15.86 3.54A3.12 3.12 0 0 1 19 6.66a3 3 0 0 1-.42 1.56s0 0 0 .08l-2.65 4.6-2.73-4.6a.59.59 0 0 0 0-.08 3.12 3.12 0 0 1 2.7-4.68Zm-4.45 21L5.29 28 3.58 14l6.25-3.51 1.71 14Zm1.7-.21-1.72-14 1.43.39 2.4 4.16a.77.77 0 0 0 .67.39.79.79 0 0 0 .67-.39l1.56-2.71.8.22h.11l1.72 14Zm9.14 1.88-1.72-14h.06l6.12-3.44 1.71 14Z"/><path d="M15.86 8.85a2.19 2.19 0 1 1 2.19-2.19 2.2 2.2 0 0 1-2.19 2.19Zm0-2.84a.65.65 0 1 0 .65.65.65.65 0 0 0-.65-.66Z"/></svg>