<svg xmlns="http://www.w3.org/2000/svg" viewBox="0 0 32 32" aria-label="math curve" role="img" fill="currentColor" focusable="false"><path d="M10.36 23.06C12.77 24.59 15.62 26 18 26a3.92 3.92 0 0 0 2.86-1.08c2.28-2.29.14-6.4-1.94-10.38l5.8-5.8c1.07.69 2.1 1.43 3 2.13L29 9.35c-.78-.61-1.77-1.34-2.87-2.06L30 3.41 28.59 2l-4.21 4.21C21.06 4.3 17.27 3 15.15 5.08s-.55 5.54 1.27 9.09l-6.31 6.3c-1-.71-2-1.44-2.8-2.1L6 19.88c.61.51 1.55 1.25 2.67 2L4 26.58V2H2v26a2 2 0 0 0 2 2h26v-2H5.41Zm6.2-16.56c1.14-1.14 3.7-.29 6.34 1.18l-5 5c-1.31-2.62-2.34-5.17-1.34-6.18Zm.83 9.5c1.58 3 3.18 6.29 2 7.47s-4.52 0-7.57-1.91Z"/></svg>