<svg xmlns="http://www.w3.org/2000/svg" viewBox="0 0 32 32" aria-label="medal" role="img" fill="currentColor" focusable="false"><path d="M25 2 7 2 7 4 25 4 25 2 25 2z"/><path d="M25 11 7 11 7 13 25 13 25 11 25 11z"/><path d="M11 3 9 3 9 12 11 12 11 3 11 3z"/><path d="M23 3 21 3 21 12 23 12 23 3 23 3z"/><path d="M19 3 17 3 17 12 19 12 19 3 19 3z"/><path d="M15 3 13 3 13 12 15 12 15 3 15 3z"/><path d="M17 12 15 12 15 16 17 16 17 12 17 12z"/><path d="M16 16a6.5 6.5 0 1 1-6.5 6.5A6.51 6.51 0 0 1 16 16m0-2a8.5 8.5 0 1 0 8.5 8.5A8.51 8.51 0 0 0 16 14Z"/><path d="M16 20a2.5 2.5 0 1 1-2.5 2.5A2.5 2.5 0 0 1 16 20m0-2a4.5 4.5 0 1 0 4.5 4.5A4.49 4.49 0 0 0 16 18Z"/></svg>