<svg xmlns="http://www.w3.org/2000/svg" viewBox="0 0 32 32" aria-label="microscope" role="img" fill="currentColor" focusable="false"><path d="M25.39 24a7.88 7.88 0 0 0 .61-3 8 8 0 0 0-2.28-5.57A3.76 3.76 0 0 0 24 14a4 4 0 0 0-1.36-3l2.78-2.78a2 2 0 0 0 0-2.83l-2.83-2.81a2 2 0 0 0-2.83 0L6.59 15.76a2 2 0 0 0 0 2.83l2.82 2.82a2 2 0 0 0 1.42.59 2 2 0 0 0 1.41-.59L17 16.64a3.93 3.93 0 0 0 5.51.43 6 6 0 0 1 .67 6.93H16v4H4v2h24v-6Zm-14.56-4L8 17.17l1.88-1.88 2.83 2.83ZM16 14a3.67 3.67 0 0 0 .08.75l-2 2-2.83-2.83L21.17 4 24 6.83l-3.25 3.25A3.67 3.67 0 0 0 20 10a4 4 0 0 0-4 4Zm4 2a2 2 0 1 1 2-2 2 2 0 0 1-2 2Zm6 12h-8v-2h8Z"/></svg>