<svg xmlns="http://www.w3.org/2000/svg" viewBox="0 0 32 32" aria-label="mixed rain hail" role="img" fill="currentColor" focusable="false"><circle cx="24.55" cy="25.51" r="1.5"/><circle cx="21.55" cy="29.51" r="1.5"/><path d="M15.92 30.51 14.18 29.51 17.33 24.01 11.33 24.01 16.18 15.51 17.92 16.51 14.77 22.01 20.77 22.01 15.92 30.51z"/><path d="M9.05 32a.93.93 0 0 1-.45-.11 1 1 0 0 1-.44-1.34l2-4a1 1 0 0 1 1.78.9l-2 4a1 1 0 0 1-.89.55ZM24.85 9.15a9 9 0 0 0-17.6 0 6.49 6.49 0 0 0 .23 12.76l-1.32 2.65a1 1 0 0 0 .44 1.34.93.93 0 0 0 .45.11 1 1 0 0 0 .89-.55l2-4a1 1 0 0 0-.44-1.34.92.92 0 0 0-.45-.1h-.5a4.5 4.5 0 0 1-.36-9L9 11l.1-.82a7 7 0 0 1 13.88 0l.1.82.82.06a4.5 4.5 0 0 1-.36 9h-.5v2h.5a6.5 6.5 0 0 0 1.3-12.86Z"/></svg>