<svg xmlns="http://www.w3.org/2000/svg" viewBox="0 0 32 32" aria-label="model alt" role="img" fill="currentColor" focusable="false"><path d="M28.45 16.11 23 13.38V7a1 1 0 0 0-.55-.89l-6-3a1 1 0 0 0-.9 0l-6 3A1 1 0 0 0 9 7v6.38l-5.45 2.73A1 1 0 0 0 3 17v7a1 1 0 0 0 .55.89l6 3a1 1 0 0 0 .9 0L16 25.12l5.55 2.77a1 1 0 0 0 .9 0l6-3A1 1 0 0 0 29 24v-7a1 1 0 0 0-.55-.89ZM21 13.38l-4 2v-4.76l4-2Zm-5-8.26L19.76 7 16 8.88 12.24 7Zm-5 3.5 4 2v4.76l-4-2ZM9 25.38l-4-2v-4.76l4 2Zm1-6.5L6.24 17 10 15.12 13.76 17Zm1 1.74 4-2v4.76l-4 2Zm10 4.76-4-2v-4.76l4 2Zm1-6.5L18.24 17 22 15.12 25.76 17Zm5 4.5-4 2v-4.76l4-2Z"/></svg>