<svg xmlns="http://www.w3.org/2000/svg" viewBox="0 0 32 32" aria-label="mostly cloudy night" role="img" fill="currentColor" focusable="false"><path d="M29.85 15a1.53 1.53 0 0 0-1.24-.86 5.31 5.31 0 0 1-3.4-1.72 6.45 6.45 0 0 1-1.29-6.39 1.62 1.62 0 0 0-.3-1.55A1.46 1.46 0 0 0 22.26 4 7.92 7.92 0 0 0 16 11.46a7.31 7.31 0 0 0-2.5-.46 7.56 7.56 0 0 0-7.15 5.24A6 6 0 0 0 8 28h11a6 6 0 0 0 5.62-8.09 7.5 7.5 0 0 0 5.13-3.36 1.55 1.55 0 0 0 .1-1.55ZM19 26H8a4 4 0 0 1-.67-7.93L8 18l.15-.66a5.5 5.5 0 0 1 10.73 0L19 18l.66.11A4 4 0 0 1 19 26Zm4.47-8a6 6 0 0 0-2.8-1.76 7.51 7.51 0 0 0-2.6-3.67v-.3a6.08 6.08 0 0 1 3.79-6 8.44 8.44 0 0 0 1.94 7.59A7.39 7.39 0 0 0 27.64 16a5.41 5.41 0 0 1-4.17 2Z"/></svg>