<svg xmlns="http://www.w3.org/2000/svg" viewBox="0 0 32 32" aria-label="mostly cloudy" role="img" fill="currentColor" focusable="false"><path d="M21.79 18.69a6.08 6.08 0 0 0 1.06-1.09 6 6 0 1 0-10.73-4.44 7.54 7.54 0 0 0-5.72 5.08A6 6 0 0 0 8.05 30h11a6 6 0 0 0 2.74-11.31ZM18.05 10a4 4 0 0 1 3.2 6.4 3.79 3.79 0 0 1-.94.89 7.56 7.56 0 0 0-6.13-4.24A4 4 0 0 1 18.05 10Zm1 18h-11a4 4 0 0 1-.67-7.93L8 20l.14-.66a5.5 5.5 0 0 1 10.73 0l.15.66.66.11a4 4 0 0 1-.63 7.89Z"/><path d="M26.05 13H30.05V15H26.05z"/><path d="M23.12 5.93H27.12V7.93H23.12z" transform="rotate(-45 25.119 6.926)"/><path d="M17.05 2H19.05V6H17.05z"/><path d="M9.98 4.93H11.98V8.93H9.98z" transform="rotate(-45 10.978 6.923)"/></svg>