<svg xmlns="http://www.w3.org/2000/svg" viewBox="0 0 32 32" aria-label="multi energy" role="img" fill="currentColor" focusable="false"><path d="M17 16v10h4v2H11V13.82c.6-.21 1.11-.6 1.47-1.12l8.59 2.3.52-1.93-8.6-2.31a2.985 2.985 0 0 0-2.63-2.73L8.19 0 6.26.52l2.13 7.96a2.95 2.95 0 0 0-1.09 3.81L1 18.59 2.41 20l6.3-6.3c.09.04.19.08.28.12V28H1v2h30v-2h-4v-2h4V16H17Zm-7-4c-.55 0-1-.45-1-1s.45-1 1-1 1 .45 1 1-.45 1-1 1Zm11 12h-2v-2h2v2Zm0-4h-2v-2h2v2Zm4 8h-2v-2h2v2Zm0-4h-2v-2h2v2Zm0-4h-2v-2h2v2Zm4 4h-2v-2h2v2Zm0-4h-2v-2h2v2Z"/></svg>