<svg xmlns="http://www.w3.org/2000/svg" viewBox="0 0 32 32" aria-label="natural gas" role="img" fill="currentColor" focusable="false"><path d="M18 14.4v3c-1 0-2-1.5-2-4v-3c-4 5-5 7-5 9 0 2.01 1.2 3.82 3.05 4.6.31-1.36.98-2.61 1.95-3.6.97 1 1.65 2.24 1.95 3.6 1.85-.78 3.05-2.6 3.05-4.6 0-2-1.12-3.57-3-5Z"/><path d="M15 4H17V5H15z"/><path d="M20 6.1V3c0-1.1-.9-2-2-2h-4c-1.1 0-2 .9-2 2v3.1c-2.28.47-4 2.48-4 4.9v12c0 1.64.81 3.09 2.03 4H10v2c0 1.1.9 2 2 2h8c1.1 0 2-.9 2-2v-2h-.03c1.22-.91 2.03-2.36 2.03-4V11c0-2.42-1.72-4.43-4-4.9ZM14 3h4v3h-4V3Zm6 26h-8v-1.1c.32.07.66.1 1 .1h6c.34 0 .68-.04 1-.1V29Zm2-7v1c0 1.66-1.34 3-3 3h-6c-1.66 0-3-1.34-3-3V11c0-1.66 1.34-3 3-3h6c1.66 0 3 1.34 3 3v11Z"/></svg>