<svg xmlns="http://www.w3.org/2000/svg" viewBox="0 0 32 32" aria-label="network 4" role="img" fill="currentColor" focusable="false"><circle cx="4" cy="16" r="2"/><circle cx="21" cy="6" r="2"/><circle cx="21" cy="26" r="2"/><path d="M28 12a4 4 0 0 0-3.86 3h-4.28A4 4 0 0 0 16 12a3.89 3.89 0 0 0-1.63.36l-3.18-4A4 4 0 1 0 8 10a3.89 3.89 0 0 0 1.63-.36l3.18 4a3.93 3.93 0 0 0 0 4.78l-3.18 4A3.89 3.89 0 0 0 8 22a4 4 0 1 0 3.19 1.61l3.18-4A3.89 3.89 0 0 0 16 20a4 4 0 0 0 3.86-3h4.28A4 4 0 1 0 28 12ZM6 6a2 2 0 1 1 2 2 2 2 0 0 1-2-2Zm2 22a2 2 0 1 1 2-2 2 2 0 0 1-2 2Zm8-10a2 2 0 1 1 2-2 2 2 0 0 1-2 2Zm12 0a2 2 0 1 1 2-2 2 2 0 0 1-2 2Z"/></svg>