<svg xmlns="http://www.w3.org/2000/svg" viewBox="0 0 32 32" aria-label="newspaper" role="img" fill="currentColor" focusable="false"><path d="M23.91 8.91v2H13.38v-2h10.53m2-2H11.36V13h14.58V6.88Z"/><path d="M11.35 14.99H25.93V17.02H11.35z"/><path d="M11.35 19.05H25.93V21.080000000000002H11.35z"/><path d="M11.35 23.1H25.93V25.130000000000003H11.35z"/><path d="M28 2.83H9.32a2 2 0 0 0-2 2H4a2 2 0 0 0-2 2v18.72a3.64 3.64 0 0 0 3.66 3.62H26a4 4 0 0 0 4-4V4.85a2 2 0 0 0-2-2.02ZM7.29 20.52v5a1.66 1.66 0 0 1 0 .32.88.88 0 0 1 0 .15.44.44 0 0 1 0 .15.87.87 0 0 1-.1.19v.08a2 2 0 0 1-.19.22 1.68 1.68 0 0 1-1.16.48A1.62 1.62 0 0 1 4 25.55V6.88h3.29ZM28 25.19a2 2 0 0 1-2 2H8.93a3.6 3.6 0 0 0 .39-1.6V4.85H28Z"/></svg>