<svg xmlns="http://www.w3.org/2000/svg" viewBox="0 0 32 32" aria-label="no alcohol" role="img" fill="currentColor" focusable="false"><path d="M16 2a14 14 0 1 0 14 14A14 14 0 0 0 16 2Zm0 26A12 12 0 0 1 6.84 8.27L11 12.43v2.39a5.18 5.18 0 0 0 4 5.09V23h-3v2h8v-2h-3v-3.1a5.54 5.54 0 0 0 1.13-.37l5.6 5.6A12 12 0 0 1 16 28Zm3-13a2.94 2.94 0 0 1-.68 1.88L13 11.6V10h6Zm-2.45 3a3.31 3.31 0 0 1-.55 0 3 3 0 0 1-3-3v-.6Zm8.6 5.77-5.41-5.41A4.93 4.93 0 0 0 21 15V9a1 1 0 0 0-1-1h-8a1 1 0 0 0-1 1v.6L8.25 6.85a12 12 0 0 1 16.9 16.9Z"/></svg>