<svg xmlns="http://www.w3.org/2000/svg" viewBox="0 0 32 32" aria-label="no fishing" role="img" fill="currentColor" focusable="false"><path d="M16 2a14 14 0 1 0 14 14A14 14 0 0 0 16 2Zm0 26A12 12 0 0 1 6.84 8.27l5.91 5.91a8.69 8.69 0 0 0-.75 3.61v.34H7.11a.56.56 0 0 0-.51.34.53.53 0 0 0 .12.6l6.34 6.18a.54.54 0 0 0 .39.16.52.52 0 0 0 .21 0 .55.55 0 0 0 .34-.51V20h.18a8.73 8.73 0 0 0 3.61-.78l5.94 5.94A12 12 0 0 1 16 28Zm2.13-11.27-2.89-2.89A6.82 6.82 0 0 1 20.79 11H21v.21a6.84 6.84 0 0 1-2.87 5.52Zm-1.88.95a7.11 7.11 0 0 1-2.07.32H14v-.21a6.74 6.74 0 0 1 .32-2.07ZM12 20.13v1.3l-1.33-1.3H12Zm13.15 3.62-5.59-5.6a8.78 8.78 0 0 0 3.44-7V9h-2.21a8.81 8.81 0 0 0-7 3.44L8.25 6.85a12 12 0 0 1 16.9 16.9Z"/></svg>