<svg xmlns="http://www.w3.org/2000/svg" viewBox="0 0 32 32" aria-label="nominate" role="img" fill="currentColor" focusable="false"><path d="M10 18.59 7.41 16 6 17.41 10 21.41 17 14.41 15.59 13 10 18.59z"/><path d="M14 26H4V6h7.17l3.42 3.41.58.59H28v8h2v-8a2 2 0 0 0-2-2H16l-3.41-3.41A2 2 0 0 0 11.17 4H4a2 2 0 0 0-2 2v20a2 2 0 0 0 2 2h10Z"/><path d="M25 23h-6a3 3 0 0 0-3 3v2h2v-2a1 1 0 0 1 1-1h6a1 1 0 0 1 1 1v2h2v-2a3 3 0 0 0-3-3ZM18 18a4 4 0 1 0 4-4 4 4 0 0 0-4 4Zm6 0a2 2 0 1 1-2-2 2 2 0 0 1 2 2Z"/></svg>