<svg xmlns="http://www.w3.org/2000/svg" viewBox="0 0 32 32" aria-label="noodle bowl" role="img" fill="currentColor" focusable="false"><path d="M22 8a4.88 4.88 0 0 0-1.57.26A8 8 0 0 0 9.09 6.68L4.41 2 3 3.41l6.05 6.05.71-.7A5.93 5.93 0 0 1 14 7a6 6 0 0 1 4.69 2.26 5.67 5.67 0 0 0-.59.61A3 3 0 0 1 15.75 11H12v2h3.75a5 5 0 0 0 3.91-1.87A3 3 0 0 1 22 10a3 3 0 0 1 3 3h2a5 5 0 0 0-5-5Z"/><path d="m11.41 15-8-8L2 8.41 8.59 15H2v1a14 14 0 0 0 28 0v-1ZM16 28A12 12 0 0 1 4 17h24a12 12 0 0 1-12 11Z"/></svg>