<svg xmlns="http://www.w3.org/2000/svg" viewBox="0 0 32 32" aria-label="oil" role="img" fill="currentColor" focusable="false"><path d="m28 13.46 3 .84v-2.08l-5-1.4-7.02-2.02A2.982 2.982 0 0 0 17 6.18V4h-2v2.19c-.58.21-1.08.57-1.43 1.06l-4.54-1.3.53-1.53.44-1.28.22-.64a.673.673 0 0 0-.42-.86L7.89.97c-.27-.09-.57 0-.75.21L2.16 7.32c-.1.12-.15.28-.15.43l.11 7.91c0 .28.18.54.45.63l1.91.67c.35.12.74-.06.86-.42l.22-.64.44-1.28.89-2.55.44-1.28.89-2.55.14-.41 4.65 1.33c.04.66.29 1.27.7 1.74L7.77 27.98H1v2h30v-2h-3v-2h1v-6h-1v-6.54ZM16 8c.55 0 1 .45 1 1s-.45 1-1 1-1-.45-1-1 .45-1 1-1Zm-.53 3.95c.17.03.35.05.53.05s.36-.02.53-.05L17.94 16h-3.87l1.41-4.05ZM13.36 18h5.27l.31.89-3.01 2.65L13 19.08l.37-1.07Zm-1.08 3.09 2.12 1.78-3.94 3.46 1.82-5.23ZM11.59 28l4.36-3.83L20.52 28h-8.93Zm5.88-5.17 2.17-1.91 1.83 5.27-4.01-3.36ZM25.99 15v5h-1v6h1v2h-1.77l-5.94-17.08c.1-.12.2-.26.28-.39-.04.07-.08.14-.12.2l6.4 1.83 1.16.33v2.1Z"/></svg>