<svg xmlns="http://www.w3.org/2000/svg" viewBox="0 0 32 32" aria-label="operations record" role="img" fill="currentColor" focusable="false"><path d="M16 20a3.91 3.91 0 0 1-4-4 3.91 3.91 0 0 1 4-4 3.91 3.91 0 0 1 4 4h2a6 6 0 1 0-6 6Z"/><path d="M20 20H30V22H20z"/><path d="M20 24H30V26H20z"/><path d="M20 28H30V30H20z"/><path d="m29.3 11-2.36-4a2 2 0 0 0-1.73-1 2 2 0 0 0-.64.1l-2.43.82a11.35 11.35 0 0 0-1.31-.75l-.51-2.52a2 2 0 0 0-2-1.61h-4.68a2 2 0 0 0-2 1.61l-.51 2.52a11.48 11.48 0 0 0-1.32.75l-2.38-.86A2 2 0 0 0 6.79 6a2 2 0 0 0-1.73 1L2.7 11a2 2 0 0 0 .41 2.51L5 15.24v1.53l-1.89 1.68A2 2 0 0 0 2.7 21l2.36 4a2 2 0 0 0 1.73 1 2 2 0 0 0 .64-.1l2.43-.82a11.35 11.35 0 0 0 1.31.75l.51 2.52a2 2 0 0 0 2 1.61H16V28h-2.36l-.71-3.55a9.36 9.36 0 0 1-2.7-1.57L6.79 24l-2.36-4 2.72-2.4a8.9 8.9 0 0 1 0-3.13L4.43 12l2.36-4 3.43 1.16a8.86 8.86 0 0 1 2.71-1.57L13.64 4h4.72l.71 3.55a9.36 9.36 0 0 1 2.7 1.57L25.21 8l2.36 4-2.8 2.46L26.09 16l2.8-2.45A2 2 0 0 0 29.3 11Z"/></svg>