<svg xmlns="http://www.w3.org/2000/svg" viewBox="0 0 32 32" aria-label="partly cloudy night" role="img" fill="currentColor" focusable="false"><path d="M30.05 19a5 5 0 0 0-3.21-4.66 7 7 0 0 0-13-1.44 13.16 13.16 0 0 1 .13-8.52A1 1 0 0 0 13 3a.5.5 0 0 0-.17 0A13.1 13.1 0 0 0 2.07 16.58 13.24 13.24 0 0 0 14.68 29h.49a13 13 0 0 0 10.29-5 5 5 0 0 0 4.59-5Zm-15.3 8a11.1 11.1 0 0 1-3.2-21.59 15.18 15.18 0 0 0 .85 9.37A5 5 0 0 0 15.05 24h7.68a11.1 11.1 0 0 1-7.56 3Zm10.3-5h-10a3 3 0 0 1-.7-5.91l.66-.16.1-.67a5 5 0 0 1 9.88 0l.1.66.66.16a3 3 0 0 1-.7 5.91Z"/></svg>