<svg xmlns="http://www.w3.org/2000/svg" viewBox="0 0 32 32" aria-label="partly cloudy" role="img" fill="currentColor" focusable="false"><path d="M15 1H17V5H15z"/><path d="M23.09 5.79H27.33V7.79H23.09z" transform="rotate(-45 25.203 6.79)"/><path d="M27 15H31V17H27z"/><path d="M4.67 24.21H8.91V26.21H4.67z" transform="rotate(-45 6.8 25.204)"/><path d="M1 15H5V17H1z"/><path d="M5.79 4.67H7.79V8.91H5.79z" transform="rotate(-45 6.791 6.787)"/><path d="M26.79 20.34a7 7 0 0 0-1.86-3.27A9.45 9.45 0 0 0 25 16a9 9 0 1 0-14.58 7 4.83 4.83 0 0 0-.42 2 5 5 0 0 0 5 5h10a5 5 0 0 0 1.79-9.66ZM9 16a7 7 0 0 1 14-.3 6.84 6.84 0 0 0-3-.7 7 7 0 0 0-6.79 5.34 5.05 5.05 0 0 0-1.65 1.05A7 7 0 0 1 9 16Zm16 12H15a3 3 0 0 1-.7-5.91l.66-.16.1-.67a5 5 0 0 1 9.88 0l.1.66.66.16A3 3 0 0 1 25 28Z"/></svg>