<svg xmlns="http://www.w3.org/2000/svg" viewBox="0 0 32 32" aria-label="password" role="img" fill="currentColor" focusable="false"><path d="M21 2a9 9 0 0 0-9 9 8.87 8.87 0 0 0 .39 2.61L2 24v6h6l10.39-10.39A9 9 0 0 0 30 11.74a8.77 8.77 0 0 0-1.65-6A9 9 0 0 0 21 2Zm0 16a7 7 0 0 1-2-.3l-1.15-.35-.85.85-3.19 3.18L12.42 20 11 21.41l1.38 1.38-1.59 1.59L9.42 23 8 24.41l1.38 1.38L7.17 28H4v-3.17L13.8 15l.85-.85-.29-.95a7.13 7.13 0 0 1 3.41-8.44 7 7 0 0 1 10.23 6 6.75 6.75 0 0 1-1.08 4A7.08 7.08 0 0 1 21 18Z"/><circle cx="22" cy="10" r="2"/></svg>