<svg xmlns="http://www.w3.org/2000/svg" viewBox="0 0 32 32" aria-label="paw print" role="img" fill="currentColor" focusable="false"><path d="M20 29h-8a5 5 0 0 1 0-10v-2a4 4 0 0 1 8 0v2a5 5 0 0 1 0 10Zm-4-14a2 2 0 0 0-2 2v2a2 2 0 0 1-2 2 3 3 0 0 0 0 6h8a3 3 0 0 0 0-6 2 2 0 0 1-2-2v-2a2 2 0 0 0-2-2ZM20.5 12A3.5 3.5 0 0 1 17 8.5v-2a3.5 3.5 0 0 1 7 0v2a3.5 3.5 0 0 1-3.5 3.5Zm0-7A1.5 1.5 0 0 0 19 6.5v2a1.5 1.5 0 0 0 3 0v-2A1.5 1.5 0 0 0 20.5 5ZM26.5 20a3.5 3.5 0 0 1-3.5-3.5v-2a3.5 3.5 0 0 1 7 0v2a3.5 3.5 0 0 1-3.5 3.5Zm0-7a1.5 1.5 0 0 0-1.5 1.5v2a1.5 1.5 0 0 0 3 0v-2a1.5 1.5 0 0 0-1.5-1.5ZM5.5 20A3.5 3.5 0 0 1 2 16.5v-2a3.5 3.5 0 0 1 7 0v2A3.5 3.5 0 0 1 5.5 20Zm0-7A1.5 1.5 0 0 0 4 14.5v2a1.5 1.5 0 0 0 3 0v-2A1.5 1.5 0 0 0 5.5 13ZM11.5 12A3.5 3.5 0 0 1 8 8.5v-2a3.5 3.5 0 0 1 7 0v2a3.5 3.5 0 0 1-3.5 3.5Zm0-7A1.5 1.5 0 0 0 10 6.5v2a1.5 1.5 0 0 0 3 0v-2A1.5 1.5 0 0 0 11.5 5Z"/></svg>