<svg xmlns="http://www.w3.org/2000/svg" viewBox="0 0 32 32" aria-label="pedestrian child" role="img" fill="currentColor" focusable="false"><path d="M8 9a4 4 0 1 1 4-4 4 4 0 0 1-4 4Zm0-6a2 2 0 1 0 2 2 2 2 0 0 0-2-2ZM23.5 15a3.5 3.5 0 1 1 3.5-3.5 3.5 3.5 0 0 1-3.5 3.5Zm0-5a1.5 1.5 0 1 0 1.5 1.5 1.5 1.5 0 0 0-1.5-1.5Z"/><path d="M26 16h-8.53l-5-6H5a3 3 0 0 0-3 3v6a2 2 0 0 0 2 2v7a2 2 0 0 0 2 2h4a2 2 0 0 0 2-2v-7h-2v7H6v-9H4v-6a1 1 0 0 1 1-1h6.53l5 6H26a1 1 0 0 1 1 1v3h-2v6h-3v-6h-2v6a2 2 0 0 0 2 2h3a2 2 0 0 0 2-2v-4a2 2 0 0 0 2-2v-3a3 3 0 0 0-3-3Z"/></svg>