<svg xmlns="http://www.w3.org/2000/svg" viewBox="0 0 32 32" aria-label="person favorite" role="img" fill="currentColor" focusable="false"><path d="M10 31H6a2 2 0 0 1-2-2v-7a2 2 0 0 1-2-2v-6a3 3 0 0 1 3-3h6a3 3 0 0 1 3 3v6a2 2 0 0 1-2 2v7a2 2 0 0 1-2 2ZM5 13a.94.94 0 0 0-1 1v6h2v9h4v-9h2v-6a.94.94 0 0 0-1-1ZM8 10a4 4 0 1 1 4-4 4 4 0 0 1-4 4Zm0-6a2 2 0 1 0 2 2 2 2 0 0 0-2-2ZM28.77 4.26A4.22 4.22 0 0 0 23 4a4.22 4.22 0 0 0-5.77.23 4.32 4.32 0 0 0 0 6L23 16.14l5.77-5.84a4.32 4.32 0 0 0 0-6.04Zm-1.43 4.63L23 13.29l-4.34-4.4a2.31 2.31 0 0 1 0-3.23 2.26 2.26 0 0 1 3.15 0L23 6.87l1.18-1.21a2.26 2.26 0 0 1 3.15 0 2.31 2.31 0 0 1 .01 3.23Z"/></svg>