<svg xmlns="http://www.w3.org/2000/svg" viewBox="0 0 32 32" aria-label="phrase sentiment" role="img" fill="currentColor" focusable="false"><path d="M18.3 10a2.63 2.63 0 0 0-1.9.81l-.4.4-.4-.4a2.63 2.63 0 0 0-1.9-.81 2.67 2.67 0 0 0-1.91.81 2.8 2.8 0 0 0 0 3.89L16 19l4.21-4.3a2.8 2.8 0 0 0 0-3.89A2.67 2.67 0 0 0 18.3 10Z"/><path d="M17.74 30 16 29l4-7h6a2 2 0 0 0 2-2V8a2 2 0 0 0-2-2H6a2 2 0 0 0-2 2v12a2 2 0 0 0 2 2h9v2H6a4 4 0 0 1-4-4V8a4 4 0 0 1 4-4h20a4 4 0 0 1 4 4v12a4 4 0 0 1-4 4h-4.84Z"/></svg>