<svg xmlns="http://www.w3.org/2000/svg" id="Icons" viewBox="0 0 32 32" aria-label="piggy bank slot" role="img" fill="currentColor" focusable="false"><defs><style>.cls-1{stroke-width:0px;}</style></defs><path d="M13 11H20V13H13z"/><path d="M29 13h-2.02c-.06-1.6-.78-3.1-1.98-4.15V5a1.003 1.003 0 0 0-1.6-.8L19.67 7H15c-5.51 0-9.46 3.24-9.95 8H5c-.55 0-1-.45-1-1v-2H2v2c0 1.66 1.34 3 3 3h.07A9.18 9.18 0 0 0 9 23.56V27c0 .55.45 1 1 1h4c.55 0 1-.45 1-1v-2h3v2c0 .55.45 1 1 1h4c.55 0 1-.45 1-1v-3.36A5.113 5.113 0 0 0 26.82 20H29c.55 0 1-.45 1-1v-5c0-.55-.45-1-1-1Zm-1 5h-2.88c-.31 2.75-.82 3.49-3.12 4.32V26h-2v-3h-7v3h-2v-3.62A7.011 7.011 0 0 1 7 16c0-4.84 4.02-7 8-7h5.33L23 7v2.78c2.42 1.86 1.91 3.19 2.02 5.22H28v3Z"/></svg>