<svg xmlns="http://www.w3.org/2000/svg" viewBox="0 0 32 32" aria-label="pinterest" role="img" fill="currentColor" focusable="false"><path d="M16 2a14 14 0 0 0-5.1 27 13.58 13.58 0 0 1 0-4c.25-1.1 1.64-7 1.64-7a5 5 0 0 1-.37-2c0-2 1.13-3.41 2.54-3.41a1.76 1.76 0 0 1 1.77 2c0 1.2-.76 3-1.16 4.67a2 2 0 0 0 2.08 2.53c2.49 0 4.4-2.62 4.4-6.41a5.53 5.53 0 0 0-5.86-5.69 6.06 6.06 0 0 0-6.33 6.07 5.48 5.48 0 0 0 1 3.2.41.41 0 0 1 .09.4c-.1.44-.34 1.4-.39 1.59s-.21.31-.47.19C8.12 20.28 7 17.73 7 15.67c0-4.42 3.2-8.48 9.26-8.48 4.85 0 8.64 3.46 8.64 8.1 0 4.83-3.05 8.71-7.27 8.71a3.72 3.72 0 0 1-3.21-1.61l-.87 3.33a15.44 15.44 0 0 1-1.74 3.68A14.17 14.17 0 0 0 16 30a14 14 0 0 0 0-28Z"/></svg>