<svg xmlns="http://www.w3.org/2000/svg" viewBox="0 0 32 32" aria-label="police" role="img" fill="currentColor" focusable="false"><path d="M21 20H7a3 3 0 0 1-3-3V6H2v11a5 5 0 0 0 5 5h14a5 5 0 0 1 2.11.48L17 28.58 18.42 30l6.3-6.31A5 5 0 0 1 26 27v3h2v-3a7 7 0 0 0-7-7Z"/><path d="M10 24H12V30H10z"/><path d="m25.28 4-7-2a1 1 0 0 0-.55 0l-7 2a1 1 0 0 0-.7 1.2l1 3.88V11a7 7 0 0 0 14 0V9.12l1-3.88A1 1 0 0 0 25.28 4ZM18 4l5.8 1.65L23.22 8H19V6h-2v2h-4.22l-.57-2.31Zm0 12a5 5 0 0 1-5-5v-1h10v1a5 5 0 0 1-5 5Z"/></svg>