<svg xmlns="http://www.w3.org/2000/svg" viewBox="0 0 32 32" aria-label="prescribed burn" role="img" fill="currentColor" focusable="false"><path d="M23.5 17a6.32 6.32 0 0 0-1.85.27 15.58 15.58 0 0 0-.82-2.27c-.27-.65-.58-1.38-.88-2.29-.79-2.36 1.73-4.95 1.76-5l-1.42-1.42c-.14.14-3.42 3.48-2.24 7 .33 1 .65 1.75.94 2.43a12.78 12.78 0 0 1 .82 2.36A6.48 6.48 0 0 0 17 23.46a6.1 6.1 0 0 0 .11 1.13 7.31 7.31 0 0 1-1.3.7 8.51 8.51 0 0 0-2.1-8l-1.05-1-.58 1.36c-1.83 4.28-4 6.15-5.3 6.93A5.84 5.84 0 0 1 4 20a9.6 9.6 0 0 1 .93-3.63A11.29 11.29 0 0 0 6 12v-1.78c.87.36 2 1.31 2 3.78v2.6l1.74-1.93C12.86 11.21 12.21 7.1 11 4.36A4.49 4.49 0 0 1 14 9h2c0-5.54-4.58-7-7-7H7l1.2 1.6c.14.18 2.86 3.93 1.35 7.69A4.93 4.93 0 0 0 5 8H4v4a9.6 9.6 0 0 1-.93 3.63A11.47 11.47 0 0 0 2 20c0 3.85 3.82 8 10 8a11.48 11.48 0 0 0 5.78-1.47A6.5 6.5 0 1 0 23.5 17Zm-10 8.94A11.16 11.16 0 0 1 12 26a10.4 10.4 0 0 1-3.16-.47 16.53 16.53 0 0 0 4.36-5.6 6.1 6.1 0 0 1 .26 5.97Zm10 2.06a4.5 4.5 0 1 1 4.5-4.5 4.51 4.51 0 0 1-4.5 4.5Z"/><path d="M22.69 23.96 21.4 22.67 20.25 23.81 22.69 26.25 26.75 22.19 25.6 21.04 22.69 23.96z"/></svg>