<svg xmlns="http://www.w3.org/2000/svg" viewBox="0 0 32 32" aria-label="quadrant plot" role="img" fill="currentColor" focusable="false"><path d="M5 30a3 3 0 1 1 3-3 3 3 0 0 1-3 3Zm0-4a1 1 0 1 0 1 1 1 1 0 0 0-1-1ZM8 8a3 3 0 1 1 3-3 3 3 0 0 1-3 3Zm0-4a1 1 0 1 0 1 1 1 1 0 0 0-1-1ZM22 13a3 3 0 1 1 3-3 3 3 0 0 1-3 3Zm0-4a1 1 0 1 0 1 1 1 1 0 0 0-1-1Z"/><path d="M30 15 17 15 17 2 15 2 15 15 2 15 2 17 15 17 15 30 17 30 17 17 30 17 30 15z"/><circle cx="11" cy="11" r="2"/><circle cx="11" cy="21" r="2"/><circle cx="21" cy="21" r="2"/><circle cx="22" cy="28" r="2"/><circle cx="28" cy="24" r="2"/><circle cx="4" cy="11" r="2"/><circle cx="28" cy="4" r="2"/></svg>