<svg xmlns="http://www.w3.org/2000/svg" viewBox="0 0 32 32" aria-label="queued" role="img" fill="currentColor" focusable="false"><path d="M18 20H20V22H18z"/><path d="M18 24H20V26H18z"/><path d="M18 28H20V30H18z"/><path d="M22 20H30V22H22z"/><path d="M22 24H30V26H22z"/><path d="M22 28H30V30H22z"/><path d="M6.82 8.29A11.91 11.91 0 0 1 10 5.62L9 3.89A14 14 0 0 0 5.28 7ZM25.19 8.29 26.72 7A14 14 0 0 0 23 3.89l-1 1.73a12.12 12.12 0 0 1 3.19 2.67ZM4.74 11.9l-1.88-.68A13.78 13.78 0 0 0 2 16h2a11.88 11.88 0 0 1 .74-4.1ZM6.82 23.71a11.7 11.7 0 0 1-2.08-3.61l-1.88.68A13.88 13.88 0 0 0 5.28 25ZM27.26 11.9A11.88 11.88 0 0 1 28 16h2a13.78 13.78 0 0 0-.86-4.78ZM13.92 27.81A12 12 0 0 1 10 26.38l-1 1.73a13.56 13.56 0 0 0 4.56 1.66ZM13.92 4.19a11.48 11.48 0 0 1 4.16 0l.35-2A13.9 13.9 0 0 0 16 2a13.9 13.9 0 0 0-2.43.23Z"/></svg>