<svg xmlns="http://www.w3.org/2000/svg" viewBox="0 0 32 32" aria-label="rabbit" role="img" fill="currentColor" focusable="false"><path d="m29.2 9-4.52-.9-2.79-5.55a1 1 0 0 0-.73-.55 1 1 0 0 0-.87.28l-2 2a3 3 0 0 0-.56 3.49L18.88 10l-1.5 3H11a7.45 7.45 0 0 0-1.06.09 3.8 3.8 0 0 0 .06-.59 3.5 3.5 0 1 0-4.59 3.31A7 7 0 0 0 4 20v2H3a1 1 0 0 0-1 1v7h2v-6h1a1 1 0 0 0 1-1v-3a5 5 0 0 1 5-5h7a1 1 0 0 0 .89-.55l2-4a1 1 0 0 0 0-.9l-1.34-2.69a1 1 0 0 1 .19-1.18l1-1 2.38 4.76a1 1 0 0 0 .69.53l4.2.84V13a1 1 0 0 1-.33.74l-3.08 1.34a1 1 0 0 0-.53.55l-2 5A.94.94 0 0 0 22 21v3a1 1 0 0 0 1 1h5v-2h-4v-1.81l1.78-4.44 2.82-1.23a.82.82 0 0 0 .2-.12A3 3 0 0 0 30 13v-3a1 1 0 0 0-.8-1ZM6.5 11A1.5 1.5 0 1 1 5 12.5 1.5 1.5 0 0 1 6.5 11Z"/><path d="M20 23a1 1 0 0 0-1-1h-7a1 1 0 0 0-.8.4A4 4 0 0 1 8 24a1 1 0 0 0-1 1v5h2v-4.08A5.89 5.89 0 0 0 12.47 24H18v3a1 1 0 0 0 .55.89l4 2 .9-1.78L20 26.38Z"/><circle cx="23" cy="12" r="1"/></svg>