<svg xmlns="http://www.w3.org/2000/svg" viewBox="0 0 32 32" aria-label="rain scattered night" role="img" fill="currentColor" focusable="false"><path d="M8.51 32a.93.93 0 0 1-.45-.11 1 1 0 0 1-.45-1.34l1.5-3a1 1 0 1 1 1.79.9l-1.49 3a1 1 0 0 1-.9.55ZM29.85 13a1.53 1.53 0 0 0-1.24-.86 5.31 5.31 0 0 1-3.4-1.72 6.45 6.45 0 0 1-1.29-6.39 1.62 1.62 0 0 0-.3-1.55A1.46 1.46 0 0 0 22.26 2a7.86 7.86 0 0 0-6.1 6.48 7.44 7.44 0 0 0-9.79 4.74A6 6 0 0 0 8 25h7.38l-1.27 2.55a1 1 0 0 0 .44 1.35 1 1 0 0 0 .45.1 1 1 0 0 0 .9-.55L17.62 25H19a6 6 0 0 0 6-6 6.32 6.32 0 0 0-.12-1.15 7.46 7.46 0 0 0 4.87-3.3 1.55 1.55 0 0 0 .1-1.55ZM19 23H8a4 4 0 0 1-.67-7.93L8 15l.15-.66a5.5 5.5 0 0 1 10.73 0L19 15l.66.11A4 4 0 0 1 19 23Zm5.15-7a6 6 0 0 0-3.5-2.71A7.49 7.49 0 0 0 18 9.55a6 6 0 0 1 3.8-5.33 8.47 8.47 0 0 0 1.94 7.59 7.39 7.39 0 0 0 3.9 2.19 5.43 5.43 0 0 1-3.49 2Z"/></svg>