<svg xmlns="http://www.w3.org/2000/svg" viewBox="0 0 32 32" aria-label="rain scattered" role="img" fill="currentColor" focusable="false"><path d="M8.56 32a.91.91 0 0 1-.45-.11 1 1 0 0 1-.45-1.34l1.49-3a1 1 0 0 1 1.35-.44 1 1 0 0 1 .5 1.34l-1.5 3a1 1 0 0 1-.94.55Z"/><path d="M27.28 15.73H29.28V18.73H27.28z" transform="rotate(-45.01 28.28 17.232)"/><path d="M29.05 10H32.05V12H29.05z"/><path d="M26.78 3.77H29.78V5.77H26.78z" transform="rotate(-45 28.275 4.768)"/><path d="M20.05 0H22.05V3H20.05z"/><path d="M12.82 3.27H14.82V6.27H12.82z" transform="rotate(-45 13.823 4.764)"/><path d="M27.05 11a6 6 0 0 0-11.37-2.67A7.19 7.19 0 0 0 13.55 8a7.55 7.55 0 0 0-7.15 5.24A6 6 0 0 0 8.05 25h7.38l-1.27 2.55a1 1 0 0 0 .44 1.34.93.93 0 0 0 .45.11 1 1 0 0 0 .89-.55L17.67 25h1.38a6 6 0 0 0 5.22-8.95A6 6 0 0 0 27.05 11Zm-8 12h-11a4 4 0 0 1-.67-7.93L8 15l.14-.66a5.5 5.5 0 0 1 10.73 0l.15.66.66.11a4 4 0 0 1-.63 7.89ZM23 14.49a6.11 6.11 0 0 0-2.28-1.25 7.52 7.52 0 0 0-3.19-4.06A4 4 0 1 1 23 14.49Z"/></svg>