<svg xmlns="http://www.w3.org/2000/svg" viewBox="0 0 32 32" aria-label="rain drizzle" role="img" fill="currentColor" focusable="false"><path d="M11.05 30a.93.93 0 0 1-.45-.11 1 1 0 0 1-.44-1.34l2-4a1 1 0 0 1 1.78.9l-2 4a1 1 0 0 1-.89.55Z"/><path d="M24.85 9.14a9 9 0 0 0-17.6 0A6.5 6.5 0 0 0 8.55 22h10.88l-1.27 2.55a1 1 0 0 0 .44 1.34.93.93 0 0 0 .45.11 1 1 0 0 0 .89-.55L21.67 22h1.88a6.5 6.5 0 0 0 1.3-12.86ZM23.55 20h-15a4.5 4.5 0 0 1-.36-9H9l.1-.82a7 7 0 0 1 13.88 0l.1.82.82.06a4.5 4.5 0 0 1-.36 9Z"/></svg>