<svg xmlns="http://www.w3.org/2000/svg" viewBox="0 0 32 32" aria-label="rain" role="img" fill="currentColor" focusable="false"><path d="M23.5 22h-15A6.5 6.5 0 0 1 7.2 9.14a9 9 0 0 1 17.6 0A6.5 6.5 0 0 1 23.5 22ZM16 4a7 7 0 0 0-6.94 6.14L9 11h-.86a4.5 4.5 0 0 0 .36 9h15a4.5 4.5 0 0 0 .36-9H23l-.1-.82A7 7 0 0 0 16 4ZM14 30a.93.93 0 0 1-.45-.11 1 1 0 0 1-.44-1.34l2-4a1 1 0 0 1 1.34-.44 1 1 0 0 1 .45 1.34l-2 4a1 1 0 0 1-.9.55ZM20 30a.93.93 0 0 1-.45-.11 1 1 0 0 1-.44-1.34l2-4a1 1 0 0 1 1.34-.44 1 1 0 0 1 .45 1.34l-2 4a1 1 0 0 1-.9.55ZM8 30a.93.93 0 0 1-.45-.11 1 1 0 0 1-.44-1.34l2-4a1 1 0 0 1 1.34-.44 1 1 0 0 1 .45 1.34l-2 4A1 1 0 0 1 8 30Z"/></svg>