<svg xmlns="http://www.w3.org/2000/svg" viewBox="0 0 32 32" aria-label="rain heavy" role="img" fill="currentColor" focusable="false"><path d="M17.05 30a.93.93 0 0 1-.45-.11 1 1 0 0 1-.44-1.34l2-4a1 1 0 1 1 1.78.9l-2 4a1 1 0 0 1-.89.55ZM8.05 30a.93.93 0 0 1-.45-.11 1 1 0 0 1-.44-1.34l2-4a1 1 0 1 1 1.78.9l-2 4a1 1 0 0 1-.89.55Z"/><path d="M30.05 15.5a6.52 6.52 0 0 0-5.2-6.36 9 9 0 0 0-17.6 0 6.49 6.49 0 0 0-1.5 12.22l-1.59 3.19a1 1 0 0 0 .44 1.34.93.93 0 0 0 .45.11 1 1 0 0 0 .9-.55L7.67 22h6.76l-1.27 2.55a1 1 0 0 0 .44 1.34.93.93 0 0 0 .45.11 1 1 0 0 0 .9-.55L16.67 22h6.76l-1.27 2.55a1 1 0 0 0 .44 1.34.93.93 0 0 0 .45.11 1 1 0 0 0 .9-.55l1.94-3.89a6.51 6.51 0 0 0 4.16-6.06Zm-6.5 4.5h-15a4.5 4.5 0 0 1-.36-9H9l.1-.82a7 7 0 0 1 13.88 0l.1.82.82.06a4.5 4.5 0 0 1-.36 9Z"/></svg>