<svg xmlns="http://www.w3.org/2000/svg" viewBox="0 0 32 32" aria-label="receipt" role="img" fill="currentColor" focusable="false"><path d="M21 16H23V18H21z"/><path d="M9 16H17V18H9z"/><path d="M21 12H23V14H21z"/><path d="M9 12H17V14H9z"/><path d="M9 8H23V10H9z"/><path d="M25 2H7a2 2 0 0 0-2 2v25a1 1 0 0 0 1 1h1a1 1 0 0 0 .8-.4l2.2-2.93 2.2 2.93a1 1 0 0 0 1.6 0l2.2-2.93 2.2 2.93a1 1 0 0 0 1.6 0l2.2-2.93 2.2 2.93a1 1 0 0 0 .8.4h1a1 1 0 0 0 1-1V4a2 2 0 0 0-2-2Zm0 25.33-2.2-2.93a1 1 0 0 0-1.6 0L19 27.33l-2.2-2.93a1 1 0 0 0-1.6 0L13 27.33l-2.2-2.93a1 1 0 0 0-1.6 0L7 27.33V4h18Z"/></svg>