<svg xmlns="http://www.w3.org/2000/svg" viewBox="0 0 32 32" aria-label="recreational vehicle" role="img" fill="currentColor" focusable="false"><path d="M31 23h-3V13a7 7 0 0 0-7-7H9a7 7 0 0 0-7 7v7a5 5 0 0 0 5 5h4.14a4 4 0 0 0 7.72 0H31Zm-16 3a2 2 0 1 1 2-2 2 2 0 0 1-2 2Zm11-3h-7.14a4 4 0 0 0-7.72 0H7a3 3 0 0 1-3-3v-7a5 5 0 0 1 5-5h12a5 5 0 0 1 5 5Z"/><path d="M15 11H7a1 1 0 0 0-1 1v4a1 1 0 0 0 1 1h8a1 1 0 0 0 1-1v-4a1 1 0 0 0-1-1Zm-1 4H8v-2h6ZM23 11h-4a1 1 0 0 0-1 1v4a1 1 0 0 0 1 1h4a1 1 0 0 0 1-1v-4a1 1 0 0 0-1-1Zm-1 4h-2v-2h2Z"/></svg>