<svg xmlns="http://www.w3.org/2000/svg" viewBox="0 0 32 32" aria-label="recycle" role="img" fill="currentColor" focusable="false"><defs><style>.cls-1{fill:none;}</style></defs><g id="Icons"><path d="M15.87 4.11a1.57 1.57 0 0 1 1.38.8l4.23 7.33-2.48-.67-.55 2 6 1.61 1.61-6-2-.55-.67 2.49-4.31-7.27a3.7 3.7 0 0 0-6.41 0L10 8.51l1.8 1.06 2.7-4.66a1.56 1.56 0 0 1 1.37-.8ZM4 12.42l.55 2L7 13.79l-4.22 7.33A3.7 3.7 0 0 0 6 26.67h5.37v-2.11H6a1.59 1.59 0 0 1-1.38-2.38l4.23-7.33.68 2.5 2-.54-1.61-6Zm4.49 1ZM29.22 21.12l-2.69-4.66-1.83 1.05 2.69 4.67A1.59 1.59 0 0 1 26 24.56h-8.46l1.83-1.83-1.49-1.5-4.39 4.39L17.88 30l1.49-1.49-1.84-1.84H26a3.7 3.7 0 0 0 3.21-5.55Zm-12.74 4.5Z"/></g></svg>