<svg xmlns="http://www.w3.org/2000/svg" viewBox="0 0 32 32" aria-label="region analysis volume" role="img" fill="currentColor" focusable="false"><path d="M4.83 20.36A25 25 0 0 0 15 23v-2a22.8 22.8 0 0 1-10.87-3.31A13.3 13.3 0 0 1 4 16a13.3 13.3 0 0 1 .13-1.69 22.94 22.94 0 0 1 23.74 0A11.68 11.68 0 0 1 28 16h2a14 14 0 1 0-14 14v-2a12 12 0 0 1-11.17-7.64ZM16 4a12 12 0 0 1 11.17 7.65 24.87 24.87 0 0 0-22.34 0A12 12 0 0 1 16 4Z"/><path d="M30 23v-2h-2v-2h-2v2h-3v-2h-2v2h-2v2h2v3h-2v2h2v2h2v-2h3v2h2v-2h2v-2h-2v-3Zm-4 3h-3v-3h3Z"/></svg>