<svg xmlns="http://www.w3.org/2000/svg" viewBox="0 0 32 32" aria-label="reimbursement" role="img" fill="currentColor" focusable="false"><defs><style>.cls-1{fill:none;}</style></defs><g id="Icons"><circle cx="20.54" cy="8.24" r="1.14"/><circle cx="11.45" cy="8.24" r="1.14"/><path d="M16 10.51a2.27 2.27 0 1 1 2.28-2.27A2.27 2.27 0 0 1 16 10.51Zm0-3.4a1.14 1.14 0 1 0 1.14 1.13A1.14 1.14 0 0 0 16 7.11Z"/><path d="M23.17 4.66v7.17H8.82V4.66h14.35m0-2H8.82a2 2 0 0 0-2 2v7.17a2 2 0 0 0 2 2h14.35a2 2 0 0 0 2-2V4.66a2 2 0 0 0-2-2ZM29.69 17.93A2.56 2.56 0 0 0 27 16.62l-5.22.93a2.38 2.38 0 0 0-2.46-1.31l-2.64.37a4.35 4.35 0 0 1-1.93-.17 6 6 0 0 0-4.72.4l-3.18 1.69-.58-1L2 20.11l5.5 9.23 4.28-2.54-.88-1.47 1.1-.49a1.41 1.41 0 0 1 .65 0l4.1.62a3.35 3.35 0 0 0 1.63-.17l9.81-3.68a2.58 2.58 0 0 0 1.49-3.68ZM8.11 27 4.4 20.72 5.67 20l3.71 6.23Zm20.08-7.48a.9.9 0 0 1-.56.49l-9.86 3.69a1.48 1.48 0 0 1-.75.08l-4.1-.62a3 3 0 0 0-1.62.13l-1.3.58L7.75 20l3.08-1.65a4.27 4.27 0 0 1 3.34-.28 6 6 0 0 0 2.72.24l2.65-.31a.62.62 0 0 1 .67.43.6.6 0 0 1-.05.5.62.62 0 0 1-.42.29l-3.69 1.15.52 1.63 3.55-1.11a2.38 2.38 0 0 0 1.54-1.1 3.06 3.06 0 0 0 .22-.49l5.4-1a.83.83 0 0 1 .87.42.85.85 0 0 1 .04.75Z"/></g></svg>