<svg xmlns="http://www.w3.org/2000/svg" viewBox="0 0 32 32" aria-label="rotate 180" role="img" fill="currentColor" focusable="false"><path d="m14.09 26.82-.34 2a12.82 12.82 0 0 1-4.24-1.54l1-1.73a10.88 10.88 0 0 0 3.58 1.27ZM7.58 23.07l-1.53 1.28a12.79 12.79 0 0 1-2.25-3.91l1.87-.68a11 11 0 0 0 1.91 3.31ZM22.5 27.25a12.9 12.9 0 0 1-4.24 1.54l-.35-2a10.88 10.88 0 0 0 3.59-1.3ZM26.33 19.76l1.88.68A13.21 13.21 0 0 1 26 24.35l-.32-.26-1.22-1a11 11 0 0 0 1.91-3.31ZM13.66 5.26c-.16 0-.31.08-.47.12l-.63.18c-.17.05-.33.12-.49.18L11.5 6l-.5.2-.52.29c-.15.09-.31.18-.45.28a5.5 5.5 0 0 0-.5.34c-.14.1-.28.2-.41.31s-.32.27-.47.41-.25.21-.37.33-.32.34-.48.51A10.93 10.93 0 0 0 5 16H3a12.93 12.93 0 0 1 3.05-8.35c.09-.11.19-.21.29-.32s.37-.41.56-.6l.43-.39c.18-.16.37-.33.56-.48l.49-.37c.19-.14.38-.28.58-.41l.54-.32c.2-.12.41-.23.62-.34l.56-.27.68-.28.57-.21q.38-.12.75-.21c.19-.05.37-.11.56-.15s.58-.1.88-.15l.48-.07A12.91 12.91 0 0 1 26 7.7V4h2v8h-8v-2h5.19A11 11 0 0 0 16 5a9.39 9.39 0 0 0-1.19.07l-.4.06c-.25.04-.5.07-.75.13Z"/></svg>