<svg xmlns="http://www.w3.org/2000/svg" viewBox="0 0 32 32" aria-label="rotate 360" role="img" fill="currentColor" focusable="false"><path d="m26 7.65-.3-.32c-.18-.2-.36-.41-.56-.6l-.43-.39c-.18-.16-.37-.33-.56-.48l-.49-.37c-.19-.14-.38-.28-.58-.41l-.54-.32c-.2-.12-.41-.23-.62-.34l-.56-.27-.68-.28-.57-.21q-.37-.12-.75-.21c-.19-.05-.37-.11-.56-.15s-.58-.1-.88-.15l-.47-.07A13.18 13.18 0 0 0 16 3 13 13 0 0 0 6 7.7V4H4v8h8v-2H6.81A11 11 0 0 1 16 5a9.39 9.39 0 0 1 1.19.07c.14 0 .27 0 .4.06s.5.07.75.13.31.08.47.12a6.52 6.52 0 0 1 .63.18c.17.05.33.12.49.18l.57.26.5.2.52.29.46.28c.16.1.33.22.49.34s.28.2.41.31.32.27.47.41.25.21.37.33.32.34.48.51A11 11 0 1 1 5 16H3a13 13 0 1 0 23-8.35Z"/></svg>