<svg xmlns="http://www.w3.org/2000/svg" viewBox="0 0 32 32" aria-label="sankey diagram" role="img" fill="currentColor" focusable="false"><path d="M28 2v6.06c-2 .2-6.32 1.23-10.56 6.27-.2-.27-.4-.54-.59-.85C12 5.69 6.32 4.29 4 4.06V2H2v28h2v-4a14.83 14.83 0 0 0 9.92-4c4.55 5.37 11.32 5.95 14 5.95H28v2h2V2Zm0 8.06v10a12.89 12.89 0 0 1-9.28-4.13c3.78-4.65 7.57-5.66 9.28-5.86Zm-12.85 4.48c.33.52.66 1 1 1.45-.34.47-.68 1-1 1.5a16.84 16.84 0 0 1-1 1.45l-.25-.41C9.33 10.35 5.79 8.46 4 8.08v-2c2 .22 6.82 1.54 11.15 8.46ZM4 24.06v-13.9c1.33.46 4.2 2.28 8.13 9.34.19.34.39.65.6 1A12.92 12.92 0 0 1 4 24.06Zm11.32-3.42a17.65 17.65 0 0 0 1.53-2.09c.22-.36.44-.67.67-1A14.87 14.87 0 0 0 28 22.06v4c-2.33-.06-8.63-.54-12.68-5.42Z"/></svg>