<svg xmlns="http://www.w3.org/2000/svg" viewBox="0 0 32 32" aria-label="scalpel select" role="img" fill="currentColor" focusable="false"><path d="M28.83 7.17a4.1 4.1 0 0 0-5.66 0L.34 30h9.25a5 5 0 0 0 3.54-1.46l15.7-15.71a4 4 0 0 0 0-5.66ZM12.29 20.88l2.09-2.09 2.83 2.83-2.09 2.09Zm-.58 6.24a3 3 0 0 1-2.12.88H5.17l5.71-5.71 2.83 2.83Zm15.7-15.71-8.79 8.8-2.83-2.83 8.8-8.79a2 2 0 0 1 2.82 0 2 2 0 0 1 0 2.82ZM15 2a3 3 0 0 0-2.82 2H7.82A3 3 0 1 0 4 7.82v4.36a3 3 0 1 0 2 0V7.82A3 3 0 0 0 7.82 6h4.36A3 3 0 1 0 15 2ZM5 16a1 1 0 1 1 1-1 1 1 0 0 1-1 1ZM5 6a1 1 0 1 1 1-1 1 1 0 0 1-1 1Zm10 0a1 1 0 1 1 1-1 1 1 0 0 1-1 1Z"/></svg>