<svg xmlns="http://www.w3.org/2000/svg" viewBox="0 0 32 32" aria-label="scalpel lasso" role="img" fill="currentColor" focusable="false"><path d="M28.83 7.13a4.1 4.1 0 0 0-5.66 0L.34 30h9.25a5 5 0 0 0 3.54-1.46l15.7-15.71a4 4 0 0 0 0-5.66ZM12.29 20.84l2.09-2.09 2.83 2.83-2.09 2.09Zm-.58 6.24a3 3 0 0 1-2.12.92H5.17l5.71-5.71 2.83 2.83Zm15.7-15.7-8.79 8.79-2.83-2.83 8.8-8.79a2 2 0 0 1 2.82 0 2 2 0 0 1 0 2.83ZM11 2H7a5 5 0 0 0-3.86 8.15A3 3 0 0 0 3 11a3 3 0 0 0 2 2.82V14a2 2 0 0 1-2 2H2v2h1a4 4 0 0 0 4-4v-.18A3 3 0 0 0 8.82 12H11a5 5 0 0 0 0-10ZM6 12a1 1 0 1 1 1-1 1 1 0 0 1-1 1Zm5-2H8.82A3 3 0 0 0 6 8a3.06 3.06 0 0 0-1.61.47A3 3 0 0 1 7 4h4a3 3 0 0 1 0 6Z"/></svg>