<svg xmlns="http://www.w3.org/2000/svg" viewBox="0 0 32 32" aria-label="scooter" role="img" fill="currentColor" focusable="false"><path d="M24 8h-6v2h6a1 1 0 0 1 0 2h-3a1 1 0 0 0-.77.37 1 1 0 0 0-.21.83l.98 4.62L18.44 22h-2.69l-2.58-8.58A2 2 0 0 0 11.26 12H6v2h5.26l.6 2H7a5 5 0 0 0-5 5v2a1 1 0 0 0 1 1h1a4 4 0 0 0 8 0h7a1 1 0 0 0 .86-.49l3-5a1 1 0 0 0 .14-.71l-.78-3.8H24a3 3 0 0 0 0-6ZM8 26a2 2 0 0 1-2-2h4a2 2 0 0 1-2 2Zm-4-4v-1a3 3 0 0 1 3-3h5.46l1.2 4ZM26 28a4 4 0 1 1 4-4 4 4 0 0 1-4 4Zm0-6a2 2 0 1 0 2 2 2 2 0 0 0-2-2Z"/></svg>