<svg xmlns="http://www.w3.org/2000/svg" viewBox="0 0 32 32" aria-label="script reference" role="img" fill="currentColor" focusable="false"><path d="M18.83 26 21.41 23.42 20 22 16 26 20 30 21.42 28.59 18.83 26z"/><path d="M27.17 26 24.59 28.58 26 30 30 26 26 22 24.58 23.41 27.17 26z"/><path d="M4 20 4 22 8.59 22 2 28.59 3.41 30 10 23.41 10 28 12 28 12 20 4 20z"/><path d="m25.7 9.3-7-7A.91.91 0 0 0 18 2H8a2 2 0 0 0-2 2v12h2V4h8v6a2 2 0 0 0 2 2h6v6h2v-8a.91.91 0 0 0-.3-.7ZM18 10V4.4l5.6 5.6Z"/></svg>