<svg xmlns="http://www.w3.org/2000/svg" viewBox="0 0 32 32" aria-label="sell car" role="img" fill="currentColor" focusable="false"><path d="m28.34 19.93-7.73-2.78-3.24-4A3 3 0 0 0 15.05 12h-8a3 3 0 0 0-2.48 1.31l-2.71 4a5 5 0 0 0-.86 2.8V26a1 1 0 0 0 1 1h2.14a4 4 0 0 0 7.72 0h6.28a4 4 0 0 0 7.72 0H28a1 1 0 0 0 1-1v-5.13a1 1 0 0 0-.66-.94ZM8 28a2 2 0 1 1 2-2 2 2 0 0 1-2 2Zm14 0a2 2 0 1 1 2-2 2 2 0 0 1-2 2Zm5-3h-1.14a4 4 0 0 0-7.72 0h-6.28a4 4 0 0 0-7.72 0H3v-4.89a3 3 0 0 1 .52-1.69l2.71-4a1 1 0 0 1 .83-.42h8a1 1 0 0 1 .77.35l3.4 4.27a.93.93 0 0 0 .44.32L27 21.58Z"/><path d="M23 2.31A2 2 0 0 0 21.94 2h-4.52a2 2 0 0 0-2 2 1.37 1.37 0 0 0 0 .28L16 8.77a2 2 0 0 0 .64 1.23l4.21 3.71L22.34 15l1.5 1.32a2 2 0 0 0 2.82-.18l4-4.5a2 2 0 0 0 0-2.61Zm2.17 12.54L18 8.51 17.4 4h4.53l7.21 6.35Z"/><circle cx="20.4" cy="6.65" r="1"/></svg>