<svg xmlns="http://www.w3.org/2000/svg" viewBox="0 0 32 32" aria-label="sergeant" role="img" fill="currentColor" focusable="false"><path d="M27.33 17.6A38 38 0 0 1 16.93 4L16 2l-.93 2a37.91 37.91 0 0 1-10.4 13.59v2.61a41 41 0 0 0 6.18-5.82A40.1 40.1 0 0 0 16 6.79a40.1 40.1 0 0 0 5.15 7.59 41 41 0 0 0 6.18 5.82Z"/><path d="M27.33 22.73A42 42 0 0 1 21.76 18a41.84 41.84 0 0 1-4.92-5.9L16 10.92l-.84 1.22A41.84 41.84 0 0 1 10.24 18a42 42 0 0 1-5.57 4.69v2.51a44.45 44.45 0 0 0 7-5.72 44.41 44.41 0 0 0 4.31-5 44.41 44.41 0 0 0 4.31 5 44.45 44.45 0 0 0 7 5.72Z"/><path d="M27.33 27.62a46 46 0 0 1-8.46-6.69c-.72-.72-1.43-1.48-2.1-2.25l-.77-.87-.77.87c-.67.77-1.38 1.53-2.1 2.25a46 46 0 0 1-8.46 6.69V30a48.25 48.25 0 0 0 9.91-7.63c.48-.48.95-1 1.42-1.49.47.51.94 1 1.42 1.49A48.25 48.25 0 0 0 27.33 30Z"/></svg>