<svg xmlns="http://www.w3.org/2000/svg" viewBox="0 0 32 32" aria-label="share knowledge" role="img" fill="currentColor" focusable="false"><path d="M27 25h-6a3 3 0 0 0-3 3v2h2v-2a1 1 0 0 1 1-1h6a1 1 0 0 1 1 1v2h2v-2a3 3 0 0 0-3-3ZM20 20a4 4 0 1 0 4-4 4 4 0 0 0-4 4Zm6 0a2 2 0 1 1-2-2 2 2 0 0 1 2 2ZM6 21v-1H4v1a7 7 0 0 0 7 7h3v-2h-3a5 5 0 0 1-5-5Z"/><path d="M19 10H26V12H19z"/><path d="M19 6H29V8H19z"/><path d="M19 2H29V4H19z"/><path d="M11 11H5a3 3 0 0 0-3 3v2h2v-2a1 1 0 0 1 1-1h6a1 1 0 0 1 1 1v2h2v-2a3 3 0 0 0-3-3ZM8 10a4 4 0 1 0-4-4 4 4 0 0 0 4 4Zm0-6a2 2 0 1 1-2 2 2 2 0 0 1 2-2Z"/></svg>