<svg xmlns="http://www.w3.org/2000/svg" viewBox="0 0 32 32" aria-label="shovel" role="img" fill="currentColor" focusable="false"><path d="m27 18.5-3.16-3.17a1 1 0 0 0-1.42 0l-2.87 2.88L10 8.63a5 5 0 0 0-.64-6.3 1 1 0 0 0-1.36 0L2.29 8a1 1 0 0 0-.29.7 1 1 0 0 0 .29.7 5 5 0 0 0 6.3.64l9.58 9.58-2.88 2.87a1.05 1.05 0 0 0-.29.71 1 1 0 0 0 .29.71l3.19 3.17a10.09 10.09 0 0 0 7.13 3 10.39 10.39 0 0 0 3.23-.52 1 1 0 0 0 .64-.63A10.08 10.08 0 0 0 27 18.5ZM4.53 8.58l4-4A3 3 0 0 1 8 8a3.07 3.07 0 0 1-3.47.58Zm23.2 19.18a8.11 8.11 0 0 1-7.84-2.1l-2.47-2.46 2.16-2.2 3.71 3.71 1.42-1.42L21 19.62l2.17-2.16 2.46 2.45a8.11 8.11 0 0 1 2.1 7.85Z"/></svg>