<svg xmlns="http://www.w3.org/2000/svg" viewBox="0 0 32 32" aria-label="sleet" role="img" fill="currentColor" focusable="false"><path d="M6 24.01H8V26.01H6z"/><path d="M8 26.01H10V28.01H8z"/><path d="M10 28.01H12V30.01H10z"/><path d="M10 24.01H12V26.01H10z"/><path d="M6 28.01H8V30.01H6z"/><path d="M21 30a.93.93 0 0 1-.45-.11 1 1 0 0 1-.44-1.34l2-4a1 1 0 0 1 1.78.9l-2 4A1 1 0 0 1 21 30ZM24.8 9.15a9 9 0 0 0-17.6 0A6.5 6.5 0 0 0 8.5 22h8.88l-1.27 2.55a1 1 0 0 0 .44 1.34.93.93 0 0 0 .45.11 1 1 0 0 0 .89-.55L19.62 22h3.88a6.5 6.5 0 0 0 1.3-12.85ZM23.5 20h-15a4.5 4.5 0 0 1-.36-9H9l.1-.82a7 7 0 0 1 13.88 0L23 11l.82.06a4.5 4.5 0 0 1-.36 9Z"/></svg>