<svg xmlns="http://www.w3.org/2000/svg" viewBox="0 0 32 32" aria-label="smoke" role="img" fill="currentColor" focusable="false"><path d="M7.05 28a1 1 0 0 1-.8-.4l-.81-1.09a9 9 0 0 1-1.61-7.28l1.48-6.88a7 7 0 0 0-1.25-5.66L3.25 5.6a1 1 0 0 1 1.6-1.2l.81 1.09a8.94 8.94 0 0 1 1.6 7.28l-1.47 6.88A7 7 0 0 0 7 25.31l.81 1.09a1 1 0 0 1-.2 1.4 1 1 0 0 1-.56.2ZM12.05 28a1 1 0 0 1-.8-.4l-.81-1.09a9 9 0 0 1-1.61-7.28l1.48-6.88a7 7 0 0 0-1.25-5.66L8.25 5.6a1 1 0 0 1 1.6-1.2l.81 1.09a8.94 8.94 0 0 1 1.6 7.28l-1.47 6.88A7 7 0 0 0 12 25.31l.81 1.09a1 1 0 0 1-.2 1.4 1 1 0 0 1-.56.2ZM17.05 28a1 1 0 0 1-.8-.4l-.81-1.09a9 9 0 0 1-1.61-7.28l1.48-6.88a7 7 0 0 0-1.25-5.66l-.81-1.09a1 1 0 1 1 1.6-1.2l.81 1.09a8.94 8.94 0 0 1 1.6 7.28l-1.47 6.88A7 7 0 0 0 17 25.31l.81 1.09a1 1 0 0 1-.2 1.4 1 1 0 0 1-.56.2ZM22.05 28a1 1 0 0 1-.8-.4l-.81-1.09a9 9 0 0 1-1.61-7.28l1.48-6.88a7 7 0 0 0-1.25-5.66l-.81-1.09a1 1 0 0 1 1.6-1.2l.81 1.09a8.94 8.94 0 0 1 1.6 7.28l-1.47 6.88A7 7 0 0 0 22 25.31l.81 1.09a1 1 0 0 1-.2 1.4 1 1 0 0 1-.56.2ZM27.05 28a1 1 0 0 1-.8-.4l-.81-1.09a9 9 0 0 1-1.61-7.28l1.48-6.88a7 7 0 0 0-1.25-5.66l-.81-1.09a1 1 0 0 1 1.6-1.2l.81 1.09a8.94 8.94 0 0 1 1.6 7.28l-1.47 6.88A7 7 0 0 0 27 25.31l.81 1.09a1 1 0 0 1-.2 1.4 1 1 0 0 1-.56.2Z"/></svg>