<svg xmlns="http://www.w3.org/2000/svg" viewBox="0 0 32 32" aria-label="snapchat" role="img" fill="currentColor" focusable="false"><path d="M26.43 2H5.57A3.57 3.57 0 0 0 2 5.57v20.86A3.57 3.57 0 0 0 5.57 30h20.86A3.57 3.57 0 0 0 30 26.41V5.57A3.57 3.57 0 0 0 26.43 2ZM25.3 21.64c-.56.19-1.11.4-1.67.56a.75.75 0 0 0-.57.58c0 .15-.08.29-.13.43a.45.45 0 0 1-.51.33c-.37 0-.74-.09-1.12-.12A3.71 3.71 0 0 0 19 24c-.51.32-1 .65-1.52.91a3.45 3.45 0 0 1-3.27-.1 7.63 7.63 0 0 1-1-.61 4 4 0 0 0-3.36-.7 1.12 1.12 0 0 1-.32 0 .46.46 0 0 1-.52-.34 4 4 0 0 1-.14-.46.69.69 0 0 0-.56-.54c-.52-.15-1-.32-1.57-.49a.87.87 0 0 1-.56-.67.3.3 0 0 1 .08-.24 1.75 1.75 0 0 1 .52-.28 5.56 5.56 0 0 0 3.41-2.92 5.69 5.69 0 0 0 .26-.56.51.51 0 0 0-.21-.7 4.79 4.79 0 0 0-.67-.3 10.1 10.1 0 0 1-1.09-.55.67.67 0 0 1 0-1.17 1.09 1.09 0 0 1 1-.12l.64.2c.42.12.58 0 .58-.44v-1.33a7.37 7.37 0 0 1 .2-2.56 4.34 4.34 0 0 1 2.28-2.61 6.08 6.08 0 0 1 3.07-.7 5.18 5.18 0 0 1 4.7 2.91 5 5 0 0 1 .46 2.25c0 .67-.05 1.35-.09 2a1.93 1.93 0 0 0 0 .24.24.24 0 0 0 .3.24 3.3 3.3 0 0 0 .52-.13 1.88 1.88 0 0 1 1.28 0 .6.6 0 0 1 .17 1.08 4.72 4.72 0 0 1-.82.47c-.3.14-.62.25-.92.4a.59.59 0 0 0-.33.87A5.58 5.58 0 0 0 25 20.48a6.5 6.5 0 0 1 .61.25.27.27 0 0 1 .13.33.71.71 0 0 1-.44.58Z"/></svg>