<svg xmlns="http://www.w3.org/2000/svg" viewBox="0 0 32 32" aria-label="snow scattered" role="img" fill="currentColor" focusable="false"><path d="M2.05 26.01H4.05V28.01H2.05z"/><path d="M4.05 28.01H6.05V30.01H4.05z"/><path d="M6.05 30.01H8.05V32.010000000000005H6.05z"/><path d="M6.05 26.01H8.05V28.01H6.05z"/><path d="M2.05 30.01H4.05V32.010000000000005H2.05z"/><path d="M20.05 26.01H22.05V28.01H20.05z"/><path d="M22.05 28.01H24.05V30.01H22.05z"/><path d="M24.05 30.01H26.05V32.010000000000005H24.05z"/><path d="M24.05 26.01H26.05V28.01H24.05z"/><path d="M20.05 30.01H22.05V32.010000000000005H20.05z"/><path d="M11.05 26.01H13.05V28.01H11.05z"/><path d="M13.05 28.01H15.05V30.01H13.05z"/><path d="M15.05 30.01H17.05V32.010000000000005H15.05z"/><path d="M15.05 26.01H17.05V28.01H15.05z"/><path d="M11.05 30.01H13.05V32.010000000000005H11.05z"/><path d="M20.05.01H22.05V3.01H20.05z"/><path d="M29.05 10.01H32.05V12.01H29.05z"/><path d="M26.78 3.78H29.78V5.779999999999999H26.78z" transform="rotate(-45 28.282 4.785)"/><path d="M26.78 16.24H29.78V18.24H26.78z" transform="rotate(-135 28.282 17.24)"/><path d="M12.32 3.78H15.32V5.779999999999999H12.32z" transform="rotate(-135 13.818 4.78)"/><path d="M27.05 11a6 6 0 0 0-10.86-3.48A7.34 7.34 0 0 0 13.55 7a7.55 7.55 0 0 0-7.15 5.25A6 6 0 0 0 8.05 24h11a6 6 0 0 0 5.57-8.2 6 6 0 0 0 2.43-4.8Zm-8 11h-11a4 4 0 0 1-.67-7.93L8 14l.14-.66a5.5 5.5 0 0 1 10.73 0l.15.66.66.11a4 4 0 0 1-.63 7.89Zm4.52-7.91a6 6 0 0 0-2.87-1.85A7.55 7.55 0 0 0 18 8.47 4 4 0 0 1 21.05 7a4 4 0 0 1 2.52 7.09Z"/></svg>