<svg xmlns="http://www.w3.org/2000/svg" viewBox="0 0 32 32" aria-label="snow scattered night" role="img" fill="currentColor" focusable="false"><path d="M29.85 13a1.53 1.53 0 0 0-1.24-.86 5.31 5.31 0 0 1-3.4-1.72 6.44 6.44 0 0 1-1.29-6.39 1.62 1.62 0 0 0-.3-1.55A1.46 1.46 0 0 0 22.26 2a7.74 7.74 0 0 0-5.88 5.57A7.43 7.43 0 0 0 13.5 7a7.56 7.56 0 0 0-7.15 5.24A6 6 0 0 0 8 24h11a6 6 0 0 0 6-6v-.17a7.51 7.51 0 0 0 4.76-3.28 1.55 1.55 0 0 0 .09-1.55ZM19 22H8a4 4 0 0 1-.67-7.93L8 14l.15-.66a5.5 5.5 0 0 1 10.73 0L19 14l.66.11A4 4 0 0 1 19 22Zm5.6-6.13a6 6 0 0 0-4-3.63 7.5 7.5 0 0 0-2.49-3.58 5.89 5.89 0 0 1 3.69-4.43 8.44 8.44 0 0 0 1.94 7.59 7.39 7.39 0 0 0 3.9 2.23 5.42 5.42 0 0 1-3.04 1.83Z"/><path d="M2 26.01H4V28.01H2z"/><path d="M4 28.01H6V30.01H4z"/><path d="M6 30.01H8V32.010000000000005H6z"/><path d="M6 26.01H8V28.01H6z"/><path d="M2 30.01H4V32.010000000000005H2z"/><path d="M20 26.01H22V28.01H20z"/><path d="M22 28.01H24V30.01H22z"/><path d="M24 30.01H26V32.010000000000005H24z"/><path d="M24 26.01H26V28.01H24z"/><path d="M20 30.01H22V32.010000000000005H20z"/><path d="M11 26.01H13V28.01H11z"/><path d="M13 28.01H15V30.01H13z"/><path d="M15 30.01H17V32.010000000000005H15z"/><path d="M15 26.01H17V28.01H15z"/><path d="M11 30.01H13V32.010000000000005H11z"/></svg>