<svg xmlns="http://www.w3.org/2000/svg" viewBox="0 0 32 32" aria-label="snow blizzard" role="img" fill="currentColor" focusable="false"><path d="M13.05 10.01H15.05V12.01H13.05z"/><path d="M15.05 12.01H17.05V14.01H15.05z"/><path d="M17.05 14.01H19.05V16.009999999999998H17.05z"/><path d="M17.05 10.01H19.05V12.01H17.05z"/><path d="M13.05 14.01H15.05V16.009999999999998H13.05z"/><path d="M3.05 26.01H5.05V28.01H3.05z"/><path d="M5.05 28.01H7.05V30.01H5.05z"/><path d="M7.05 30.01H9.05V32.010000000000005H7.05z"/><path d="M7.05 26.01H9.05V28.01H7.05z"/><path d="M3.05 30.01H5.05V32.010000000000005H3.05z"/><path d="M23.05 26.01H25.05V28.01H23.05z"/><path d="M25.05 28.01H27.05V30.01H25.05z"/><path d="M27.05 30.01H29.05V32.010000000000005H27.05z"/><path d="M27.05 26.01H29.05V28.01H27.05z"/><path d="M23.05 30.01H25.05V32.010000000000005H23.05z"/><path d="M8.05 18.01H10.05V20.01H8.05z"/><path d="M10.05 20.01H12.05V22.01H10.05z"/><path d="M12.05 22.01H14.05V24.01H12.05z"/><path d="M12.05 18.01H14.05V20.01H12.05z"/><path d="M8.05 22.01H10.05V24.01H8.05z"/><path d="M18.05 18.01H20.05V20.01H18.05z"/><path d="M20.05 20.01H22.05V22.01H20.05z"/><path d="M22.05 22.01H24.05V24.01H22.05z"/><path d="M22.05 18.01H24.05V20.01H22.05z"/><path d="M18.05 22.01H20.05V24.01H18.05z"/><path d="M13.05 26.01H15.05V28.01H13.05z"/><path d="M15.05 28.01H17.05V30.01H15.05z"/><path d="M17.05 30.01H19.05V32.010000000000005H17.05z"/><path d="M17.05 26.01H19.05V28.01H17.05z"/><path d="M13.05 30.01H15.05V32.010000000000005H13.05z"/><path d="M24.85 9.15a9 9 0 0 0-17.6 0 6.49 6.49 0 0 0-1.2 12.36v-2.26A4.5 4.5 0 0 1 8.19 11H9l.1-.82a7 7 0 0 1 13.88 0l.1.82.82.06a4.5 4.5 0 0 1 2.14 8.22v2.26a6.49 6.49 0 0 0-1.2-12.36Z"/></svg>