<svg xmlns="http://www.w3.org/2000/svg" viewBox="0 0 32 32" aria-label="snow heavy" role="img" fill="currentColor" focusable="false"><path d="M24.85 9.15a9 9 0 0 0-17.6 0 6.49 6.49 0 0 0-1.2 12.36v-2.26A4.5 4.5 0 0 1 8.19 11H9l.1-.82a7 7 0 0 1 13.88 0l.1.82.82.06a4.5 4.5 0 0 1 2.14 8.22v2.26a6.49 6.49 0 0 0-1.2-12.36Z"/><path d="M4.05 26.01H6.05V28.01H4.05z"/><path d="M6.05 28.01H8.05V30.01H6.05z"/><path d="M8.05 30.01H10.05V32.010000000000005H8.05z"/><path d="M8.05 26.01H10.05V28.01H8.05z"/><path d="M4.05 30.01H6.05V32.010000000000005H4.05z"/><path d="M8.05 18.01H10.05V20.01H8.05z"/><path d="M10.05 20.01H12.05V22.01H10.05z"/><path d="M12.05 22.01H14.05V24.01H12.05z"/><path d="M12.05 18.01H14.05V20.01H12.05z"/><path d="M8.05 22.01H10.05V24.01H8.05z"/><path d="M18.05 18.01H20.05V20.01H18.05z"/><path d="M20.05 20.01H22.05V22.01H20.05z"/><path d="M22.05 22.01H24.05V24.01H22.05z"/><path d="M22.05 18.01H24.05V20.01H22.05z"/><path d="M18.05 22.01H20.05V24.01H18.05z"/><path d="M14.05 26.01H16.05V28.01H14.05z"/><path d="M16.05 28.01H18.05V30.01H16.05z"/><path d="M18.05 30.01H20.05V32.010000000000005H18.05z"/><path d="M18.05 26.01H20.05V28.01H18.05z"/><path d="M14.05 30.01H16.05V32.010000000000005H14.05z"/></svg>