<svg xmlns="http://www.w3.org/2000/svg" viewBox="0 0 32 32" aria-label="snow" role="img" fill="currentColor" focusable="false"><path d="M23.5 22h-15A6.5 6.5 0 0 1 7.2 9.15a9 9 0 0 1 17.6 0A6.5 6.5 0 0 1 23.5 22ZM16 4a7 7 0 0 0-6.94 6.14L9 11h-.86a4.5 4.5 0 0 0 .36 9h15a4.5 4.5 0 0 0 .36-9H23l-.1-.82A7 7 0 0 0 16 4Z"/><path d="M4 24.01H6V26.01H4z"/><path d="M6 26.01H8V28.01H6z"/><path d="M8 28.01H10V30.01H8z"/><path d="M8 24.01H10V26.01H8z"/><path d="M4 28.01H6V30.01H4z"/><path d="M22 24.01H24V26.01H22z"/><path d="M24 26.01H26V28.01H24z"/><path d="M26 28.01H28V30.01H26z"/><path d="M26 24.01H28V26.01H26z"/><path d="M22 28.01H24V30.01H22z"/><path d="M13 26.01H15V28.01H13z"/><path d="M15 28.01H17V30.01H15z"/><path d="M17 30.01H19V32.010000000000005H17z"/><path d="M17 26.01H19V28.01H17z"/><path d="M13 30.01H15V32.010000000000005H13z"/></svg>