<svg xmlns="http://www.w3.org/2000/svg" viewBox="0 0 32 32" aria-label="snowmobile" role="img" fill="currentColor" focusable="false"><path d="M13 20H6a3 3 0 0 0 0 6h7a3 3 0 0 0 0-6Zm0 4H6a1 1 0 0 1 0-2h7a1 1 0 0 1 0 2Z"/><path d="m30.82 19.43-9-13A1 1 0 0 0 21 6h-4v2h3.48l7.61 11h-8.76l-3.73-2.8a1 1 0 0 0-.6-.2H6.41l-2-2H20v-2H2a1 1 0 0 0-.92.62 1 1 0 0 0 .21 1.09l4 4A1 1 0 0 0 6 18h8.67l3.73 2.8a1 1 0 0 0 .6.2h2.43l1.8 3H19v2h8a3 3 0 0 0 3-3h-2a1 1 0 0 1-1 1h-1.43l-1.8-3H30a1 1 0 0 0 .89-.54 1 1 0 0 0-.07-1.03Z"/></svg>