<svg xmlns="http://www.w3.org/2000/svg" viewBox="0 0 32 32" aria-label="snowflake" role="img" fill="currentColor" focusable="false"><path d="M21.46 12h6.59v-2h-4.59l4.59-4.59L26.64 4l-4.59 4.59V4h-2v6.59L18.64 12h-1.59V8h-2v4h-1.59l-1.41-1.41V4h-2v4.59L5.46 4 4.05 5.41 8.63 10H4.05v2h6.58l1.42 1.42V15h-4v2h4v1.59L10.64 20H4.05v2h4.59l-4.59 4.59L5.46 28l4.59-4.58V28h2v-6.58L13.46 20h1.59v4h2v-4h1.58l1.42 1.42V28h2v-4.58L26.64 28l1.41-1.41L23.46 22h4.59v-2h-6.59l-1.41-1.41V17h4v-2h-4v-1.58Zm-3.41 6h-4v-4h4Z"/></svg>