<svg xmlns="http://www.w3.org/2000/svg" xml:space="preserve" x="0" y="0" enable-background="new 0 0 32 32" version="1.1" viewBox="0 0 32 32" aria-label="solar panel" role="img" fill="currentColor" focusable="false"><path d="M30 26V14H13v12h5v2H2v2h28v-2h-5v-2h5zm-5-2v-3h3v3h-3zm-2-3v3h-3v-3h3zm-3-2v-3h3v3h-3zm8 0h-3v-3h3v3zm-10-3v3h-3v-3h3zm-3 8v-3h3v3h-3zm8 4h-3v-2h3v2zM9.3 15c-1.6-1.5-1.8-4-.3-5.7s4-1.8 5.6-.3c.8.8 1.3 1.8 1.3 3h-2c0-1.1-.9-2-2-2s-2 .9-2 2c0 .6.2 1.1.7 1.5L9.3 15z"/><path d="M11 2H13V6H11z"/><path d="M2 11H6V13H2z"/><path d="M5.3 4.3H7.3V8.3H5.3z" transform="rotate(-45.001 6.343 6.343)"/><path d="M15.7 5.3H19.7V7.3H15.7z" transform="rotate(-45.001 17.657 6.343)"/></svg>