<svg xmlns="http://www.w3.org/2000/svg" viewBox="0 0 32 32" aria-label="soundcloud" role="img" fill="currentColor" focusable="false"><path d="M26.43 2H5.57A3.57 3.57 0 0 0 2 5.57v20.86A3.57 3.57 0 0 0 5.57 30h20.86A3.57 3.57 0 0 0 30 26.41V5.57A3.57 3.57 0 0 0 26.43 2ZM4.89 18l-.15 1v.16a.11.11 0 0 1-.1.07.11.11 0 0 1-.08-.07s0-.06 0-.09l-.15-1.15v-.06c0-.06 0-.24.05-.37s.07-.53.1-.79a.94.94 0 0 1 0-.16.1.1 0 0 1 .08-.06s.08 0 .09.07v.14c0 .35.1.69.16 1a1 1 0 0 1 0 .31Zm.7 1.79a.19.19 0 0 1 0 .08.1.1 0 0 1-.09.06.11.11 0 0 1-.09 0 .64.64 0 0 0 0-.07c0-.23 0-.45-.07-.67s-.07-.57-.1-.85 0-.33 0-.49v-.48c0-.39.09-.77.13-1.16v-.5c0-.02 0 0 .08 0a.13.13 0 0 1 .09.06.24.24 0 0 1 0 .08l.2 1.15.09.72a.81.81 0 0 1 0 .22c-.07.62-.16 1.25-.24 1.89Zm1.15-1.75c0 .46-.09.91-.14 1.37 0 .24 0 .47-.07.71v.08c0 .02-.06.1-.12.09a.1.1 0 0 1-.11-.09V20l-.12-1.39v-.58a2.44 2.44 0 0 1 0-.38c0-.33.06-.67.09-1l.09-1a1.5 1.5 0 0 1 0-.29.17.17 0 0 1 0-.07.12.12 0 0 1 .2 0 .66.66 0 0 1 0 .15l.18 1.79v.59a2.46 2.46 0 0 1 0 .26Zm.93 0c0 .3 0 .6-.08.91s-.07.67-.1 1a1.79 1.79 0 0 1 0 .23.78.78 0 0 1 0 .16.12.12 0 0 1-.14.09.11.11 0 0 1-.12-.09 1.13 1.13 0 0 1 0-.18v-.45C7.08 19.13 7 18.56 7 18a1 1 0 0 1 0-.25c0-.37.06-.73.09-1.09v-1.41a.13.13 0 0 1 .12-.09.13.13 0 0 1 .13.08.5.5 0 0 1 0 .16c.06.6.11 1.2.16 1.79l.06.54a.49.49 0 0 0 0 .12Zm.8 1.58c0 .2 0 .4-.05.6a.57.57 0 0 1 0 .18.13.13 0 0 1-.15.08.13.13 0 0 1-.14-.1 1.33 1.33 0 0 1 0-.21v-.45c0-.54-.07-1.09-.12-1.63a4.33 4.33 0 0 1 0-.72c0-.41.07-.82.1-1.23V15.43a.16.16 0 0 1 .15-.11.15.15 0 0 1 .14.1.53.53 0 0 1 0 .12c0 .31.05.62.08.92s.07.64.09 1a2 2 0 0 1 0 .53c0 .55-.05 1.09-.1 1.62Zm1.07-1.34c0 .38-.06.77-.1 1.15s0 .58-.07.87a.15.15 0 0 1 0 .07.2.2 0 0 1-.18.14.19.19 0 0 1-.19-.17A3.16 3.16 0 0 1 9 20c-.05-.65-.1-1.29-.14-1.94a4.42 4.42 0 0 1 0-.63L8.9 16c0-.44 0-.88.07-1.32v-.64A.34.34 0 0 1 9 14a.17.17 0 0 1 .14-.13.18.18 0 0 1 .19.08.32.32 0 0 1 0 .14v.47c0 .48 0 1 .07 1.44 0 .6.07 1.2.1 1.81.07.12.05.29.04.46Zm1 .08-.06.65c0 .39 0 .77-.08 1.16a1.13 1.13 0 0 1 0 .18.19.19 0 0 1-.19.16.2.2 0 0 1-.2-.15s0-.07 0-.11l-.21-1.8v-1.37c0-.31 0-.9.06-1.44s0-.91.05-1.41v-1L10 13a.22.22 0 0 1 .2-.11.22.22 0 0 1 .17.14.28.28 0 0 1 0 .09v.22c0 .48 0 1 .05 1.43l.06 1.35v1.38a7.67 7.67 0 0 1 .01.85Zm.94.2v.75c0 .25-.05.64-.08 1v.07a.25.25 0 0 1-.21.17.23.23 0 0 1-.22-.18.28.28 0 0 1 0-.09c0-.56-.07-1.11-.11-1.67V16.8a1 1 0 0 0 0-.17l.06-2 .06-1.85a.17.17 0 0 1 0-.07.22.22 0 0 1 .2-.18.24.24 0 0 1 .23.17v.62c0 .54 0 1.08.05 1.62v.49c0 .67 0 1.35.07 2a8.33 8.33 0 0 1-.1 1.12Zm1-.22-.06.74c0 .38 0 .75-.07 1.13a.37.37 0 0 0 0 .11.25.25 0 0 1-.25.19.23.23 0 0 1-.22-.2v-1.07l-.06-.9a11.42 11.42 0 0 1 0-1.17l.06-2V12.56a.57.57 0 0 1 0-.14.2.2 0 0 1 .22-.12.23.23 0 0 1 .22.19v.14c0 .89.05 1.78.08 2.68v2.41a5.62 5.62 0 0 1 .02.61Zm1-.24c0 .49-.06 1-.1 1.45v.69a.24.24 0 0 1-.07.18.26.26 0 0 1-.24.09.24.24 0 0 1-.2-.21v-.31c0-.51-.05-1-.08-1.52a13.9 13.9 0 0 1 0-1.58v-2.24l.06-1.85v-.14a.27.27 0 0 1 .25-.23.28.28 0 0 1 .27.23v2.83l.07 2.29c-.02.09-.03.22-.03.31Zm1 .3v.75c0 .25 0 .61-.05.92v.22a.29.29 0 0 1-.29.23.27.27 0 0 1-.26-.26v-.72c0-.24-.05-.74-.06-1.11s0-.52 0-.78v-2.16c0-.72 0-1.71.07-2.57a.32.32 0 0 1 .15-.29.28.28 0 0 1 .4.18.65.65 0 0 1 0 .2v.82c0 .6 0 1.2.05 1.79v2.06c-.09.23-.11.47-.12.71Zm1 .07v1.72a.32.32 0 0 1-.07.19.29.29 0 0 1-.28.12.3.3 0 0 1-.24-.21.88.88 0 0 1 0-.16c0-.33 0-.65-.05-1s0-.85 0-1.27V16.03c0-1.34.05-2.67.07-4a.68.68 0 0 1 0-.2.29.29 0 0 1 .32-.23.28.28 0 0 1 .26.28v.47c0 1.19 0 2.38.07 3.58v1.8c-.17.27-.19.5-.2.73Zm1 .53-.06 1a2.28 2.28 0 0 1 0 .26.33.33 0 0 1-.33.28.32.32 0 0 1-.3-.31v-.32c0-.56 0-1.12-.09-1.67V11.53a.34.34 0 0 1 0-.1.32.32 0 0 1 .63 0 2.44 2.44 0 0 1 0 .27c0 .76 0 1.53.05 2.29 0 .94.05 1.89.06 2.83v1.31c0 .44-.09.55-.1.87Zm9.27 1.41a3 3 0 0 1-.79.11h-8a.34.34 0 0 1-.32-.29 1 1 0 0 1 0-.17V11.04a.27.27 0 0 1 .15-.24l.16-.07a5.26 5.26 0 0 1 1.23-.3 5 5 0 0 1 .95 0 5 5 0 0 1 2.53.91 5 5 0 0 1 2 3.08c0 .19.06.38.1.59l.25-.08a3.1 3.1 0 0 1 .99-.14 2.87 2.87 0 0 1 .58 5.61Z"/></svg>