<svg xmlns="http://www.w3.org/2000/svg" viewBox="0 0 32 32" aria-label="spine label" role="img" fill="currentColor" focusable="false"><path d="M3 11 3 13 8.59 13 2.29 19.29 3.71 20.71 10 14.41 10 20 12 20 12 11 3 11z"/><path d="M26 13h-3v-1h-2v1h-3a2 2 0 0 0-2 2v2a2 2 0 0 0 2 2h3v1h2v-1h3a2 2 0 0 0 2-2v-2a2 2 0 0 0-2-2Zm-8 4v-2h8v2ZM26 23h-3v-1h-2v1h-3a2 2 0 0 0-2 2v2a2 2 0 0 0 2 2h3v1h2v-1h3a2 2 0 0 0 2-2v-2a2 2 0 0 0-2-2Zm-8 4v-2h8v2ZM26 3h-3V2h-2v1h-3a2 2 0 0 0-2 2v2a2 2 0 0 0 2 2h3v1h2V9h3a2 2 0 0 0 2-2V5a2 2 0 0 0-2-2Zm-8 4V5h8v2Z"/></svg>