<svg xmlns="http://www.w3.org/2000/svg" viewBox="0 0 32 32" aria-label="spray paint" role="img" fill="currentColor" focusable="false"><path d="M22.5 23a4.5 4.5 0 1 1 4.5-4.5 4.51 4.51 0 0 1-4.5 4.5Zm0-7a2.5 2.5 0 1 0 2.5 2.5 2.5 2.5 0 0 0-2.5-2.5Z"/><path d="M28 8h-2V3h-7v5h-2a2 2 0 0 0-2 2v18a2 2 0 0 0 2 2h11a2 2 0 0 0 2-2V10a2 2 0 0 0-2-2Zm-7-3h3v3h-3Zm-4 23V10h11v18Z"/><path d="M2 14H5V17H2z"/><path d="M7 9H10V12H7z"/><path d="M2 9H5V12H2z"/><path d="M12 4H15V7H12z"/><path d="M7 4H10V7H7z"/><path d="M2 4H5V7H2z"/></svg>