<svg xmlns="http://www.w3.org/2000/svg" viewBox="0 0 32 32" aria-label="stamp" role="img" fill="currentColor" focusable="false"><path d="M26 18h-6v-3.1a7.52 7.52 0 0 1 1.16-3.9A5.92 5.92 0 0 0 22 8a6 6 0 0 0-11.9-1.12 5.91 5.91 0 0 0 .75 4.18A7.28 7.28 0 0 1 12 14.79V18H6a2 2 0 0 0-2 2v4a2 2 0 0 0 2 2v2a2 2 0 0 0 2 2h16a2 2 0 0 0 2-2v-2a2 2 0 0 0 2-2v-4a2 2 0 0 0-2-2ZM12.07 7.24A4 4 0 0 1 20 8a3.89 3.89 0 0 1-.56 2 9.66 9.66 0 0 0-1.37 4h-4.13a9.41 9.41 0 0 0-1.38-4 4 4 0 0 1-.49-2.76ZM18 16v2h-4v-2Zm6 12H8v-2h16ZM6 24v-4h20v4Z"/></svg>