<svg xmlns="http://www.w3.org/2000/svg" viewBox="0 0 32 32" aria-label="stargazing" role="img" fill="currentColor" focusable="false"><path d="m20.23 30-6.31-10.51a1 1 0 0 0-1.71 0L5.9 30h2.33l3.83-6.39V30h2v-6.39L17.9 30ZM24.09 13.66l-.5-.87-4-6.92-.5-.87-1.73 1 .5.87-6.93 4a2 2 0 0 0-1 1.72L4.5 15.73a2 2 0 0 0-.73 2.73l-1.77 1 1 1.74 1.73-1a2 2 0 0 0 2.73.73l5.43-3.14a2 2 0 0 0 1 .27 1.91 1.91 0 0 0 1-.27l6.93-4 .5.87ZM6.5 19.2l-1-1.74 5.2-3 1 1.74Zm7.43-3.14-2-3.46 6.93-4 2 3.46Z"/><path d="M3 3H5V5H3z"/><path d="M5 5H7V7H5z"/><path d="M7 7H9V9H7z"/><path d="M7 3H9V5H7z"/><path d="M3 7H5V9H3z"/><path d="M21 18.97H23V20.97H21z"/><path d="M23 20.97H25V22.97H23z"/><path d="M25 22.97H27V24.97H25z"/><path d="M25 18.97H27V20.97H25z"/><path d="M21 22.97H23V24.97H21z"/><path d="M24 2H26V4H24z"/><path d="M26 4H28V6H26z"/><path d="M28 6H30V8H28z"/><path d="M28 2H30V4H28z"/><path d="M24 6H26V8H24z"/></svg>