<svg xmlns="http://www.w3.org/2000/svg" viewBox="0 0 32 32" aria-label="strawberry" role="img" fill="currentColor" focusable="false"><path d="M26 7h-4a4 4 0 0 1-4-4V2h2v1a2 2 0 0 0 2 2h4Z"/><path d="M9 10H11V12H9z"/><path d="M9 14H11V16H9z"/><path d="M13 12H15V14H13z"/><path d="M9 28a6 6 0 0 1-.74 0A5.1 5.1 0 0 1 4 22.87V11.2A7.16 7.16 0 0 1 10.31 4a7 7 0 0 1 4.46 1.1l8 5a7 7 0 0 1-.69 12.19L11.17 27.5A4.9 4.9 0 0 1 9 28Zm2-22h-.5A5.16 5.16 0 0 0 6 11.2v11.67A3.09 3.09 0 0 0 8.54 26a3.08 3.08 0 0 0 1.77-.27l10.88-5.23a5 5 0 0 0 .49-8.69l-8-5A5 5 0 0 0 11 6Z"/></svg>