<svg xmlns="http://www.w3.org/2000/svg" viewBox="0 0 32 32" aria-label="students" role="img" fill="currentColor" focusable="false"><path d="M18 28h2v-2a1 1 0 0 1 1-1h6a1 1 0 0 1 1 1v2h2v-2a3 3 0 0 0-3-3h-6a3 3 0 0 0-3 3ZM18 16a1 1 0 0 0-1 1v4h2v-4a1 1 0 0 0-1-1Z"/><path d="M31 14v-2H17v2h3v4a4 4 0 0 0 8 0v-4Zm-9 0h4v2h-4v-2Zm2 6a2 2 0 0 1-2-2h4a2 2 0 0 1-2 2ZM2 20h2v-2a1 1 0 0 1 1-1h6a1 1 0 0 1 1 1v2h2v-2a3 3 0 0 0-3-3H5a3 3 0 0 0-3 3ZM2 8a1 1 0 0 0-1 1v4h2V9a1 1 0 0 0-1-1Z"/><path d="M15 6V4H1v2h3v4a4 4 0 0 0 8 0V6ZM6 6h4v2H6V6Zm2 6a2 2 0 0 1-2-2h4a2 2 0 0 1-2 2Z"/></svg>