<svg xmlns="http://www.w3.org/2000/svg" viewBox="0 0 32 32" aria-label="study abroad" role="img" fill="currentColor" focusable="false"><path d="M5 6.22a1 1 0 0 0-1 .89v8h2v-8a1 1 0 0 0-1-.89ZM4.05 2.06v2H9v5h14v-5h5v-2Zm17 5H11v-3h10ZM16 11.06a9 9 0 1 0 9 9 9 9 0 0 0-9-9Zm1.05 2.09a7.32 7.32 0 0 0-1.05-.09 7.32 7.32 0 0 1 1.05.09Zm1.16.27a7.09 7.09 0 0 0-1-.25 7.09 7.09 0 0 1 1 .25ZM9 20.52l.62.2 1.29 1.94v1a.78.78 0 0 0 .23.55l2.13 2.13v.17A7 7 0 0 1 9 20.52Zm4.28 6a7.14 7.14 0 0 0 1.29.4 7.14 7.14 0 0 1-1.27-.4Zm1.41.42c.19 0 .38.07.58.09-.18-.03-.37-.03-.56-.09Zm1.29.12a6.84 6.84 0 0 0 .79 0l1.06-2.64a.8.8 0 0 0-.08-.72L16.66 22a.8.8 0 0 0-.65-.35h-3.88l-1-1.47 1.68-1.67h1.24v1.57h1.57v-2.17l2.57-4.49a7 7 0 0 1 4.65 5.28 6.29 6.29 0 0 0-.38-1.28L22 20.28a.81.81 0 0 0 .42.83l.44.21A7 7 0 0 1 16 27.06Zm7-7.7c0-.19-.05-.38-.08-.57a5.58 5.58 0 0 1 .1.57Zm0 1.35c0 .2 0 .41-.09.61.03-.2.11-.41.11-.61Z"/></svg>