<svg xmlns="http://www.w3.org/2000/svg" viewBox="0 0 32 32" aria-label="summary KPI" role="img" fill="currentColor" focusable="false"><path d="M6 12 6 4 4 4 4 5 2 5 2 7 4 7 4 12 2 12 2 14 8 14 8 12 6 12z"/><path d="M16 14h-6v-4a2 2 0 0 1 2-2h2V6h-4V4h4a2 2 0 0 1 2 2v2a2 2 0 0 1-2 2h-2v2h4ZM22 4h-4v2h4v2h-3v2h3v2h-4v2h4a2 2 0 0 0 2-2V6a2 2 0 0 0-2-2Z"/><path d="M30 11 26 11 28 8 30 11z"/><path d="M7.67 27.5 2 22.45 3.33 21 9 26l7.69-7.45a1.94 1.94 0 0 1 2.68 0L23 22l5.58-6L30 17.39l-5.58 6a2 2 0 0 1-2.84.08L18 20l-7.66 7.42a2 2 0 0 1-2.67.08Z"/></svg>