<svg xmlns="http://www.w3.org/2000/svg" viewBox="0 0 32 32" aria-label="sunrise" role="img" fill="currentColor" focusable="false"><path d="M25.05 22H30.05V24H25.05z"/><path d="M21.72 14.85H26.68V16.85H21.72z" transform="rotate(-45 24.195 15.848)"/><path d="M6.9 13.37H8.9V18.33H6.9z" transform="rotate(-45 7.899 15.858)"/><path d="M2.05 22H7.05V24H2.05z"/><path d="M2.05 27H30.05V29H2.05z"/><path d="M16.05 20a4 4 0 0 1 4 4h2a6 6 0 0 0-12 0h2a4 4 0 0 1 4-4Z"/><path d="M16.05 4 11.05 9 12.46 10.41 15.05 7.83 15.05 8 15.05 15 17.05 15 17.05 8 17.05 7.83 19.64 10.41 21.05 9 16.05 4z"/></svg>