<svg xmlns="http://www.w3.org/2000/svg" viewBox="0 0 32 32" aria-label="sunset" role="img" fill="currentColor" focusable="false"><path d="M25.05 22H30.05V24H25.05z"/><path d="M21.72 14.85H26.68V16.85H21.72z" transform="rotate(-45 24.195 15.848)"/><path d="M6.9 13.37H8.9V18.33H6.9z" transform="rotate(-45 7.899 15.858)"/><path d="M2.05 22H7.05V24H2.05z"/><path d="M2.05 27H30.05V29H2.05z"/><path d="M16.05 20a4 4 0 0 1 4 4h2a6 6 0 0 0-12 0h2a4 4 0 0 1 4-4Z"/><path d="M19.64 9.59 17.05 12.17 17.05 4 15.05 4 15.05 12.17 12.46 9.59 11.05 11 16.05 16 21.05 11 19.64 9.59z"/></svg>