<svg xmlns="http://www.w3.org/2000/svg" id="Icons" viewBox="0 0 32 32" aria-label="sustainability" role="img" fill="currentColor" focusable="false"><defs><style>.cls-1{stroke-width:0px;}</style></defs><path d="M21.57 27.9c-1.75.83-3.62 1.25-5.57 1.25-7.17 0-13-5.83-13-13 0-3.08 1.06-5.98 3-8.31v2.31h2v-6H2v2h2.84a14.825 14.825 0 0 0-3.84 10c0 8.27 6.73 15 15 15 2.25 0 4.41-.49 6.43-1.44l-.86-1.81Z"/><path d="M21 9.15c-3.16 0-5.75 2.46-5.98 5.56A5.95 5.95 0 0 0 11 13.15H7v4c0 3.31 2.69 6 6 6h2v4h2v-8h2c3.31 0 6-2.69 6-6v-4h-4Zm-8 12c-2.21 0-4-1.79-4-4v-2h2c2.21 0 4 1.79 4 4v.59l-2.29-2.29-1.41 1.41 2.29 2.29H13Zm10-8c0 2.21-1.79 4-4 4h-.59l2.29-2.29-1.41-1.41L17 15.74v-.59c0-2.21 1.79-4 4-4h2v2Z"/><path d="M31 16.15c0-8.27-6.73-15-15-15-2.25 0-4.41.49-6.43 1.44l.86 1.81c1.75-.83 3.62-1.25 5.57-1.25 7.17 0 13 5.83 13 13 0 3.08-1.06 5.98-3 8.31v-2.31h-2v6h6v-2h-2.84c2.48-2.75 3.84-6.26 3.84-10Z"/></svg>