<svg xmlns="http://www.w3.org/2000/svg" viewBox="0 0 32 32" aria-label="swim safety" role="img" fill="currentColor" focusable="false"><path d="M20 6a4 4 0 1 1 4 4 4 4 0 0 1-4-4Zm2 0a2 2 0 1 0 2-2 2 2 0 0 0-2 2ZM23 13.59l-8.71-8.71A3 3 0 0 0 12.17 4H4v2h8.17a1 1 0 0 1 .71.29L15.59 9 10 14.59 11.41 16 17 10.41 21.59 15ZM17 17.68a1 1 0 0 0-1-.68 1 1 0 0 0-.95.68A3.44 3.44 0 0 1 12 20a3.44 3.44 0 0 1-3-2.32A1 1 0 0 0 8 17a1 1 0 0 0-1 .68A3.44 3.44 0 0 1 4 20H2v2h2a4.93 4.93 0 0 0 4-2 5 5 0 0 0 8 0 3.93 3.93 0 0 0 1-2 1.47 1.47 0 0 0 0-.32ZM23.5 30a6.5 6.5 0 1 1 6.5-6.5 6.51 6.51 0 0 1-6.5 6.5Zm0-11a4.5 4.5 0 1 0 4.5 4.5 4.51 4.51 0 0 0-4.5-4.5Z"/><path d="M22.69 23.97 21.4 22.68 20.25 23.83 22.69 26.27 26.75 22.2 25.6 21.06 22.69 23.97z"/></svg>