<svg xmlns="http://www.w3.org/2000/svg" viewBox="0 0 32 32" aria-label="swim" role="img" fill="currentColor" focusable="false"><path d="M20 10a4 4 0 1 1 4 4 4 4 0 0 1-4-4Zm2 0a2 2 0 1 0 2-2 2 2 0 0 0-2 2ZM23 17.63l-8.71-8.71A3 3 0 0 0 12.17 8H4v2h8.17a1 1 0 0 1 .71.3l2.71 2.7L10 18.63 11.41 20 17 14.46 21.59 19ZM30 26h-2a5 5 0 0 1-4-2 5 5 0 0 1-8 0 5 5 0 0 1-8 0 5 5 0 0 1-4 2H2v-2h2a3.43 3.43 0 0 0 3.05-2.32A1 1 0 0 1 8 21a1 1 0 0 1 .95.69A3.44 3.44 0 0 0 12 24a3.43 3.43 0 0 0 3.05-2.32A1 1 0 0 1 16 21a1 1 0 0 1 .95.69A3.44 3.44 0 0 0 20 24a3.43 3.43 0 0 0 3.05-2.32 1 1 0 0 1 1.9 0A3.44 3.44 0 0 0 28 24h2Z"/></svg>