<svg xmlns="http://www.w3.org/2000/svg" viewBox="0 0 32 32" aria-label="syringe" role="img" fill="currentColor" focusable="false"><path d="M14.62 4.71 10.38 9 8.24 6.82 9.66 5.4 8.25 4 4 8.25l1.4 1.41 1.42-1.42L9 10.38l-4.28 4.23L6.12 16l2.13-2.12L19.56 25.2 21 23.79l.71.71.7-.71L27 28.41 28.41 27l-4.61-4.62.71-.71-.71-.67.71-.71.71-.7L13.9 8.23 16 6.11Zm7.77 14.84-2.83 2.83L18.15 21l1.41-1.41-1.41-1.41-1.42 1.41-1.42-1.42 1.42-1.41-1.42-1.41-1.41 1.37-1.41-1.41 1.41-1.41-1.41-1.42-1.41 1.42-1.42-1.42 2.83-2.83Z"/></svg>