<svg xmlns="http://www.w3.org/2000/svg" viewBox="0 0 32 32" aria-label="tag edit" role="img" fill="currentColor" focusable="false"><path d="m29.71 7.29-3-3a1 1 0 0 0-1.42 0L16 13.59V18h4.41l9.3-9.29a1 1 0 0 0 0-1.42ZM19.59 16H18v-1.59l5-5L24.59 11ZM26 9.59 24.41 8 26 6.41 27.59 8ZM10 14a4 4 0 1 1 4-4 4 4 0 0 1-4 4Zm0-6a2 2 0 1 0 2 2 2 2 0 0 0-2-2Z"/><path d="M29.42 16.59 27 14.21l-1.42 1.41L28 18 18 28 4 14V4h10l4.38 4.38L19.79 7l-4.38-4.42A2 2 0 0 0 14 2H4a2 2 0 0 0-2 2v10a2 2 0 0 0 .58 1.41l14 14a2 2 0 0 0 2.84 0l10-10a2 2 0 0 0 0-2.82Z"/></svg>