<svg xmlns="http://www.w3.org/2000/svg" viewBox="0 0 32 32" aria-label="temperature frigid" role="img" fill="currentColor" focusable="false"><path d="M27.22 16.89 21.77 13 27.22 9.11 29.73 9.95 30.37 8.05 28.05 7.28 28.05 5 26.05 5 26.05 7.49 21.05 11.06 21.05 5.37 23.61 3.66 22.5 2 20.05 3.63 17.61 2 16.5 3.66 19.05 5.37 19.05 11.06 16.05 8.91 16.05 11.37 18.33 13 16.05 14.63 16.05 17.09 19.05 14.94 19.05 21.7 22.5 24 23.61 22.34 21.05 20.63 21.05 14.94 26.05 18.52 26.05 21 28.05 21 28.05 18.72 30.37 17.95 29.73 16.05 27.22 16.89z"/><path d="M12.05 23a3 3 0 0 1-6 0Z"/><path d="M13.05 17.26V6a4 4 0 0 0-8 0v11.26a7 7 0 1 0 8 0ZM9.05 28a5 5 0 0 1-2.5-9.33l.5-.28V6a2 2 0 0 1 4 0v12.39l.5.28A5 5 0 0 1 9.05 28Z"/></svg>