<svg xmlns="http://www.w3.org/2000/svg" viewBox="0 0 32 32" aria-label="temperature hot" role="img" fill="currentColor" focusable="false"><path d="M26.05 13H30.05V15H26.05z"/><path d="M23.17 5.88H27.17V7.88H23.17z" transform="rotate(-45 25.168 6.875)"/><path d="M24.17 19.12H26.17V23.12H24.17z" transform="rotate(-45 25.178 21.12)"/><path d="M17.05 2H19.05V6H17.05z"/><path d="M18.05 8a6.64 6.64 0 0 0-1 .09v2.05a4.09 4.09 0 0 1 1-.14 4 4 0 0 1 0 8v2a6 6 0 0 0 0-12ZM10.05 20.18V7h-2v13.18a3 3 0 1 0 2 0Z"/><path d="M14.05 18.14V7a5 5 0 0 0-10 0v11.14a6.92 6.92 0 0 0-2 4.86 7 7 0 0 0 14 0 6.92 6.92 0 0 0-2-4.86Zm-5 9.86a5 5 0 0 1-5-5 4.89 4.89 0 0 1 1.08-3.06c.09-.12.19-.23.29-.34l.16-.17.35-.3.12-.1V7a3 3 0 0 1 6 0v12l.13.1.34.3a1.29 1.29 0 0 1 .16.17l.3.34A4.94 4.94 0 0 1 14.05 23a5 5 0 0 1-5 5Z"/></svg>