<svg xmlns="http://www.w3.org/2000/svg" viewBox="0 0 32 32" aria-label="tennis" role="img" fill="currentColor" focusable="false"><path d="M11 16a1 1 0 0 1-.71-.29 1 1 0 0 1 0-1.42l7-7a1 1 0 1 1 1.42 1.42l-7 7A1 1 0 0 1 11 16Z"/><path d="M23.71 24.29A8.46 8.46 0 0 0 19 22.08a5.57 5.57 0 0 0 .57-.52 9.23 9.23 0 0 0 1.74-9.91l-1.88.7c1.11 3 .64 5.89-1.27 7.8A6.71 6.71 0 0 1 12.59 22a9.76 9.76 0 0 1-5.77-2.78c-3-3-4.08-8.23-1-11.32 1.9-1.91 4.82-2.38 7.81-1.27l.69-1.88a9.27 9.27 0 0 0-9.9 1.68c-3.94 3.94-2.68 10.5 1 14.15a11.79 11.79 0 0 0 7 3.36L13 24h5a6.86 6.86 0 0 1 4.29 1.71l4.3 4.29L28 28.59Z"/><rect width="4" height="4" x="20" y="2" rx="2"/></svg>