<svg xmlns="http://www.w3.org/2000/svg" viewBox="0 0 32 32" aria-label="text link" role="img" fill="currentColor" focusable="false"><path d="M18.71 27.58a5.26 5.26 0 0 1-3.73-9L16.4 20a3.26 3.26 0 1 0 4.6 4.63l6-6A3.26 3.26 0 0 0 22.43 14L21 12.57A5.27 5.27 0 0 1 28.46 20l-6 6a5.28 5.28 0 0 1-3.75 1.58Z"/><path d="M10.26 30a5.27 5.27 0 0 1-3.72-9l6-6A5.27 5.27 0 0 1 20 22.43L18.6 21a3.25 3.25 0 0 0 0-4.61 3.27 3.27 0 0 0-4.61 0l-6 6A3.25 3.25 0 0 0 8 27a3.25 3.25 0 0 0 4.61 0L14 28.46A5.3 5.3 0 0 1 10.26 30Z"/><path d="M2 10H10V12H2z"/><path d="M2 6H14V8H2z"/><path d="M2 2H14V4H2z"/></svg>