<svg xmlns="http://www.w3.org/2000/svg" viewBox="0 0 32 32" aria-label="text strikethrough" role="img" fill="currentColor" focusable="false"><path d="M28 15H18l-1.34-.34c-2.81-.66-4.4-1.15-4.4-3.42A2.85 2.85 0 0 1 13 9.1 4.72 4.72 0 0 1 16 8c2.83-.07 4.14.89 5.2 2.35l1.62-1.18A7.47 7.47 0 0 0 16 6a6.74 6.74 0 0 0-4.4 1.66 4.82 4.82 0 0 0-1.39 3.57A4.36 4.36 0 0 0 12 15H4v2h13.65c2 .57 3.14 1.31 3.18 3.36a3.12 3.12 0 0 1-.83 2.39A5.83 5.83 0 0 1 16.24 24a6.64 6.64 0 0 1-5.14-2.69l-1.54 1.28A8.54 8.54 0 0 0 16.21 26h.1a7.66 7.66 0 0 0 5.05-1.82 5.08 5.08 0 0 0 1.47-3.85A5 5 0 0 0 21.68 17H28Z"/></svg>