<svg xmlns="http://www.w3.org/2000/svg" viewBox="0 0 32 32" aria-label="theater" role="img" fill="currentColor" focusable="false"><path d="M16 14.05a2 2 0 1 0 2 2 2 2 0 0 0-2-2ZM24 14.05a2 2 0 1 0 2 2 2 2 0 0 0-2-2ZM20 25.05a7 7 0 0 1-5.83-3.13l1.66-1.11a5 5 0 0 0 8.34 0l1.66 1.11A7 7 0 0 1 20 25.05Z"/><path d="M28 8.05h-6v-4a2 2 0 0 0-2-2H4a2 2 0 0 0-2 2v10A10 10 0 0 0 10.8 24 10 10 0 0 0 30 20.05v-10a2 2 0 0 0-2-2Zm-24 6v-10h16v4h-8a2 2 0 0 0-2 2v10a9.51 9.51 0 0 0 .17 1.78A8 8 0 0 1 4 14.05Zm24 6a8 8 0 0 1-16 0v-10h16Z"/></svg>