<svg xmlns="http://www.w3.org/2000/svg" viewBox="0 0 32 32" aria-label="threshold" role="img" fill="currentColor" focusable="false"><path d="M26 4H6a2 2 0 0 0-2 2v20a2 2 0 0 0 2 2h20a2 2 0 0 0 2-2V6a2 2 0 0 0-2-2ZM6 6h20v10h-2v2h2v2h-2v2h2v2h-2v2h-2v-2h-2v2h-2v-2h-2v2h-2v-2h-2v2h-2v-2H8v2H6Z"/><path d="M8 20H10V22H8z"/><path d="M12 20H14V22H12z"/><path d="M16 20H18V22H16z"/><path d="M20 20H22V22H20z"/><path d="M8 16H10V18H8z"/><path d="M16 16H18V18H16z"/><path d="M20 16H22V18H20z"/><path d="M20 12H22V14H20z"/><path d="M20 8H22V10H20z"/></svg>