<svg xmlns="http://www.w3.org/2000/svg" id="Icons" viewBox="0 0 32 32" aria-label="threads" role="img" fill="currentColor" focusable="false"><defs><style>.cls-1{stroke-width:0px;}</style></defs><path d="M22.7 15.02c-.12-.06-.24-.11-.37-.17-.22-3.98-2.39-6.26-6.05-6.29h-.05c-2.19 0-4 .93-5.12 2.63l2.01 1.38c.84-1.27 2.15-1.54 3.11-1.54h.03c1.2 0 2.11.36 2.7 1.04.43.5.71 1.18.86 2.05-1.07-.18-2.22-.24-3.45-.17-3.47.2-5.71 2.23-5.56 5.04.08 1.43.79 2.66 2 3.46 1.03.68 2.35 1.01 3.73.94 1.82-.1 3.24-.79 4.24-2.06.76-.96 1.23-2.21 1.44-3.78.87.52 1.51 1.21 1.86 2.04.6 1.41.64 3.71-1.25 5.6-1.65 1.65-3.63 2.36-6.63 2.38-3.33-.02-5.84-1.09-7.48-3.17-1.53-1.95-2.32-4.76-2.35-8.36.03-3.6.82-6.41 2.35-8.36 1.64-2.08 4.15-3.15 7.48-3.17 3.35.02 5.91 1.1 7.61 3.19.83 1.02 1.46 2.31 1.87 3.82l2.35-.63c-.5-1.85-1.29-3.44-2.37-4.76-2.18-2.68-5.36-4.05-9.46-4.08h-.02c-4.09.03-7.24 1.41-9.36 4.09-1.88 2.39-2.85 5.72-2.89 9.9s0 .02 0 .02c.03 4.17 1 7.5 2.89 9.9 2.12 2.69 5.26 4.07 9.36 4.09h.02c3.64-.03 6.21-.98 8.32-3.09 2.77-2.76 2.68-6.23 1.77-8.35-.65-1.52-1.9-2.76-3.61-3.58Zm-6.28 5.91c-1.52.09-3.1-.6-3.18-2.06-.06-1.09.77-2.3 3.28-2.44.29-.02.57-.02.84-.02.91 0 1.76.09 2.53.26-.29 3.6-1.98 4.19-3.47 4.27Z"/></svg>