<svg xmlns="http://www.w3.org/2000/svg" viewBox="0 0 32 32" aria-label="thumbnail preview" role="img" fill="currentColor" focusable="false"><path d="M16 23a4 4 0 1 1 4-4 4 4 0 0 1-4 4Zm0-6a2 2 0 1 0 2 2 2 2 0 0 0-2-2ZM10 4v4a2 2 0 0 1-2 2H4a2 2 0 0 1-2-2V4a2 2 0 0 1 2-2h4a2 2 0 0 1 2 2ZM8 8V4H4v4ZM20 4v4a2 2 0 0 1-2 2h-4a2 2 0 0 1-2-2V4a2 2 0 0 1 2-2h4a2 2 0 0 1 2 2Zm-2 4V4h-4v4ZM30 4v4a2 2 0 0 1-2 2h-4a2 2 0 0 1-2-2V4a2 2 0 0 1 2-2h4a2 2 0 0 1 2 2Zm-2 4V4h-4v4Z"/><path d="M28 12H4a2 2 0 0 0-2 2v14a2 2 0 0 0 2 2h24a2 2 0 0 0 2-2V14a2 2 0 0 0-2-2Zm-8 16h-8v-1a1 1 0 0 1 1-1h6a1 1 0 0 1 1 1Zm8 0h-6v-1a3 3 0 0 0-3-3h-6a3 3 0 0 0-3 3v1H4V14h24Z"/></svg>