<svg xmlns="http://www.w3.org/2000/svg" viewBox="0 0 32 32" aria-label="thumbnail 2" role="img" fill="currentColor" focusable="false"><path d="M8 30H4a2 2 0 0 1-2-2v-4a2 2 0 0 1 2-2h4a2 2 0 0 1 2 2v4a2 2 0 0 1-2 2Zm-4-6v4h4v-4ZM18 30h-4a2 2 0 0 1-2-2v-4a2 2 0 0 1 2-2h4a2 2 0 0 1 2 2v4a2 2 0 0 1-2 2Zm-4-6v4h4v-4ZM28 30h-4a2 2 0 0 1-2-2v-4a2 2 0 0 1 2-2h4a2 2 0 0 1 2 2v4a2 2 0 0 1-2 2Zm-4-6v4h4v-4ZM8 20H4a2 2 0 0 1-2-2v-4a2 2 0 0 1 2-2h4a2 2 0 0 1 2 2v4a2 2 0 0 1-2 2Zm-4-6v4h4v-4ZM18 20h-4a2 2 0 0 1-2-2v-4a2 2 0 0 1 2-2h4a2 2 0 0 1 2 2v4a2 2 0 0 1-2 2Zm-4-6v4h4v-4ZM28 20h-4a2 2 0 0 1-2-2v-4a2 2 0 0 1 2-2h4a2 2 0 0 1 2 2v4a2 2 0 0 1-2 2Zm-4-6v4h4v-4ZM8 10H4a2 2 0 0 1-2-2V4a2 2 0 0 1 2-2h4a2 2 0 0 1 2 2v4a2 2 0 0 1-2 2ZM4 4v4h4V4ZM18 10h-4a2 2 0 0 1-2-2V4a2 2 0 0 1 2-2h4a2 2 0 0 1 2 2v4a2 2 0 0 1-2 2Zm-4-6v4h4V4ZM28 10h-4a2 2 0 0 1-2-2V4a2 2 0 0 1 2-2h4a2 2 0 0 1 2 2v4a2 2 0 0 1-2 2Zm-4-6v4h4V4Z"/></svg>