<svg xmlns="http://www.w3.org/2000/svg" viewBox="0 0 32 32" aria-label="thunderstorm strong" role="img" fill="currentColor" focusable="false"><path d="M15.95 30.5 14.22 29.5 17.36 24 11.36 24 16.22 15.5 17.95 16.5 14.81 22 20.81 22 15.95 30.5z"/><path d="M24.85 9.14a9 9 0 0 0-17.6 0 6.49 6.49 0 0 0 .23 12.76l-1.32 2.65a1 1 0 0 0 .44 1.34.93.93 0 0 0 .45.11 1 1 0 0 0 .9-.55l2-4a1 1 0 0 0-.45-1.35 1 1 0 0 0-.45-.1h-.5a4.5 4.5 0 0 1-.36-9H9l.1-.82a7 7 0 0 1 13.88 0l.1.82.82.06a4.5 4.5 0 0 1-.36 9h-.5v2h.5a6.5 6.5 0 0 0 1.3-12.86ZM9.05 32a.93.93 0 0 1-.45-.11 1 1 0 0 1-.44-1.34l2-4a1 1 0 1 1 1.78.9l-2 4a1 1 0 0 1-.89.55ZM21.05 30a.93.93 0 0 1-.45-.11 1 1 0 0 1-.44-1.34l2-4a1 1 0 1 1 1.78.9l-2 4a1 1 0 0 1-.89.55Z"/></svg>