<svg xmlns="http://www.w3.org/2000/svg" viewBox="0 0 32 32" aria-label="thunderstorm scattered" role="img" fill="currentColor" focusable="false"><path d="M20.05 0H22.05V3H20.05z"/><path d="M29.05 10H32.05V12H29.05z"/><path d="M26.78 3.77H29.78V5.77H26.78z" transform="rotate(-45 28.287 4.773)"/><path d="M26.78 16.23H29.78V18.23H26.78z" transform="rotate(-135 28.28 17.236)"/><path d="M12.32 3.77H15.32V5.77H12.32z" transform="rotate(-135 13.82 4.767)"/><path d="M27.05 11a6 6 0 0 0-11.37-2.67A7.19 7.19 0 0 0 13.55 8a7.55 7.55 0 0 0-7.15 5.24A6 6 0 0 0 8.05 25v-2a4 4 0 0 1-.67-7.93L8 15l.15-.66a5.49 5.49 0 0 1 10.72 0l.15.66.66.11a4 4 0 0 1-.63 7.89v2a6 6 0 0 0 5.22-8.95A6 6 0 0 0 27.05 11ZM23 14.49a6.11 6.11 0 0 0-2.28-1.25 7.52 7.52 0 0 0-3.19-4.06A4 4 0 1 1 23 14.49Z"/><path d="M13.39 30 11.65 29 13.94 25 10.05 25 14.04 18 15.78 19 13.5 23 17.39 23 13.39 30z"/></svg>