<svg xmlns="http://www.w3.org/2000/svg" viewBox="0 0 32 32" aria-label="thunderstorm severe" role="img" fill="currentColor" focusable="false"><path d="M28 15a4.23 4.23 0 0 1 .05.5 4.51 4.51 0 0 1-4.5 4.5h-.5v2h.5a6.51 6.51 0 0 0 6.5-6.5V15Z"/><path d="M15.95 30.5 14.21 29.5 17.36 24 11.36 24 16.21 15.5 17.95 16.5 14.81 22 20.81 22 15.95 30.5z"/><path d="M9.05 32a.93.93 0 0 1-.45-.11 1 1 0 0 1-.44-1.34l2-4a1 1 0 1 1 1.78.9l-2 4a1 1 0 0 1-.89.55ZM21.05 30a.93.93 0 0 1-.45-.11 1 1 0 0 1-.44-1.34l2-4a1 1 0 1 1 1.78.9l-2 4a1 1 0 0 1-.89.55ZM8.19 11H9l.1-.82a7 7 0 0 1 10-5.45l1-1.74a8.86 8.86 0 0 0-4-1 9 9 0 0 0-8.8 7.14 6.49 6.49 0 0 0 .18 12.77l-1.32 2.65a1 1 0 0 0 .44 1.34.93.93 0 0 0 .45.11 1 1 0 0 0 .89-.55l2-4a1 1 0 0 0-.44-1.35 1 1 0 0 0-.45-.1h-.5a4.5 4.5 0 0 1-.36-9ZM32 11.94 25.68.37a.72.72 0 0 0-1.26 0l-6.28 11.57a.71.71 0 0 0 .63 1.06h12.56a.71.71 0 0 0 .67-1.06ZM24.3 4h1.5v4h-1.5Zm.75 7a1 1 0 1 1 1-1 1 1 0 0 1-1 1Z"/></svg>