<svg xmlns="http://www.w3.org/2000/svg" viewBox="0 0 32 32" aria-label="thunderstorm scattered night" role="img" fill="currentColor" focusable="false"><path d="M29.84 13a1.5 1.5 0 0 0-1.23-.86 5.35 5.35 0 0 1-3.41-1.72 6.46 6.46 0 0 1-1.28-6.39 1.62 1.62 0 0 0-.3-1.55A1.46 1.46 0 0 0 22.26 2a7.86 7.86 0 0 0-6.13 6.5A7.45 7.45 0 0 0 13.5 8a7.55 7.55 0 0 0-7.15 5.24A6 6 0 0 0 8 25v-2a4 4 0 0 1-.67-7.93L8 15l.15-.66a5.49 5.49 0 0 1 10.72 0L19 15l.66.11A4 4 0 0 1 19 23v2a6 6 0 0 0 6-6 6.32 6.32 0 0 0-.12-1.15 7.46 7.46 0 0 0 4.87-3.3 1.53 1.53 0 0 0 .09-1.55Zm-5.69 3a6 6 0 0 0-3.5-2.71A7.49 7.49 0 0 0 18 9.55a6 6 0 0 1 3.8-5.33 8.44 8.44 0 0 0 1.94 7.59 7.35 7.35 0 0 0 3.9 2.19 5.43 5.43 0 0 1-3.49 2Z"/><path d="M13.34 30 11.6 29 13.89 25 10 25 13.99 18 15.73 19 13.45 23 17.34 23 13.34 30z"/></svg>