<svg xmlns="http://www.w3.org/2000/svg" viewBox="0 0 32 32" aria-label="tools" role="img" fill="currentColor" focusable="false"><path d="m28.54 21.46-6.89-6.88A10 10 0 0 0 6.49 3.66l6.92 6.93a2 2 0 0 1-2.82 2.82L3.66 6.49A9.91 9.91 0 0 0 2 12a10 10 0 0 0 12.58 9.65l6.88 6.89a5 5 0 0 0 7.08-7.08Zm-1.42 5.66a3 3 0 0 1-4.24 0l-7.76-7.76A7.91 7.91 0 0 1 12 20a8 8 0 0 1-8-8 7.76 7.76 0 0 1 .28-2.06l4.89 4.89a4 4 0 0 0 5.66-5.66L9.94 4.28A7.76 7.76 0 0 1 12 4a8 8 0 0 1 7.37 11.12l7.75 7.76a3 3 0 0 1 0 4.24Z"/></svg>