<svg xmlns="http://www.w3.org/2000/svg" viewBox="0 0 32 32" aria-label="tooth" role="img" fill="currentColor" focusable="false"><path d="M22 31c-.05.01.05-.01 0 0ZM11.3 31h.04H11 11.3ZM27.71 4.66c-.92-1.36-2.09-2.46-3.22-3.03a5.78 5.78 0 0 0-2.3-.63c-.41.01-1.13.08-1.52.18-.61.15-.92.26-2.11.73-1.01.4-1.66.61-2.27.66-.61-.05-1.26-.26-2.27-.66-1.19-.47-1.5-.58-2.11-.73-.39-.1-1.11-.17-1.52-.18-.81.05-1.54.25-2.3.63-1.13.57-2.3 1.67-3.22 3.03-.88 1.3-1.29 2.69-1.29 4.38s.25 2.72 1.59 6.64c.46 1.36.49 1.52.56 3.38.26 7.17 1.75 11.04 4.58 11.83.05.01.63.11.68.12h.35c1.28-.02 2.36-.85 2.77-2 .11-.31.18-.64.18-.99v-3a2 2 0 0 1 1.97-2h.06a2 2 0 0 1 1.97 2v3c0 .35.07.68.18.99a2.997 2.997 0 0 0 2.77 2h.35s.63-.11.68-.12c2.83-.79 4.32-4.66 4.58-11.83.07-1.86.1-2.02.56-3.38C28.75 11.76 29 10.73 29 9.04s-.41-3.08-1.29-4.38ZM25.5 15.05c-.53 1.56-.59 1.89-.66 3.95-.3 8.3-2.43 9.78-3.26 10.01h-.33a.993.993 0 0 1-.96-.99v-3c0-2.2-1.77-3.98-3.97-4h-.06c-2.2.02-3.97 1.8-3.97 4v3c0 .54-.43.97-.96.99H11c-.83-.23-2.96-1.71-3.26-10.01-.07-2.06-.13-2.39-.66-3.95-1.3-3.83-1.48-4.68-1.48-6s.29-2.29.94-3.26C7.26 4.73 8.18 3.84 9 3.43c.51-.26.97-.38 1.5-.42.31.02.73.07.92.12.48.12.71.2 1.87.65 1.24.49 2.11.74 2.96.79h.07c.85-.05 1.72-.3 2.96-.79 1.16-.45 1.39-.53 1.87-.65.19-.05.61-.1.92-.12.53.04.99.16 1.5.42.82.41 1.74 1.3 2.46 2.36.65.97.94 1.94.94 3.26s-.18 2.17-1.48 6Z"/><path d="M22.07 6.61c1.73 1.3 2.08 3.75.79 5.48l.81.58.81.58A5.995 5.995 0 0 0 21.25 4l-1.26 1.76c.68.07 1.34.31 1.93.74.05.03.1.07.14.1Z"/></svg>