<svg xmlns="http://www.w3.org/2000/svg" viewBox="0 0 32 32" aria-label="touch interaction" role="img" fill="currentColor" focusable="false"><path d="M28 12h-6v-2h6V4H4v6h4v2H4a2 2 0 0 1-2-2V4a2 2 0 0 1 2-2h24a2 2 0 0 1 2 2v6a2 2 0 0 1-2 2Z"/><path d="M26 21v-1a1 1 0 0 1 2 0v10h2V20a3 3 0 0 0-3-3 2.94 2.94 0 0 0-1.47.4A3 3 0 0 0 23 16a2.94 2.94 0 0 0-1.47.4A3 3 0 0 0 18 15.18V10a3 3 0 0 0-6 0v11.1l-2.23-1.52A2.93 2.93 0 0 0 8 19a3 3 0 0 0-2.12 5.13L12.32 30l1.35-1.48-6.38-5.82A1 1 0 0 1 7 22a1 1 0 0 1 1-1 1 1 0 0 1 .6.2l5.4 3.7V10a1 1 0 0 1 2 0v11h2v-3a1 1 0 0 1 2 0v3h2v-2a1 1 0 0 1 2 0v2Z"/></svg>