<svg xmlns="http://www.w3.org/2000/svg" viewBox="0 0 32 32" aria-label="track chair" role="img" fill="currentColor" focusable="false"><path d="m26.2 25-4.39-5H25v-2h-5l-1.76-2a3 3 0 0 0-4.54 0L12 18H9.89l-.59-5H23v-2H9.07L8 1.88l-2 .24 2 17A1 1 0 0 0 9 20h1.19L5.8 25a3 3 0 0 0 2.27 5h15.86a3 3 0 0 0 2.27-5Zm-1.32 2.44a1 1 0 0 1-.95.61H8.07a1 1 0 0 1-1-.61 1 1 0 0 1 .17-1.12l7.93-8.92a1 1 0 0 1 1.56 0l7.93 8.92a1 1 0 0 1 .22 1.07Z"/><path d="M21 9V7h-2V6a1 1 0 0 0-2 0v1h-2v2Z"/><circle cx="16" cy="20" r="1"/><circle cx="21" cy="26" r="1"/><circle cx="11" cy="26" r="1"/></svg>