<svg xmlns="http://www.w3.org/2000/svg" viewBox="0 0 32 32" aria-label="traffic incident" role="img" fill="currentColor" focusable="false"><path d="M2 28H30V30H2z"/><path d="M11.31 11.51H17.310000000000002V13.51H11.31z" transform="rotate(-45 14.316 12.52)"/><path d="m12.08 23.43 4.12 2.32c.78.43 1.75.29 2.39-.33l8.83-8.83c.63-.63.76-1.6.33-2.39l-2.3-4.14 1.79-1.79-1.41-1.41-1.41 1.41-4.95-4.95c-.78-.78-2.05-.78-2.83 0L14.52 1.2l-1.41 1.41 2.12 2.12-8.49 8.49-2.12-2.12-1.41 1.41 2.12 2.12c-.78.78-.78 2.05 0 2.83l4.95 4.95-1.41 1.41 1.41 1.41 1.81-1.81ZM26 15.17 17.17 24l-4.55-2.53 10.85-10.85 2.52 4.55ZM9.56 18.88l1.41-1.41-1.41-1.41-1.41 1.41-1.41-1.41L18.05 4.74l1.41 1.41-1.41 1.41 1.41 1.41 1.41-1.41 1.41 1.41-11.31 11.31-1.41-1.41Z"/></svg>