<svg xmlns="http://www.w3.org/2000/svg" viewBox="0 0 32 32" aria-label="tree" role="img" fill="currentColor" focusable="false"><path d="M12 30H9v-2h3V15.57l-3.51-2.11 1-1.72L13 13.85a2 2 0 0 1 1 1.72V28a2 2 0 0 1-2 2Z"/><path d="M22 30h-3a2 2 0 0 1-2-2V17h6a4 4 0 0 0 4-4v-.4A4.15 4.15 0 0 0 22.79 9H21.2l-.2-.78C20.45 5.7 18 4 15 4a6 6 0 0 0-5.44 3.49l-.31.66L8.39 8A2.58 2.58 0 0 0 8 8a4 4 0 0 0 0 8v2A6 6 0 0 1 8 6h.08A8 8 0 0 1 15 2c3.68 0 6.69 2 7.75 5A6.15 6.15 0 0 1 29 12.41 6 6 0 0 1 23.58 19a5.49 5.49 0 0 1-.58 0h-4v9h3Z"/></svg>