<svg xmlns="http://www.w3.org/2000/svg" viewBox="0 0 32 32" aria-label="tree view alt" role="img" fill="currentColor" focusable="false"><path d="M23 9h6a2 2 0 0 0 2-2V3a2 2 0 0 0-2-2h-6a2 2 0 0 0-2 2v1H11V3a2 2 0 0 0-2-2H3a2 2 0 0 0-2 2v4a2 2 0 0 0 2 2h6a2 2 0 0 0 2-2V6h4v20a2 2 0 0 0 2 2h4v1a2 2 0 0 0 2 2h6a2 2 0 0 0 2-2v-4a2 2 0 0 0-2-2h-6a2 2 0 0 0-2 2v1h-4v-9h4v1a2 2 0 0 0 2 2h6a2 2 0 0 0 2-2v-4a2 2 0 0 0-2-2h-6a2 2 0 0 0-2 2v1h-4V6h4v1a2 2 0 0 0 2 2Zm0-6h6v4h-6ZM9 7H3V3h6Zm14 18h6v4h-6Zm0-11h6v4h-6Z"/></svg>