<svg xmlns="http://www.w3.org/2000/svg" viewBox="0 0 32 32" aria-label="tropical storm" role="img" fill="currentColor" focusable="false"><path d="M16 21a5 5 0 1 1 5-5 5 5 0 0 1-5 5Zm0-8a3 3 0 1 0 3 3 3 3 0 0 0-3-3Z"/><path d="M22.65 4.18 20.48 6.7l-1.41 1.62 1.72 1.28A8 8 0 0 1 24 16v.1c0 .43.24 10.11-14.66 11.72l2.19-2.52 1.4-1.62-1.72-1.28A8 8 0 0 1 8 16v-.1c0-.43-.24-10.09 14.65-11.72M25 2C5.25 2.91 6 16 6 16a10 10 0 0 0 4 8l-3.76 4.36A1 1 0 0 0 7 30c19.7-.91 19-14 19-14a10 10 0 0 0-4-8l3.77-4.37A1 1 0 0 0 25 2Z"/></svg>