<svg xmlns="http://www.w3.org/2000/svg" viewBox="0 0 32 32" aria-label="turkey" role="img" fill="currentColor" focusable="false"><circle cx="8" cy="9" r="1"/><path d="M30 9a4 4 0 0 0-4-4V3a1 1 0 0 0-1-1h-1a4 4 0 0 0-4 4v1a4 4 0 0 0-4 4v1.14a9.35 9.35 0 0 0-2.69 2.15l-.31.32V9A5 5 0 0 0 3 9a4.85 4.85 0 0 0 .28 1.57l-.13-.13-1.86 1.85 1.42 1.42 1.49-1.5a4.52 4.52 0 0 0 .53.54L2.32 20.9A7.13 7.13 0 0 0 2 23a7 7 0 0 0 7 7h11.5a9.47 9.47 0 0 0 5.61-1.84l2.31 1.65A1 1 0 0 0 29 30a1.07 1.07 0 0 0 .46-.11A1 1 0 0 0 30 29v-9Zm-6-5v7.68a9.11 9.11 0 0 0-2-.55V6a2 2 0 0 1 2-2Zm-6 7a2 2 0 0 1 2-2v2a9 9 0 0 0-2 .32Zm2.5 17H9a5 5 0 0 1-5-5 5.29 5.29 0 0 1 .23-1.52l2.29-7.73A4.84 4.84 0 0 0 8 14v-2a3 3 0 1 1 3-3v10h2v-1.57l1.78-1.78a7.5 7.5 0 0 1 13.16 3.93l-2.35 2a6.46 6.46 0 0 1-8.88-.24l-1.42 1.42a8.45 8.45 0 0 0 6 2.48h.62L24.38 27a7.47 7.47 0 0 1-3.88 1Zm4-3.45A8.22 8.22 0 0 0 26.89 23l1.11-.88v4.94ZM26 12.77V7a2 2 0 0 1 2 2v5.69a9.59 9.59 0 0 0-2-1.92Z"/></svg>