<svg xmlns="http://www.w3.org/2000/svg" viewBox="0 0 32 32" aria-label="twitter" role="img" fill="currentColor" focusable="false"><path d="m27.64 9.86-.07.06a.88.88 0 0 0-.43.93 16.05 16.05 0 0 1-1.22 6.37 16.76 16.76 0 0 1-2.59 4.39 15.76 15.76 0 0 1-3 2.85 15.38 15.38 0 0 1-4.09 2.1 16.11 16.11 0 0 1-4 .8 16.79 16.79 0 0 1-4.85-.28 15 15 0 0 1-3.89-1.35c-.51-.26-1-.54-1.52-.85a12.64 12.64 0 0 0 4.42-.4 10.71 10.71 0 0 0 3.93-2 5.79 5.79 0 0 1-5.26-4c.41 0 .82.06 1.22.05a10.19 10.19 0 0 0 1.22-.16A5.86 5.86 0 0 1 3 12.67a6.49 6.49 0 0 0 2.57.64 5.81 5.81 0 0 1-2.38-3.5 5.73 5.73 0 0 1 .63-4.16 16.48 16.48 0 0 0 11.87 6c0-.36-.09-.7-.1-1a5.52 5.52 0 0 1 1.84-4.52 5.59 5.59 0 0 1 5.11-1.43 5.42 5.42 0 0 1 2.87 1.53.36.36 0 0 0 .39.12A12.11 12.11 0 0 0 29 5.12l.12-.06h.07a5.87 5.87 0 0 1-2.36 3.07A10.23 10.23 0 0 0 30 7.29a11.19 11.19 0 0 1-2.36 2.57Z"/></svg>