<svg xmlns="http://www.w3.org/2000/svg" viewBox="0 0 32 32" aria-label="two person lift" role="img" fill="currentColor" focusable="false"><path d="M23 5.5A3.5 3.5 0 1 1 26.5 9 3.5 3.5 0 0 1 23 5.5Zm2 0A1.5 1.5 0 1 0 26.5 4 1.5 1.5 0 0 0 25 5.5ZM20 19a2 2 0 0 1-2-2v-2a2 2 0 0 1 2-2h2v-3H10v3h2a2 2 0 0 1 2 2v2a2 2 0 0 1-2 2h-2v3h12v-3Z"/><path d="m27 30-2-6.73a1 1 0 0 1 .34-1.05l4.49-3.6-1.31-5.42-2.74 3.42A1 1 0 0 1 25 17h-5v-2h4.52l3.7-4.62a1 1 0 0 1 1.75.38l2 8a1 1 0 0 1-.34 1l-4.49 3.59 1.74 6.08ZM5 30l2-6.73a1 1 0 0 0-.34-1.05l-4.49-3.6 1.31-5.42 2.74 3.42A1 1 0 0 0 7 17h5v-2H7.48l-3.7-4.62a1 1 0 0 0-1.78.38l-2 8a1 1 0 0 0 .34 1l4.49 3.59-1.71 6.1ZM5.5 9A3.5 3.5 0 1 1 9 5.5 3.5 3.5 0 0 1 5.5 9Zm0-5A1.5 1.5 0 1 0 7 5.5 1.5 1.5 0 0 0 5.5 4Z"/></svg>