<svg xmlns="http://www.w3.org/2000/svg" viewBox="0 0 32 32" aria-label="type pattern" role="img" fill="currentColor" focusable="false"><path d="M30 15 17 15 17 2 15 2 15 15 2 15 2 17 15 17 15 30 17 30 17 17 30 17 30 15z"/><path d="M25.59 20 27 21.41 23.41 25 27 28.59 25.59 30 20.59 25 25.59 20z"/><path d="M11 30H3a1 1 0 0 1-.89-1.45l4-8a1 1 0 0 1 1.78 0l4 8A1 1 0 0 1 11 30Zm-6.38-2h4.76L7 23.24ZM28 12h-6a2 2 0 0 1-2-2V4a2 2 0 0 1 2-2h6a2 2 0 0 1 2 2v6a2 2 0 0 1-2 2Zm-6-8v6h6V4ZM7 12a5 5 0 1 1 5-5 5 5 0 0 1-5 5Zm0-8a3 3 0 1 0 3 3 3 3 0 0 0-3-3Z"/></svg>