<svg xmlns="http://www.w3.org/2000/svg" viewBox="0 0 32 32" aria-label="umbrella" role="img" fill="currentColor" focusable="false"><path d="M30 15.83A14.39 14.39 0 0 0 17 4.05V2h-2v2.05A14.39 14.39 0 0 0 2 15.83a1 1 0 0 0 1.5 1A4.8 4.8 0 0 1 6 16a4.86 4.86 0 0 1 4.14 2.51 1 1 0 0 0 1.72 0A5 5 0 0 1 15 16.13v9.37a2.5 2.5 0 0 1-5 0V25H8v.5a4.5 4.5 0 0 0 9 0v-9.37a5 5 0 0 1 3.14 2.38 1 1 0 0 0 1.72 0A4.86 4.86 0 0 1 26 16a4.8 4.8 0 0 1 2.49.86 1 1 0 0 0 1.5-1ZM6 14a5.38 5.38 0 0 0-1.5.21A12.43 12.43 0 0 1 13 6.4a14.55 14.55 0 0 0-3 8.93A6.59 6.59 0 0 0 6 14Zm10 0a6.61 6.61 0 0 0-4.06 1.43c0-2.22.61-6.49 4.06-9.18 3.43 2.68 4 7 4.05 9.18A6.5 6.5 0 0 0 16 14Zm10 0a6.59 6.59 0 0 0-3.94 1.33A14.55 14.55 0 0 0 19 6.4a12.43 12.43 0 0 1 8.48 7.81A5.38 5.38 0 0 0 26 14Z"/></svg>