<svg xmlns="http://www.w3.org/2000/svg" viewBox="0 0 32 32" aria-label="unknown" role="img" fill="currentColor" focusable="false"><circle cx="16" cy="22.51" r="1.5"/><path d="M16 30a2.05 2.05 0 0 1-1.47-.61L2.61 17.48a2.08 2.08 0 0 1 0-2.94L14.53 2.62a2.08 2.08 0 0 1 2.94 0l11.92 11.92a2.08 2.08 0 0 1 0 2.94L17.47 29.4A2.05 2.05 0 0 1 16 30Zm0-26h-.06L4 16a.09.09 0 0 0 0 .12L15.94 28a.09.09 0 0 0 .12 0L28 16.07a.09.09 0 0 0 0-.07L16.06 4Z"/><path d="M17 19h-2v-4h2a2 2 0 0 0 0-4h-2a2 2 0 0 0-2 2v.5h-2V13a4 4 0 0 1 4-4h2a4 4 0 0 1 0 8Z"/></svg>