<svg xmlns="http://www.w3.org/2000/svg" viewBox="0 0 32 32" aria-label="user simulation" role="img" fill="currentColor" focusable="false"><path d="M25.23 12.87H29.23V14.87H25.23z" transform="rotate(30 27.234 13.863)"/><path d="M26 8H30V10H26z"/><path d="M2.77 12.87H6.77V14.87H2.77z" transform="rotate(150 4.768 13.866)"/><path d="M26 30h-2v-5a5 5 0 0 0-5-5h-6a5 5 0 0 0-5 5v5H6v-5a7 7 0 0 1 7-7h6a7 7 0 0 1 7 7ZM16 4a5 5 0 1 1-5 5 5 5 0 0 1 5-5m0-2a7 7 0 1 0 7 7 7 7 0 0 0-7-7Z"/><path d="M25.23 3.13H29.23V5.13H25.23z" transform="rotate(-30 27.232 4.137)"/><path d="M2 8H6V10H2z"/><path d="M2.77 3.13H6.77V5.13H2.77z" transform="rotate(-150 4.768 4.135)"/></svg>