<svg xmlns="http://www.w3.org/2000/svg" viewBox="0 0 32 32" aria-label="user favorite alt" role="img" fill="currentColor" focusable="false"><path d="M28.77 4.26A4.22 4.22 0 0 0 23 4a4.22 4.22 0 0 0-5.77.23 4.32 4.32 0 0 0 0 6L23 16.14l5.77-5.84a4.32 4.32 0 0 0 0-6.04Zm-1.43 4.63L23 13.29l-4.34-4.4a2.31 2.31 0 0 1 0-3.23 2.26 2.26 0 0 1 3.15 0L23 6.87l1.18-1.21a2.26 2.26 0 0 1 3.15 0 2.31 2.31 0 0 1 .01 3.23ZM16 30h-2v-5a3 3 0 0 0-3-3H7a3 3 0 0 0-3 3v5H2v-5a5 5 0 0 1 5-5h4a5 5 0 0 1 5 5ZM9 10a3 3 0 1 1-3 3 3 3 0 0 1 3-3m0-2a5 5 0 1 0 5 5 5 5 0 0 0-5-5Z"/></svg>