<svg xmlns="http://www.w3.org/2000/svg" viewBox="0 0 32 32" aria-label="uv index" role="img" fill="currentColor" focusable="false"><path d="m16.05 5.91 1.74 2.93.79 1.32 1.47-.41 3.12-.87L22.3 12l-.41 1.47 1.31.79L26.14 16l-2.94 1.74-1.31.79.41 1.47.87 3.12-3.12-.87-1.47-.41-.79 1.32-1.74 2.93-1.75-2.93-.78-1.32-1.47.41-3.12.87L9.8 20l.41-1.47-1.32-.79L6 16l2.93-1.74 1.32-.79L9.8 12l-.87-3.12 3.12.87 1.47.41.78-1.32 1.75-2.93m0-3.91-3.46 5.82L6.05 6l1.82 6.54L2.05 16l5.82 3.46L6.05 26l6.54-1.82L16.05 30l3.46-5.82L26.05 26l-1.82-6.54L30.05 16l-5.82-3.46L26.05 6l-6.54 1.82L16.05 2Z"/></svg>