<svg xmlns="http://www.w3.org/2000/svg" viewBox="0 0 32 32" aria-label="veteran" role="img" fill="currentColor" focusable="false"><path d="M25 12.95 23.41 15.95 20 16.36 22.5 18.61 22 21.95 25 20.07 28 21.95 27.5 18.61 30 16.36 26.5 15.95 25 12.95z"/><path d="M21.41 13.36 25 9.78 25 9.78 28.59 13.36 30 11.95 25 6.95 20 11.95 21.41 13.36z"/><path d="M21.41 8.36 25 4.78 25 4.78 28.59 8.36 30 6.95 25 1.95 20 6.95 21.41 8.36z"/><path d="M16 30h-2v-5a3 3 0 0 0-3-3H7a3 3 0 0 0-3 3v5H2v-5a5 5 0 0 1 5-5h4a5 5 0 0 1 5 5ZM9 10a3 3 0 1 1-3 3 3 3 0 0 1 3-3m0-2a5 5 0 1 0 5 5 5 5 0 0 0-5-5Z"/></svg>