<svg xmlns="http://www.w3.org/2000/svg" viewBox="0 0 32 32" aria-label="virtual machine" role="img" fill="currentColor" focusable="false"><path d="M25.91 10.13a.13.13 0 0 1-.1-.09 10 10 0 0 0-7.92-7.86A10.27 10.27 0 0 0 16 2a10 10 0 0 0-9.8 8 .13.13 0 0 1-.1.1A7.5 7.5 0 0 0 7.49 25H8v-2h-.5a5.51 5.51 0 0 1-5.44-6.3A5.69 5.69 0 0 1 6.77 12l1-.18a.14.14 0 0 0 .1-.11l.18-.93a8.31 8.31 0 0 1 6.85-6.75 8 8 0 0 1 2.85.13 8.21 8.21 0 0 1 6.14 6.54l.2 1a.14.14 0 0 0 .1.11l1.06.19a5.75 5.75 0 0 1 3.1 1.54A5.5 5.5 0 0 1 24.51 23H24v2h.51a7.5 7.5 0 0 0 1.4-14.87Z"/><path d="M20 13h-8a2 2 0 0 0-2 2v13a2 2 0 0 0 2 2h8a2 2 0 0 0 2-2V15a2 2 0 0 0-2-2Zm0 2v3h-8v-3Zm0 5v3h-8v-3Zm-8 8v-3h8v3Z"/></svg>