<svg xmlns="http://www.w3.org/2000/svg" viewBox="0 0 32 32" aria-label="volleyball" role="img" fill="currentColor" focusable="false"><circle cx="11.01" cy="2.02" r="2"/><path d="M7.5 14A3.5 3.5 0 1 0 4 10.5 3.5 3.5 0 0 0 7.5 14Zm0-5A1.5 1.5 0 1 1 6 10.5 1.5 1.5 0 0 1 7.5 9Z"/><path d="M18.73 9.69a1 1 0 0 0 .24-1L16.65 2l-1.89.66 2.11 6.05-8.58 8.55A1 1 0 0 0 8 18v4H4v2h5a1 1 0 0 0 1-1v-4.62Z"/><path d="M17 21.34H19V30.65H17z" transform="rotate(-45 17.998 25.995)"/><path d="M20 11.69H22V32.32H20z" transform="rotate(-45 20.994 22.004)"/></svg>