<svg xmlns="http://www.w3.org/2000/svg" viewBox="0 0 32 32" aria-label="wastewater" role="img" fill="currentColor" focusable="false"><path d="M28 26.03c-1.39-.08-2.6-1-3.05-2.32-.1-.3-.33-.53-.63-.63a.999.999 0 0 0-1.27.63A3.438 3.438 0 0 1 20 26.03c-1.39-.08-2.6-1-3.05-2.32a1 1 0 0 0-.95-.68 1 1 0 0 0-.95.68A3.438 3.438 0 0 1 12 26.03c-1.39-.08-2.6-1-3.05-2.32a1 1 0 0 0-.95-.68.99.99 0 0 0-.95.68A3.438 3.438 0 0 1 4 26.03H2v2h2c1.57.01 3.06-.72 4-1.99.28.37.6.69.97.97 2.21 1.67 5.36 1.24 7.03-.97.28.37.6.69.97.97 2.21 1.67 5.36 1.24 7.03-.97.94 1.26 2.43 2 4 1.99h2v-2h-2ZM23 20.03h-2v-6c0-1.65-1.35-3-3-3h-3v-2h3c2.76 0 5 2.24 5 5v6Z"/><path d="M27 18.03h-2v-4c0-3.86-3.14-7-7-7h-1v-2h1c4.96 0 9 4.04 9 9v4Z"/><path d="M11 3.03 11 4.03 2 4.03 2 6.03 11 6.03 11 10.03 2 10.03 2 12.03 11 12.03 11 13.03 13 13.03 13 3.03 11 3.03z"/></svg>