<svg xmlns="http://www.w3.org/2000/svg" viewBox="0 0 32 32" aria-label="water canister" role="img" fill="currentColor" focusable="false"><path d="M27 30a3.9 3.9 0 0 1-4-3.78 4 4 0 0 1 .65-2.06l2.52-3.75a1 1 0 0 1 1.45-.2 1.34 1.34 0 0 1 .21.2l2.49 3.7a4 4 0 0 1 .68 2.11A3.9 3.9 0 0 1 27 30Zm0-7.24-1.66 2.47a1.93 1.93 0 0 0-.34 1 2 2 0 0 0 4 0 1.89 1.89 0 0 0-.38-1Z"/><path d="M16 2v6h3v1h-1a2 2 0 0 0-2 2v17a2 2 0 0 0 2 2h4v-2h-4V11h3V6h-3V4h8v2h-3v5h3v7h2v-7a2 2 0 0 0-2-2h-1V8h3V2ZM2 2v6h3v1H4a2 2 0 0 0-2 2v17a2 2 0 0 0 2 2h8a2 2 0 0 0 2-2V11a2 2 0 0 0-2-2h-1V8h3V2Zm10 4H9v5h3v17H4V11h3V6H4V4h8Z"/></svg>