<svg xmlns="http://www.w3.org/2000/svg" viewBox="0 0 32 32" aria-label="waves" role="img" fill="currentColor" focusable="false"><path d="M32 23h-2a4.92 4.92 0 0 1-4-2 5 5 0 0 1-7 1 5 5 0 0 1-1-1 5 5 0 0 1-7 1 5 5 0 0 1-1-1 4.93 4.93 0 0 1-4 2H4v-2h2a3.44 3.44 0 0 0 3-2.3 1 1 0 0 1 1-.7 1 1 0 0 1 .95.68A3.44 3.44 0 0 0 14 21a3.44 3.44 0 0 0 3-2.32 1 1 0 0 1 1-.68 1 1 0 0 1 1 .68A3.44 3.44 0 0 0 22 21a3.44 3.44 0 0 0 3-2.3 1 1 0 0 1 1.9 0A3.44 3.44 0 0 0 30 21h2ZM28 14h-2a4.93 4.93 0 0 1-4-2 5 5 0 0 1-7 1 5 5 0 0 1-1-1 5 5 0 0 1-7 1 5 5 0 0 1-1-1 4.93 4.93 0 0 1-4 2H0v-2h2a3.44 3.44 0 0 0 3.05-2.35A1 1 0 0 1 6 9a1 1 0 0 1 1 .68A3.44 3.44 0 0 0 10 12a3.44 3.44 0 0 0 3.05-2.32A1 1 0 0 1 14 9a1 1 0 0 1 .95.68A3.44 3.44 0 0 0 18 12a3.44 3.44 0 0 0 3.05-2.32 1 1 0 0 1 1.9 0A3.44 3.44 0 0 0 26 12h2Z"/></svg>