<svg xmlns="http://www.w3.org/2000/svg" viewBox="0 0 32 32" aria-label="wifi off" role="img" fill="currentColor" focusable="false"><circle cx="16" cy="25" r="2"/><path d="m14.68 13.08 2-2h-.72a14 14 0 0 0-9.77 4L7.6 16.5a12 12 0 0 1 7.08-3.42ZM16 7a17.38 17.38 0 0 1 4.23.53l1.65-1.65A20 20 0 0 0 2 10.74l1.41 1.41A17.91 17.91 0 0 1 16 7ZM30 3.41 28.59 2 2 28.59 3.42 30 14.1 19.32a5.92 5.92 0 0 1 6 1.32l1.41-1.42A8 8 0 0 0 16.4 17l3.38-3.39a12.08 12.08 0 0 1 4.57 2.77L25.76 15a14 14 0 0 0-4.42-2.9l3-3a17.82 17.82 0 0 1 4.26 3.08l1.4-1.44a20.21 20.21 0 0 0-4.19-3.14Z"/></svg>