<svg xmlns="http://www.w3.org/2000/svg" viewBox="0 0 32 32" aria-label="window base" role="img" fill="currentColor" focusable="false"><path d="M15 2H17V5H15z"/><path d="M25 13H28V15H25z"/><path d="M15 23H17V26H15z"/><path d="M4 13H7V15H4z"/><path d="M7.55 5.03H9.55V8.030000000000001H7.55z" transform="rotate(-45 8.549 6.54)"/><path d="M21.96 5.54H24.96V7.54H21.96z" transform="rotate(-45 23.469 6.539)"/><path d="M22.46 19.94H24.46V22.94H22.46z" transform="rotate(-45 23.462 21.442)"/><path d="M7.05 20.45H10.05V22.45H7.05z" transform="rotate(-45 8.542 21.442)"/><path d="M4 28H28V30H4z"/><path d="M16 20a6 6 0 1 0-6-6 6 6 0 0 0 6 6Zm0-10v8a4 4 0 0 1 0-8Z"/></svg>