<svg xmlns="http://www.w3.org/2000/svg" viewBox="0 0 32 32" aria-label="windy snow" role="img" fill="currentColor" focusable="false"><path d="M23.05 15h-13v-2h13a3 3 0 1 0-3-3h-2a5 5 0 1 1 5 5ZM25.05 28a5 5 0 0 1-5-5h2a3 3 0 1 0 3-3h-19v-2h19a5 5 0 0 1 0 10Z"/><path d="M11.05 23H13.05V25H11.05z"/><path d="M13.05 25H15.05V27H13.05z"/><path d="M15.05 27H17.05V29H15.05z"/><path d="M15.05 23H17.05V25H15.05z"/><path d="M11.05 27H13.05V29H11.05z"/><path d="M6.05 4H8.05V6H6.05z"/><path d="M8.05 6H10.05V8H8.05z"/><path d="M10.05 8H12.05V10H10.05z"/><path d="M10.05 4H12.05V6H10.05z"/><path d="M6.05 8H8.05V10H6.05z"/><path d="M2.05 26H4.05V28H2.05z"/><path d="M4.05 28H6.05V30H4.05z"/><path d="M6.05 30H8.05V32H6.05z"/><path d="M6.05 26H8.05V28H6.05z"/><path d="M2.05 30H4.05V32H2.05z"/></svg>