<svg xmlns="http://www.w3.org/2000/svg" viewBox="0 0 32 32" aria-label="window preset" role="img" fill="currentColor" focusable="false"><path d="M15 6H17V8H15z"/><path d="M24 15H26V17H24z"/><path d="M15 24H17V26H15z"/><path d="M6 15H8V17H6z"/><path d="M8.59 8.59H10.59V10.59H8.59z" transform="rotate(-45 9.591 9.587)"/><path d="M21.41 8.59H23.41V10.59H21.41z" transform="rotate(-45 22.42 9.583)"/><path d="M21.41 21.41H23.41V23.41H21.41z" transform="rotate(-45 22.411 22.407)"/><path d="M8.59 21.41H10.59V23.41H8.59z" transform="rotate(-45 9.583 22.41)"/><path d="M16 22a6 6 0 1 0-6-6 6 6 0 0 0 6 6Zm0-10v8a4 4 0 0 1 0-8Z"/><path d="M28 30H4a2 2 0 0 1-2-2V4a2 2 0 0 1 2-2h24a2 2 0 0 1 2 2v24a2 2 0 0 1-2 2ZM4 4v24h24V4Z"/></svg>