<svg xmlns="http://www.w3.org/2000/svg" viewBox="0 0 32 32" aria-label="wintry mix" role="img" fill="currentColor" focusable="false"><path d="M15.05 26.01H17.05V28.01H15.05z"/><path d="M17.05 28.01H19.05V30.01H17.05z"/><path d="M19.05 30.01H21.05V32.010000000000005H19.05z"/><path d="M19.05 26.01H21.05V28.01H19.05z"/><path d="M15.05 30.01H17.05V32.010000000000005H15.05z"/><path d="M13.05 16.01H15.05V18.01H13.05z"/><path d="M15.05 18.01H17.05V20.01H15.05z"/><path d="M17.05 20.01H19.05V22.01H17.05z"/><path d="M17.05 16.01H19.05V18.01H17.05z"/><path d="M13.05 20.01H15.05V22.01H13.05z"/><path d="M10.05 30a.93.93 0 0 1-.45-.11 1 1 0 0 1-.44-1.34l2-4a1 1 0 0 1 1.78.9l-2 4a1 1 0 0 1-.89.55Z"/><path d="M24.85 9.15a9 9 0 0 0-17.6 0 6.52 6.52 0 0 0-5.2 6.36V22l1 2 1-2v-1.81a6.49 6.49 0 0 0 3.43 1.72l-1.32 2.65a1 1 0 0 0 .44 1.34.93.93 0 0 0 .45.11 1 1 0 0 0 .9-.55l2-4a1 1 0 0 0-.44-1.34A1 1 0 0 0 9 20h-.45a4.5 4.5 0 0 1-.36-9H9l.1-.82a7 7 0 0 1 13.88 0l.1.82.82.06a4.5 4.5 0 0 1-.36 9H23a1 1 0 0 0-1 1v3l1 2 1-2V22a6.36 6.36 0 0 0 2-.47V26l1 2 1-2v-5.81a6.48 6.48 0 0 0-3.2-11Z"/></svg>