<svg xmlns="http://www.w3.org/2000/svg" viewBox="0 0 32 32" aria-label="worship" role="img" fill="currentColor" focusable="false"><path d="M21.5 17.05a3.5 3.5 0 1 1 3.5-3.5 3.5 3.5 0 0 1-3.5 3.5Zm0-5a1.5 1.5 0 1 0 1.5 1.5 1.5 1.5 0 0 0-1.5-1.5Z"/><path d="M26.59 17.05 22 21.64l-5-5a2 2 0 0 0-2.83 0l-4.58 4.58a2 2 0 0 0 0 2.83l4 4H6v2h10a1 1 0 0 0 .93-.62 1 1 0 0 0-.22-1.09L11 22.64l4.59-4.59 5.7 5.71a1 1 0 0 0 .71.29 1 1 0 0 0 .71-.29l5.29-5.3Z"/><path d="m4 10.65 12-6.46 12.53 6.74.95-1.76-13-7a1 1 0 0 0-1 0l-13 7a1 1 0 0 0-.53.88v20H4Z"/></svg>