<svg xmlns="http://www.w3.org/2000/svg" viewBox="0 0 32 32" aria-label="worship jewish" role="img" fill="currentColor" focusable="false"><path d="m24.29 16.05 3.59-6.52a1 1 0 0 0 0-1 1 1 0 0 0-.88-.48h-7.11l-3-5.48a1 1 0 0 0-.89-.52 1 1 0 0 0-.88.52l-3 5.48H5a1 1 0 0 0-.86.49 1 1 0 0 0 0 1l3.59 6.52-3.61 6.51a1 1 0 0 0 0 1 1 1 0 0 0 .86.49h7.11l3 5.48a1 1 0 0 0 .88.52 1 1 0 0 0 .88-.52l3-5.48H27a1 1 0 0 0 .86-.49 1 1 0 0 0 0-1Zm-5.58 6L16 27l-2.71-4.93h-6.6l3.3-6-3.3-6h6.6L16 5.13l2.71 4.92h6.6l-3.3 6 3.3 6Z"/></svg>