<svg xmlns="http://www.w3.org/2000/svg" viewBox="0 0 32 32" aria-label="worship muslim" role="img" fill="currentColor" focusable="false"><path d="M27 18.05a1 1 0 0 1-.54-.16L22 15l-4.46 2.87A1 1 0 0 1 16 16.8l1.35-5.14-3.04-2.92A1 1 0 0 1 14.86 7l4.38-.62 1.86-3.8a1 1 0 0 1 1.79 0l2 3.82 4.25.6a1 1 0 0 1 .55 1.71l-3.07 2.92L28 16.8a1 1 0 0 1-.38 1.06 1 1 0 0 1-.62.19Zm-5-5.22a1 1 0 0 1 .54.16l2.84 1.83-.85-3.22a1 1 0 0 1 .28-1l2-1.91-2.73-.39a1 1 0 0 1-.75-.53L22 5.27l-1.2 2.5a1 1 0 0 1-.76.55l-2.85.4 2 1.9a1 1 0 0 1 .28 1l-.85 3.22L21.46 13a1 1 0 0 1 .54-.17Z"/><path d="M15.82 30.05A13.81 13.81 0 0 1 9.08 4.18a1 1 0 0 1 1.36 1.36 11.8 11.8 0 0 0 16.07 16.07 1 1 0 0 1 1.2.17 1 1 0 0 1 .16 1.2 13.83 13.83 0 0 1-12.05 7.07ZM7.33 8A11.81 11.81 0 0 0 24 24.72a13.45 13.45 0 0 1-3.28.4A13.8 13.8 0 0 1 7.33 8Z"/></svg>